{"glyphs":{"0":{"ha":829,"x_min":83,"x_max":746,"o":"m 83 483 q 90 577 83 524 q 110 687 96 631 q 149 797 125 743 q 210 894 174 851 q 296 963 246 936 q 413 989 346 989 q 530 963 479 989 q 617 894 581 936 q 679 797 654 851 q 719 687 704 743 q 740 577 733 631 q 746 483 746 524 q 726 308 746 396 q 666 147 707 219 q 562 30 625 75 q 413 -15 499 -15 q 265 30 326 -15 q 163 147 203 75 q 103 308 122 219 q 83 483 83 396 m 222 483 q 228 335 222 413 q 253 193 233 257 q 311 88 274 129 q 413 46 349 46 q 517 88 478 46 q 576 193 556 129 q 601 335 596 257 q 607 483 607 413 q 601 635 607 556 q 576 778 596 714 q 517 885 556 843 q 413 928 478 928 q 311 885 349 928 q 253 778 274 843 q 228 635 233 714 q 222 483 222 556 z "},"1":{"ha":443,"x_min":42,"x_max":304,"o":"m 304 0 l 186 0 l 186 842 l 79 731 l 42 769 l 238 972 l 304 972 l 304 0 z "},"2":{"ha":756,"x_min":69,"x_max":714,"o":"m 714 0 l 75 0 l 338 293 q 412 383 372 335 q 485 486 451 432 q 540 599 518 540 q 563 718 563 657 q 512 871 563 814 q 382 928 461 928 q 303 910 335 928 q 252 862 272 892 q 222 792 232 832 q 208 710 213 753 l 69 710 q 93 819 69 768 q 159 908 117 871 q 258 967 201 946 q 382 989 315 989 q 517 967 457 989 q 617 908 576 946 q 678 822 657 871 q 700 718 700 772 q 687 601 700 650 q 645 508 674 553 q 572 413 617 463 q 463 293 526 363 l 282 100 l 714 100 l 714 0 z "},"3":{"ha":797,"x_min":69,"x_max":714,"o":"m 335 547 q 402 553 364 547 q 474 580 440 560 q 531 638 508 600 q 554 736 554 675 q 544 808 554 774 q 512 869 533 842 q 457 912 490 896 q 378 928 424 928 q 322 921 349 928 q 275 895 296 914 q 240 843 254 876 q 221 758 226 810 l 97 758 q 113 837 99 796 q 161 912 128 878 q 249 967 194 946 q 385 989 303 989 q 515 967 460 989 q 605 910 569 946 q 657 828 640 875 q 674 729 674 781 q 635 612 674 657 q 517 533 596 567 l 501 528 l 501 518 l 517 515 q 599 485 563 508 q 660 430 635 463 q 700 358 686 397 q 714 279 714 318 q 692 171 714 224 q 628 77 671 118 q 520 11 585 36 q 369 -14 456 -14 q 254 3 308 -15 q 159 53 200 21 q 94 129 118 86 q 69 219 69 172 l 208 219 q 223 154 210 186 q 259 99 236 122 q 314 60 282 75 q 386 46 346 46 q 522 101 469 46 q 574 274 574 157 q 568 335 574 299 q 540 405 563 371 q 468 463 517 439 q 335 486 419 486 l 335 547 z "},"4":{"ha":760,"x_min":42,"x_max":704,"o":"m 572 307 l 704 307 l 704 233 l 572 233 l 572 0 l 460 0 l 460 233 l 42 233 l 521 972 l 572 972 l 572 307 m 150 307 l 460 307 l 460 786 l 150 307 z "},"5":{"ha":783,"x_min":42,"x_max":700,"o":"m 246 624 q 316 647 285 639 q 386 654 347 654 q 510 633 453 654 q 609 570 567 611 q 676 472 651 529 q 700 344 700 415 q 672 192 700 258 q 594 79 643 125 q 478 9 544 33 q 338 -15 413 -15 q 220 3 274 -15 q 128 54 167 22 q 66 131 89 86 q 42 225 43 175 l 143 225 q 158 155 144 188 q 197 98 172 122 q 256 60 221 74 q 335 46 290 46 q 415 62 375 46 q 488 113 456 78 q 541 203 521 149 q 561 336 561 258 q 503 514 561 446 q 328 582 444 582 q 251 576 300 582 q 143 540 203 571 l 267 972 l 688 972 l 660 896 l 326 896 l 246 624 z "},"6":{"ha":813,"x_min":83,"x_max":729,"o":"m 681 825 q 653 899 675 868 q 597 950 631 931 q 522 979 564 969 q 435 989 481 989 q 272 947 339 989 q 163 834 206 904 q 102 674 121 764 q 83 489 83 583 q 96 310 83 400 q 144 149 108 221 q 244 31 179 76 q 411 -15 308 -15 q 540 11 482 -15 q 640 83 599 38 q 706 190 682 129 q 729 321 729 251 q 703 464 729 404 q 635 563 676 524 q 541 620 593 601 q 438 639 489 639 q 299 604 351 639 q 224 522 247 569 l 207 490 l 201 490 q 210 668 201 588 q 244 806 219 749 q 314 896 269 864 q 428 928 358 928 q 518 901 481 928 q 564 825 556 874 l 681 825 m 215 311 q 233 434 215 383 q 280 516 251 485 q 343 562 308 547 q 413 576 378 576 q 476 564 443 576 q 538 521 510 551 q 583 439 565 490 q 600 311 600 388 q 581 176 600 228 q 532 94 561 124 q 470 56 503 65 q 411 46 438 46 q 342 60 378 46 q 279 108 307 75 q 233 190 251 140 q 215 311 215 240 z "},"7":{"ha":738,"x_min":42,"x_max":696,"o":"m 696 972 l 42 972 l 42 896 l 550 896 l 393 510 l 239 510 l 239 450 l 369 450 l 188 0 l 303 0 l 485 450 l 626 450 l 626 510 l 508 510 l 696 972 z "},"8":{"ha":813,"x_min":83,"x_max":729,"o":"m 303 524 q 219 551 254 529 q 159 605 183 574 q 123 672 135 636 q 111 744 111 708 q 126 826 111 783 q 176 906 142 869 q 267 965 211 942 q 404 989 322 989 q 541 965 485 989 q 632 906 597 942 q 683 826 667 869 q 699 744 699 783 q 687 672 699 708 q 651 605 675 636 q 591 551 626 574 q 508 524 556 529 l 508 517 q 601 491 560 514 q 670 433 642 468 q 714 354 699 397 q 729 268 729 311 q 709 166 729 217 q 649 75 689 115 q 547 10 608 35 q 404 -15 486 -15 q 262 10 322 -15 q 162 75 201 35 q 103 166 122 115 q 83 268 83 217 q 99 354 83 311 q 142 433 114 397 q 210 491 169 468 q 303 517 251 514 l 303 524 m 404 540 q 472 552 439 540 q 530 588 504 564 q 571 648 556 613 q 586 732 586 683 q 567 828 586 790 q 521 888 549 867 q 462 919 493 910 q 404 928 431 928 q 347 919 378 928 q 290 888 317 910 q 244 828 263 867 q 226 732 226 790 q 242 648 226 683 q 282 588 257 613 q 339 552 307 564 q 404 540 371 540 m 404 492 q 328 476 363 492 q 269 431 293 460 q 231 365 244 403 q 218 282 218 326 q 269 110 218 174 q 404 46 319 46 q 543 110 492 46 q 594 282 594 174 q 581 365 594 326 q 543 431 568 403 q 483 476 518 460 q 404 492 447 492 z "},"9":{"ha":813,"x_min":83,"x_max":729,"o":"m 249 149 q 294 73 257 100 q 385 46 332 46 q 499 78 454 46 q 568 167 543 110 q 602 306 593 225 q 611 483 611 386 l 606 483 l 593 451 q 556 398 581 419 q 501 363 532 376 q 437 343 471 349 q 369 338 403 338 q 272 356 322 338 q 179 413 221 374 q 110 510 138 451 q 83 653 83 569 q 107 782 83 721 q 172 889 131 843 q 272 962 214 935 q 401 989 331 989 q 569 943 504 989 q 669 825 633 897 q 717 663 704 753 q 729 485 729 572 q 710 300 729 390 q 649 140 692 210 q 540 27 607 69 q 378 -15 474 -15 q 290 -6 332 -15 q 215 24 249 4 q 160 74 182 43 q 132 149 138 106 l 249 149 m 597 663 q 579 783 597 733 q 533 866 561 833 q 470 913 506 899 q 401 928 435 928 q 342 918 375 928 q 281 879 310 908 q 232 798 251 850 q 213 663 213 746 q 230 534 213 585 q 275 453 247 483 q 335 410 303 422 q 400 397 368 397 q 469 412 435 397 q 533 458 504 426 q 579 540 561 489 q 597 663 597 590 z "}," ":{"ha":486,"x_min":0,"x_max":0,"o":""},"E":{"ha":836,"x_min":167,"x_max":794,"o":"m 167 972 l 167 0 l 794 0 l 794 76 l 293 76 l 293 483 l 724 483 l 724 547 l 293 547 l 293 896 l 794 896 l 794 972 l 167 972 z "},"F":{"ha":836,"x_min":167,"x_max":794,"o":"m 167 972 l 167 0 l 293 0 l 293 483 l 724 483 l 724 547 l 293 547 l 293 896 l 794 896 l 794 972 l 167 972 z "},"G":{"ha":1135,"x_min":83,"x_max":1054,"o":"m 1051 433 l 776 433 l 776 376 l 932 376 l 932 125 q 804 65 869 85 q 656 46 739 46 q 464 79 546 46 q 328 172 382 113 q 247 312 274 231 q 219 490 219 393 q 245 667 219 586 q 322 806 271 747 q 448 896 374 864 q 621 928 522 928 q 743 914 686 928 q 844 878 800 900 q 917 827 889 856 q 954 769 946 799 l 1054 769 q 1012 838 1042 800 q 931 910 982 876 q 803 966 879 943 q 625 989 728 989 q 408 956 507 989 q 236 860 308 922 q 124 706 164 797 q 83 500 83 615 q 115 309 83 401 q 210 144 146 217 q 375 27 275 71 q 614 -17 475 -17 q 799 6 718 -17 q 932 57 879 29 l 932 0 l 1051 0 l 1051 433 z "},"H":{"ha":1168,"x_min":167,"x_max":1001,"o":"m 293 483 l 875 483 l 875 0 l 1001 0 l 1001 972 l 875 972 l 875 547 l 293 547 l 293 972 l 167 972 l 167 0 l 293 0 l 293 483 z "},"D":{"ha":1063,"x_min":181,"x_max":1021,"o":"m 181 0 l 181 972 l 500 972 q 711 935 615 972 q 876 834 807 899 q 983 681 944 769 q 1021 489 1021 592 q 981 292 1021 382 q 873 138 942 203 q 713 36 804 72 q 517 0 621 0 l 181 0 m 307 61 l 460 61 q 653 99 574 61 q 785 199 733 138 q 860 335 836 260 q 883 486 883 411 q 856 647 883 569 q 774 783 828 724 q 642 876 721 842 q 460 911 563 911 l 307 911 l 307 61 z "},"I":{"ha":571,"x_min":222,"x_max":349,"o":"m 222 972 l 222 0 l 349 0 l 349 972 l 222 972 z "},"J":{"ha":725,"x_min":14,"x_max":558,"o":"m 432 972 l 432 271 q 430 198 432 238 q 414 124 428 158 q 372 67 400 90 q 290 44 343 44 q 215 61 244 44 q 167 103 185 78 q 142 156 150 128 q 135 207 135 185 l 14 207 q 83 42 17 100 q 283 -17 150 -17 q 435 12 379 -17 q 517 84 490 40 q 551 179 544 128 q 558 275 558 231 l 558 972 l 432 972 z "},"K":{"ha":1006,"x_min":167,"x_max":964,"o":"m 167 0 l 293 0 l 293 342 l 450 510 l 819 0 l 964 0 l 531 596 l 883 972 l 814 972 l 293 425 l 293 972 l 167 972 l 167 0 z "},"L":{"ha":836,"x_min":167,"x_max":794,"o":"m 167 0 l 167 972 l 293 972 l 293 76 l 794 76 l 794 0 l 167 0 z "},"M":{"ha":1425,"x_min":167,"x_max":1258,"o":"m 261 972 l 167 972 l 167 0 l 228 0 l 228 793 l 233 793 l 663 -17 l 688 -17 l 1126 788 l 1132 788 l 1132 0 l 1258 0 l 1258 972 l 1163 972 l 713 138 l 707 138 l 261 972 z "},"N":{"ha":1181,"x_min":167,"x_max":1014,"o":"m 950 972 l 950 229 l 944 229 l 174 989 l 167 989 l 167 0 l 231 0 l 231 743 l 236 743 l 1007 -17 l 1014 -17 l 1014 972 l 950 972 z "},"O":{"ha":1201,"x_min":69,"x_max":1132,"o":"m 69 486 q 99 320 69 408 q 193 157 129 232 q 356 33 257 82 q 592 -17 454 -17 q 760 6 685 -17 q 897 68 836 29 q 1001 158 957 107 q 1074 265 1046 208 q 1117 378 1103 321 q 1132 486 1132 435 q 1100 652 1132 564 q 1001 815 1068 740 q 833 940 935 890 q 592 989 731 989 q 356 940 454 989 q 193 817 257 892 q 99 654 129 743 q 69 486 69 565 m 206 486 q 235 665 206 583 q 317 804 265 746 q 440 895 369 863 q 594 928 511 928 q 749 895 676 928 q 877 804 822 863 q 964 665 932 746 q 996 486 996 583 q 964 308 996 389 q 877 168 932 226 q 749 77 822 110 q 594 44 676 44 q 440 77 511 44 q 317 168 369 110 q 235 308 265 226 q 206 486 206 389 z "},"P":{"ha":851,"x_min":167,"x_max":810,"o":"m 293 406 q 371 390 329 396 q 463 383 413 383 q 613 407 547 383 q 722 472 678 431 q 788 566 765 513 q 810 681 810 619 q 790 792 810 739 q 731 885 771 846 q 632 949 692 925 q 492 972 572 972 l 167 972 l 167 0 l 293 0 l 293 406 m 293 911 l 439 911 q 542 890 497 911 q 615 835 586 869 q 659 759 644 801 q 674 675 674 717 q 660 594 674 635 q 618 519 647 553 q 544 465 589 486 q 438 444 500 444 q 358 448 394 444 q 293 463 322 451 l 293 911 z "},"Q":{"ha":1242,"x_min":90,"x_max":1165,"o":"m 938 -122 l 1043 -85 l 911 53 q 1028 147 979 93 q 1107 258 1076 200 q 1151 376 1138 317 q 1165 488 1165 435 q 1134 655 1165 567 q 1037 817 1103 743 q 869 940 971 892 q 624 989 767 989 q 381 940 482 989 q 216 818 281 892 q 121 656 151 744 q 90 488 90 567 q 129 293 90 385 q 239 133 168 201 q 408 24 310 64 q 624 -17 506 -17 q 717 -10 671 -17 q 807 11 763 -4 l 938 -122 m 746 226 l 658 169 l 757 68 q 685 49 721 54 q 611 44 649 44 q 465 74 535 44 q 343 162 396 104 q 259 301 290 219 q 228 488 228 383 q 259 667 228 586 q 344 806 290 749 q 469 896 397 864 q 624 928 542 928 q 782 896 708 928 q 910 806 856 864 q 995 667 964 749 q 1026 488 1026 586 q 1023 419 1026 461 q 1003 326 1019 376 q 951 221 986 275 q 851 117 915 167 l 746 226 z "},"R":{"ha":997,"x_min":167,"x_max":956,"o":"m 167 972 l 167 0 l 293 0 l 293 429 l 354 429 q 419 422 393 429 q 465 399 444 415 q 504 356 486 382 q 547 290 522 329 l 657 128 q 698 69 678 96 q 742 24 718 43 q 795 -6 765 6 q 867 -17 825 -17 q 917 -14 897 -17 q 956 0 936 -11 l 956 51 q 942 49 949 50 q 928 49 935 49 q 876 57 899 49 q 835 81 854 65 q 797 120 815 97 q 760 172 779 143 q 669 308 701 257 q 619 386 638 358 q 588 426 600 414 q 560 447 576 439 l 546 454 l 546 460 q 660 489 613 464 q 739 551 708 514 q 783 633 769 589 q 797 718 797 676 q 783 800 797 756 q 733 883 768 844 q 636 947 697 921 q 482 972 575 972 l 167 972 m 293 911 l 433 911 q 528 896 486 911 q 601 853 571 881 q 648 789 632 826 q 664 707 664 751 q 649 631 664 669 q 606 562 635 593 q 534 511 576 531 q 436 492 492 492 l 293 492 l 293 911 z "},"S":{"ha":868,"x_min":51,"x_max":774,"o":"m 51 246 q 83 138 54 186 q 160 55 111 89 q 276 2 210 21 q 422 -17 343 -17 q 567 3 503 -17 q 678 58 632 22 q 749 146 724 94 q 774 260 774 197 q 731 401 774 346 q 623 492 688 456 q 483 554 558 529 q 342 607 407 579 q 235 671 278 635 q 192 767 192 707 q 206 829 192 800 q 249 880 221 858 q 319 915 278 901 q 415 928 361 928 q 569 890 506 928 q 643 769 632 851 l 738 769 q 700 862 729 821 q 626 931 671 903 q 526 974 582 960 q 408 989 469 989 q 287 972 344 989 q 185 924 229 956 q 116 843 142 892 q 90 732 90 794 q 132 600 90 650 q 237 517 174 550 q 374 460 300 483 q 510 406 447 436 q 615 333 574 376 q 657 218 657 290 q 591 86 657 128 q 415 44 525 44 q 275 67 328 44 q 194 122 222 90 q 157 188 167 154 q 146 246 147 222 l 51 246 z "},"T":{"ha":926,"x_min":28,"x_max":899,"o":"m 526 0 l 526 896 l 899 896 l 899 972 l 28 972 l 28 896 l 400 896 l 400 0 l 526 0 z "},"U":{"ha":1000,"x_min":111,"x_max":889,"o":"m 111 972 l 111 375 q 122 249 111 318 q 175 122 133 181 q 299 23 217 63 q 522 -17 381 -17 q 680 11 611 -17 q 795 88 749 39 q 865 201 842 136 q 889 339 889 265 l 889 972 l 828 972 l 828 385 q 826 323 828 354 q 818 260 825 292 q 797 199 811 229 q 754 138 782 168 q 642 64 704 83 q 511 44 579 44 q 408 63 453 44 q 322 117 363 81 q 274 172 290 144 q 249 227 257 200 q 239 282 240 254 q 238 338 238 310 l 238 972 l 111 972 z "},"V":{"ha":968,"x_min":42,"x_max":926,"o":"m 42 972 l 449 0 l 532 0 l 926 972 l 854 972 l 531 172 l 525 172 l 192 972 l 42 972 z "},"W":{"ha":1467,"x_min":42,"x_max":1425,"o":"m 42 972 l 386 0 l 469 0 l 735 760 l 742 760 l 999 0 l 1081 0 l 1425 972 l 1361 972 l 1074 161 l 1068 161 l 797 972 l 738 972 l 461 165 l 456 165 l 169 972 l 42 972 z "},"X":{"ha":999,"x_min":42,"x_max":957,"o":"m 197 972 l 42 972 l 421 485 l 49 0 l 124 0 l 456 435 l 461 435 l 800 0 l 957 0 l 536 538 l 868 972 l 794 972 l 501 590 l 494 590 l 197 972 z "},"Y":{"ha":888,"x_min":42,"x_max":846,"o":"m 42 972 l 378 368 l 378 0 l 504 0 l 504 381 l 846 972 l 771 972 l 474 460 l 468 460 l 185 972 l 42 972 z "},"Z":{"ha":925,"x_min":42,"x_max":883,"o":"m 76 972 l 76 896 l 664 896 l 42 0 l 883 0 l 883 76 l 243 76 l 860 972 l 76 972 z "},"a":{"ha":750,"x_min":56,"x_max":639,"o":"m 367 710 q 524 681 468 710 q 605 607 579 653 q 635 501 631 561 q 639 379 639 442 l 639 0 l 526 0 l 526 68 q 424 6 486 29 q 299 -17 361 -17 q 193 4 239 -17 q 117 58 147 25 q 71 133 86 92 q 56 218 56 175 q 72 307 56 263 q 122 387 89 351 q 204 444 156 422 q 315 467 253 467 q 434 442 378 467 q 526 374 490 418 l 526 433 q 492 603 526 547 q 368 658 458 658 q 300 649 329 658 q 248 622 271 639 q 206 578 225 604 q 167 521 186 553 l 94 593 q 135 635 114 614 q 188 672 157 656 q 263 699 219 689 q 367 710 306 710 m 526 275 q 506 314 519 292 q 472 357 493 336 q 422 392 451 378 q 353 407 393 407 q 279 391 313 407 q 223 349 246 375 q 188 289 200 324 q 175 217 175 254 q 191 140 175 172 q 232 84 207 107 q 288 50 257 61 q 346 39 318 39 q 399 49 372 39 q 451 76 426 58 q 494 117 475 93 q 526 168 514 140 l 526 275 z "},"b":{"ha":839,"x_min":111,"x_max":769,"o":"m 111 972 l 229 972 l 229 581 l 235 581 q 272 641 249 617 q 324 681 294 665 q 385 703 353 696 q 451 710 418 710 q 579 684 521 710 q 680 611 638 658 q 746 497 722 564 q 769 349 769 431 q 746 198 769 265 q 680 83 722 131 q 579 9 638 35 q 451 -17 521 -17 q 235 113 286 -17 l 229 113 l 229 0 l 111 0 l 111 972 m 229 278 q 244 191 229 232 q 285 120 258 150 q 347 73 311 90 q 422 56 382 56 q 505 72 465 56 q 574 122 544 88 q 620 213 603 157 q 638 346 638 268 q 620 481 638 425 q 573 572 603 536 q 504 623 543 607 q 422 639 465 639 q 349 623 383 639 q 288 576 314 607 q 245 500 261 544 q 229 399 229 456 l 229 278 z "},"g":{"ha":836,"x_min":69,"x_max":725,"o":"m 607 -58 q 592 -167 607 -122 q 549 -239 576 -211 q 485 -279 522 -267 q 407 -292 449 -292 q 288 -254 333 -292 q 206 -154 243 -217 l 129 -224 q 160 -256 139 -236 q 213 -297 181 -276 q 289 -331 244 -317 q 390 -346 333 -346 q 561 -316 496 -346 q 663 -236 626 -286 q 712 -122 699 -186 q 725 13 725 -57 l 725 694 l 607 694 l 607 586 l 601 586 q 530 677 585 644 q 386 710 475 710 q 257 684 315 710 q 157 611 199 658 q 92 497 115 564 q 69 349 69 431 q 92 198 69 265 q 157 83 115 131 q 256 9 199 35 q 385 -17 314 -17 q 520 14 463 -17 q 601 111 578 44 l 607 111 l 607 -58 m 607 296 q 591 193 607 238 q 549 118 575 149 q 488 72 522 88 q 415 56 453 56 q 344 67 382 56 q 273 111 306 79 q 219 201 240 143 q 197 351 197 260 q 224 506 197 449 q 285 594 250 564 q 358 634 321 625 q 415 643 394 643 q 497 623 461 643 q 558 569 533 603 q 594 490 582 535 q 607 399 607 446 l 607 296 z "},"h":{"ha":790,"x_min":111,"x_max":679,"o":"m 111 972 l 111 0 l 229 0 l 229 401 q 233 469 229 429 q 256 547 238 510 q 313 612 275 585 q 417 639 350 639 q 492 622 464 639 q 536 575 521 604 q 556 507 551 546 q 561 426 561 468 l 561 0 l 679 0 l 679 458 q 657 585 679 536 q 601 663 635 635 q 528 700 568 690 q 453 710 489 710 q 351 691 404 710 q 250 619 297 672 l 235 600 l 229 600 l 229 972 l 111 972 z "},"f":{"ha":504,"x_min":42,"x_max":504,"o":"m 42 694 l 42 639 l 163 639 l 163 0 l 281 0 l 281 639 l 449 639 l 449 694 l 281 694 l 281 811 q 282 851 281 828 q 290 894 283 874 q 312 928 297 914 q 353 942 326 942 q 408 914 386 942 q 443 857 429 886 l 504 922 q 435 972 471 956 q 356 989 400 989 q 285 976 319 989 q 223 938 250 964 q 179 872 196 913 q 163 778 163 832 l 163 694 l 42 694 z "},"e":{"ha":797,"x_min":69,"x_max":728,"o":"m 728 317 l 728 346 q 701 507 728 439 q 630 619 675 575 q 525 686 585 664 q 399 708 465 708 q 268 684 328 708 q 164 613 208 660 q 94 501 119 567 q 69 351 69 435 q 91 216 69 282 q 156 98 113 150 q 267 15 200 46 q 426 -17 335 -17 q 590 15 515 -17 q 721 104 665 46 l 676 149 q 622 103 647 124 q 569 68 596 82 q 515 47 543 54 q 451 39 486 39 q 369 51 413 39 q 288 93 325 63 q 225 178 250 124 q 200 317 200 232 l 728 317 m 200 372 q 212 480 200 428 q 248 572 224 532 q 310 637 272 613 q 399 661 347 661 q 552 584 497 661 q 607 372 607 507 l 200 372 z "},"i":{"ha":428,"x_min":139,"x_max":289,"o":"m 156 694 l 156 0 l 274 0 l 274 694 l 156 694 m 139 914 q 161 861 139 883 q 214 839 183 839 q 267 861 244 839 q 289 914 289 883 q 267 967 289 944 q 214 989 244 989 q 161 967 183 989 q 139 914 139 944 z "},"j":{"ha":404,"x_min":-83,"x_max":293,"o":"m 157 694 l 157 -128 q 154 -190 157 -160 q 142 -243 151 -219 q 116 -281 133 -267 q 71 -294 99 -294 q 19 -278 36 -294 q -14 -225 1 -261 l -83 -279 q -12 -333 -53 -319 q 74 -347 29 -347 q 140 -336 104 -347 q 206 -294 175 -325 q 256 -208 236 -262 q 276 -65 276 -153 l 276 694 l 157 694 m 143 914 q 165 861 143 883 q 218 839 186 839 q 271 861 249 839 q 293 914 293 883 q 271 967 293 944 q 218 989 249 989 q 165 967 186 989 q 143 914 143 944 z "},"o":{"ha":858,"x_min":69,"x_max":789,"o":"m 789 346 q 764 208 789 274 q 692 92 739 142 q 580 13 646 42 q 432 -17 514 -17 q 281 13 349 -17 q 167 93 214 43 q 95 209 121 143 q 69 346 69 275 q 95 484 69 418 q 167 600 121 550 q 281 680 214 650 q 432 710 349 710 q 580 680 514 710 q 692 600 646 650 q 764 484 739 550 q 789 346 789 418 m 657 346 q 636 503 657 443 q 582 597 615 564 q 508 642 549 631 q 431 654 468 654 q 353 642 393 654 q 278 597 313 631 q 223 503 244 564 q 201 346 201 443 q 223 190 201 250 q 278 96 244 129 q 353 51 313 63 q 431 39 393 39 q 508 51 468 39 q 582 96 549 63 q 636 190 615 129 q 657 346 657 250 z "},"r":{"ha":531,"x_min":111,"x_max":517,"o":"m 111 694 l 111 0 l 229 0 l 229 419 q 242 516 229 476 q 276 581 256 556 q 322 617 297 606 q 371 628 347 628 q 430 607 403 628 q 469 568 457 586 l 517 654 q 487 682 504 671 q 452 699 469 693 q 420 708 435 706 q 399 710 406 710 q 301 678 340 710 q 238 583 263 646 l 229 583 l 229 694 l 111 694 z "},"n":{"ha":807,"x_min":111,"x_max":692,"o":"m 692 0 l 692 450 q 688 519 692 475 q 660 605 683 563 q 588 678 638 647 q 446 710 538 710 q 356 694 406 711 q 257 628 306 676 l 235 606 l 229 606 l 229 694 l 111 694 l 111 0 l 229 0 l 229 429 q 244 522 229 483 q 286 588 260 561 q 347 626 313 614 q 417 639 381 639 q 507 616 475 639 q 553 563 539 593 q 571 501 568 532 q 574 457 574 471 l 574 0 l 692 0 z "},"l":{"ha":396,"x_min":139,"x_max":257,"o":"m 257 972 l 139 972 l 139 0 l 257 0 l 257 972 z "},"m":{"ha":1193,"x_min":111,"x_max":1082,"o":"m 229 0 l 229 396 q 233 462 229 421 q 255 542 238 503 q 308 610 272 582 q 410 639 344 639 q 483 618 457 639 q 521 567 508 597 q 535 503 533 536 q 538 444 538 469 l 538 0 l 656 0 l 656 396 q 661 469 656 426 q 685 549 667 511 q 737 613 703 586 q 829 639 771 639 q 899 626 872 639 q 940 589 925 614 q 959 528 954 564 q 964 444 964 492 l 964 0 l 1082 0 l 1082 485 q 1075 556 1082 517 q 1045 630 1068 596 q 978 687 1022 664 q 863 710 935 710 q 814 706 842 710 q 756 688 786 701 q 697 647 725 674 q 647 578 668 621 l 638 578 q 614 623 629 600 q 575 665 599 646 q 519 697 551 685 q 440 710 486 710 q 390 705 419 710 q 332 686 361 700 q 277 647 303 672 q 235 582 251 622 l 229 582 l 229 694 l 111 694 l 111 0 l 229 0 z "},"z":{"ha":681,"x_min":28,"x_max":639,"o":"m 50 694 l 50 639 l 468 639 l 28 0 l 635 0 l 635 56 l 199 56 l 639 694 l 50 694 z "},"v":{"ha":708,"x_min":28,"x_max":681,"o":"m 28 694 l 317 0 l 400 0 l 681 694 l 615 694 l 390 138 l 382 138 l 150 694 l 28 694 z "},"w":{"ha":1036,"x_min":28,"x_max":1008,"o":"m 28 694 l 268 0 l 343 0 l 504 465 l 510 465 l 690 0 l 756 0 l 1008 694 l 936 694 l 747 175 l 742 175 l 544 694 l 517 694 l 335 171 l 329 171 l 149 694 l 28 694 z "},"x":{"ha":738,"x_min":42,"x_max":696,"o":"m 342 288 l 554 0 l 696 0 l 413 381 l 646 694 l 565 694 l 372 435 l 182 694 l 42 694 l 301 342 l 43 0 l 125 0 l 342 288 z "},"y":{"ha":700,"x_min":14,"x_max":672,"o":"m 381 163 l 140 694 l 14 694 l 325 8 l 251 -172 q 219 -224 239 -204 q 172 -243 199 -243 q 124 -228 147 -243 q 89 -186 101 -214 l 28 -301 q 86 -336 54 -325 q 146 -347 118 -347 q 214 -328 185 -347 q 265 -277 243 -308 q 304 -208 288 -246 q 336 -132 321 -169 l 672 694 l 604 694 l 386 163 l 381 163 z "},"s":{"ha":667,"x_min":46,"x_max":590,"o":"m 554 536 q 535 606 554 574 q 481 660 515 638 q 402 697 447 683 q 306 710 357 710 q 215 697 257 710 q 141 660 172 685 q 92 598 110 635 q 74 513 74 561 q 104 407 74 446 q 181 344 135 368 q 280 306 226 321 q 379 274 333 292 q 456 231 425 257 q 486 158 486 204 q 480 118 486 139 q 457 80 474 97 q 411 51 440 63 q 338 39 382 39 q 244 56 282 39 q 181 98 206 74 q 147 147 157 122 q 136 189 136 172 l 46 189 q 64 113 46 150 q 119 47 82 76 q 209 1 156 18 q 333 -17 263 -17 q 526 40 461 -17 q 590 188 590 96 q 559 294 590 254 q 481 359 528 335 q 378 399 433 383 q 276 431 324 414 q 198 471 229 447 q 167 538 167 494 q 174 576 167 556 q 197 613 181 596 q 242 642 214 631 q 311 654 269 654 q 383 642 353 654 q 435 613 414 631 q 465 575 456 596 q 475 536 475 554 l 554 536 z "},"k":{"ha":744,"x_min":111,"x_max":744,"o":"m 229 972 l 111 972 l 111 0 l 229 0 l 229 261 l 310 343 l 589 0 l 744 0 l 396 428 l 661 694 l 571 694 l 229 350 l 229 972 z "},"c":{"ha":756,"x_min":69,"x_max":714,"o":"m 460 56 q 363 71 410 56 q 281 120 317 86 q 223 210 244 154 q 201 349 201 267 q 225 492 201 433 q 284 587 249 551 q 363 638 319 622 q 444 654 406 654 q 556 621 508 654 q 618 539 603 588 l 714 539 q 669 622 700 589 q 599 674 639 654 q 515 702 560 694 q 428 710 469 710 q 274 681 340 710 q 161 604 207 653 q 92 490 115 556 q 69 351 69 425 q 94 206 69 274 q 166 90 119 139 q 278 12 213 40 q 425 -17 343 -17 q 585 14 517 -17 q 701 81 654 44 l 661 133 q 565 74 613 93 q 460 56 517 56 z "},"B":{"ha":918,"x_min":167,"x_max":849,"o":"m 167 0 l 515 0 q 672 24 608 0 q 775 88 736 49 q 831 176 814 126 q 849 275 849 225 q 815 401 849 354 q 733 474 781 449 q 636 507 686 499 q 556 517 586 515 l 556 522 q 647 541 604 522 q 723 590 690 560 q 775 659 756 619 q 794 743 794 699 q 778 822 794 782 q 727 896 761 863 q 640 951 693 929 q 514 972 586 972 l 167 972 l 167 0 m 293 61 l 293 486 l 446 486 q 564 468 514 486 q 647 419 614 450 q 695 349 679 389 q 711 264 711 308 q 694 178 711 215 q 647 114 676 140 q 578 74 618 88 q 494 61 539 61 l 293 61 m 293 547 l 293 911 l 463 911 q 555 896 517 911 q 617 856 593 881 q 653 799 642 831 q 664 735 664 767 q 648 660 664 694 q 603 600 632 625 q 538 561 575 575 q 460 547 501 547 l 293 547 z "},"C":{"ha":1054,"x_min":69,"x_max":1026,"o":"m 985 179 q 649 46 843 46 q 457 83 540 46 q 318 183 374 121 q 234 328 263 246 q 206 499 206 410 q 235 672 206 593 q 319 807 265 750 q 448 896 374 864 q 610 928 522 928 q 719 914 669 928 q 806 878 768 900 q 869 827 844 856 q 903 769 893 799 l 1006 769 q 952 857 985 817 q 871 926 919 897 q 757 972 822 956 q 608 989 692 989 q 388 954 488 989 q 218 855 289 919 q 108 699 147 790 q 69 496 69 608 q 101 306 69 399 q 197 142 132 214 q 364 27 263 71 q 606 -17 465 -17 q 765 0 694 -17 q 887 41 835 17 q 974 93 939 65 q 1026 142 1008 121 l 985 179 z "},"u":{"ha":807,"x_min":111,"x_max":692,"o":"m 111 694 l 111 243 q 116 174 111 218 q 144 88 121 131 q 219 15 168 46 q 361 -17 269 -17 q 449 -1 401 -18 q 546 65 497 17 l 568 88 l 574 88 l 574 0 l 692 0 l 692 694 l 574 694 l 574 264 q 558 171 574 210 q 518 106 543 132 q 460 68 493 81 q 390 56 426 56 q 299 78 332 56 q 251 132 267 101 q 232 192 235 163 q 229 236 229 222 l 229 694 l 111 694 z "},"t":{"ha":521,"x_min":42,"x_max":510,"o":"m 42 639 l 42 694 l 163 694 l 163 908 l 281 908 l 281 694 l 449 694 l 449 639 l 281 639 l 281 178 q 282 140 281 161 q 290 99 283 118 q 312 68 297 81 q 353 56 326 56 q 408 81 386 56 q 444 135 431 106 l 510 68 q 356 0 442 0 q 285 13 319 0 q 223 51 250 25 q 179 117 196 76 q 163 211 163 157 l 163 639 l 42 639 z "},"Б":{"ha":932,"x_min":167,"x_max":849,"o":"m 293 896 l 760 896 l 760 972 l 167 972 l 167 0 l 486 0 q 666 25 596 0 q 776 90 736 50 q 833 178 817 129 q 849 275 849 226 q 833 372 849 324 q 776 460 817 421 q 665 523 735 499 q 486 547 594 547 l 293 547 l 293 896 m 293 58 l 293 486 l 476 486 q 574 469 531 486 q 648 424 618 453 q 694 353 678 394 q 711 265 711 313 q 692 176 711 215 q 641 112 672 138 q 569 72 610 86 q 485 58 528 58 l 293 58 z "},"Г":{"ha":801,"x_min":167,"x_max":760,"o":"m 167 972 l 167 0 l 293 0 l 293 896 l 760 896 l 760 972 l 167 972 z "},"Д":{"ha":1168,"x_min":42,"x_max":1126,"o":"m 606 972 l 521 972 l 172 65 l 42 65 l 42 -146 l 161 -146 l 161 0 l 1008 0 l 1008 -146 l 1126 -146 l 1126 65 l 990 65 l 606 972 m 857 65 l 238 65 l 529 821 l 535 821 l 857 65 z "},"Ж":{"ha":1664,"x_min":42,"x_max":1622,"o":"m 1583 54 q 1493 76 1529 54 q 1417 163 1457 99 l 1132 599 l 1492 972 l 1401 972 l 892 444 l 892 972 l 772 972 l 772 444 l 263 972 l 172 972 l 532 599 l 247 163 q 208 110 226 131 q 169 76 189 89 q 128 59 150 64 q 81 54 107 54 l 42 57 l 42 1 q 158 -17 97 -17 q 199 -15 179 -17 q 237 -5 218 -12 q 274 17 256 3 q 313 56 293 32 l 611 517 l 772 351 l 772 0 l 892 0 l 892 351 l 1053 517 l 1351 56 q 1389 17 1369 32 q 1427 -5 1408 3 q 1465 -15 1446 -12 q 1506 -17 1485 -17 q 1622 1 1567 -17 l 1622 57 l 1583 54 z "},"Т":{"ha":926,"x_min":28,"x_max":899,"o":"m 526 0 l 526 896 l 899 896 l 899 972 l 28 972 l 28 896 l 400 896 l 400 0 l 526 0 z "},"Х":{"ha":971,"x_min":28,"x_max":943,"o":"m 183 972 l 28 972 l 407 485 l 35 0 l 110 0 l 442 435 l 447 435 l 786 0 l 943 0 l 522 538 l 854 972 l 781 972 l 488 590 l 481 590 l 183 972 z "},"И":{"ha":1163,"x_min":167,"x_max":996,"o":"m 293 114 l 293 972 l 167 972 l 167 0 l 293 0 l 869 868 l 869 0 l 996 0 l 996 972 l 869 972 l 293 114 z "},"П":{"ha":1168,"x_min":167,"x_max":1001,"o":"m 1001 972 l 167 972 l 167 0 l 293 0 l 293 896 l 875 896 l 875 0 l 1001 0 l 1001 972 z "},"Й":{"ha":1163,"x_min":167,"x_max":996,"o":"m 574 1042 q 640 1044 599 1042 q 719 1058 681 1046 q 785 1099 757 1071 q 813 1178 813 1126 l 813 1194 l 679 1194 q 681 1181 681 1188 q 682 1168 682 1175 q 669 1122 682 1139 q 640 1097 657 1106 q 604 1088 622 1089 q 574 1086 586 1086 q 542 1088 561 1086 q 506 1097 524 1089 q 476 1122 489 1106 q 464 1168 464 1139 q 465 1181 464 1175 q 467 1194 465 1188 l 335 1194 l 335 1178 q 363 1099 335 1126 q 428 1058 390 1071 q 507 1044 467 1046 q 574 1042 547 1042 m 293 113 l 293 971 l 167 971 l 167 -1 l 293 -1 l 869 867 l 869 -1 l 996 -1 l 996 971 l 869 971 l 293 113 z "},"Л":{"ha":1097,"x_min":42,"x_max":1056,"o":"m 633 972 l 557 972 l 257 206 q 212 106 233 143 q 144 68 190 68 q 110 78 126 68 q 79 94 93 88 l 42 0 q 92 -12 65 -8 q 147 -17 119 -17 q 227 21 192 -17 q 290 129 263 58 l 561 817 l 567 817 l 918 0 l 1056 0 l 633 972 z "},"A":{"ha":1017,"x_min":42,"x_max":975,"o":"m 707 286 l 840 0 l 975 0 l 522 972 l 453 972 l 42 0 l 106 0 l 228 286 l 707 286 m 678 349 l 254 349 l 454 817 l 460 817 l 678 349 z "},"У":{"ha":917,"x_min":42,"x_max":875,"o":"m 190 972 l 42 972 l 476 268 l 426 163 q 392 114 413 135 q 328 93 372 93 q 267 114 294 93 q 221 158 239 135 l 163 29 q 220 -2 182 13 q 306 -17 258 -17 q 349 -12 326 -17 q 394 6 372 -8 q 436 44 415 19 q 476 108 457 68 l 875 972 l 803 972 l 543 408 l 538 408 l 190 972 z "},"Ф":{"ha":1211,"x_min":83,"x_max":1128,"o":"m 542 972 l 542 864 l 494 864 q 317 832 394 864 q 188 747 240 800 q 110 628 136 694 q 83 490 83 561 q 105 372 83 436 q 177 251 126 307 q 313 158 228 196 q 524 121 397 121 l 542 121 l 542 0 l 668 0 l 668 121 l 688 121 q 898 158 814 121 q 1033 251 982 196 q 1106 372 1085 307 q 1128 490 1128 436 q 1101 628 1128 561 q 1022 747 1074 694 q 893 832 969 800 q 717 864 817 864 l 668 864 l 668 972 l 542 972 m 542 176 l 533 176 q 404 201 463 176 q 304 267 346 225 q 240 367 263 310 q 217 490 217 424 q 234 603 217 546 q 288 704 251 660 q 383 777 325 749 q 524 806 442 806 l 542 806 l 542 176 m 668 176 l 668 806 l 688 806 q 828 777 769 806 q 923 704 886 749 q 977 603 960 660 q 994 490 994 546 q 972 367 994 424 q 907 267 949 310 q 807 201 865 225 q 678 176 749 176 l 668 176 z "},"З":{"ha":922,"x_min":83,"x_max":839,"o":"m 439 928 q 599 876 544 928 q 654 744 654 824 q 648 690 654 724 q 618 625 642 657 q 548 570 594 593 q 421 547 501 547 l 324 547 l 324 486 l 421 486 q 535 472 483 486 q 623 431 586 458 q 680 365 660 404 q 700 278 700 326 q 688 203 700 244 q 647 127 676 163 q 568 68 618 92 q 442 44 518 44 q 322 67 367 44 q 254 122 278 90 q 223 188 231 154 q 214 246 215 222 l 83 246 q 172 49 88 115 q 432 -17 256 -17 q 626 10 547 -17 q 751 78 704 36 q 819 171 799 119 q 839 272 839 222 q 817 373 839 328 q 761 451 796 418 q 682 501 726 483 q 592 518 638 518 l 582 518 l 582 524 q 662 542 625 524 q 725 592 699 561 q 766 664 751 624 q 781 746 781 704 q 763 834 781 790 q 703 912 744 878 q 599 967 663 946 q 443 989 535 989 q 314 975 372 989 q 213 932 256 961 q 146 858 171 903 q 119 754 121 814 l 225 754 q 237 810 226 779 q 272 866 247 840 q 336 910 296 892 q 439 928 376 928 z "},"Ц":{"ha":1199,"x_min":167,"x_max":1115,"o":"m 997 76 l 997 972 l 871 972 l 871 76 l 293 76 l 293 972 l 167 972 l 167 0 l 997 0 l 997 -146 l 1115 -146 l 1115 76 l 997 76 z "},"Ч":{"ha":983,"x_min":83,"x_max":817,"o":"m 690 474 q 633 464 664 468 q 570 456 601 460 q 510 451 539 453 q 461 450 482 450 q 318 465 369 450 q 243 505 267 481 q 215 560 219 529 q 210 622 210 590 l 210 972 l 83 972 l 83 585 q 92 515 83 550 q 133 452 101 481 q 229 406 165 424 q 404 389 293 389 q 549 397 469 389 q 690 413 628 404 l 690 0 l 817 0 l 817 972 l 690 972 l 690 474 z "},"Ш":{"ha":1579,"x_min":167,"x_max":1413,"o":"m 1285 972 l 1285 76 l 853 76 l 853 972 l 726 972 l 726 76 l 293 76 l 293 972 l 167 972 l 167 0 l 1413 0 l 1413 972 l 1285 972 z "},"Щ":{"ha":1614,"x_min":167,"x_max":1531,"o":"m 1413 -146 l 1531 -146 l 1531 76 l 1413 76 l 1413 972 l 1285 972 l 1285 76 l 853 76 l 853 972 l 726 972 l 726 76 l 293 76 l 293 972 l 167 972 l 167 0 l 1413 0 l 1413 -146 z "},"Ь":{"ha":929,"x_min":167,"x_max":846,"o":"m 167 0 l 497 0 q 664 26 597 0 q 771 94 731 53 q 828 187 811 136 q 846 288 846 238 q 827 382 846 335 q 767 465 808 429 q 662 524 726 501 q 506 547 597 547 l 293 547 l 293 972 l 167 972 l 167 0 m 293 61 l 293 486 l 471 486 q 566 470 522 486 q 641 426 610 454 q 690 358 672 397 q 707 272 707 318 q 691 191 707 229 q 647 124 675 153 q 578 78 618 94 q 490 61 539 61 l 293 61 z "},"Ы":{"ha":1278,"x_min":167,"x_max":1111,"o":"m 167 0 l 497 0 q 664 26 597 0 q 771 94 731 53 q 828 187 811 136 q 846 288 846 238 q 827 382 846 335 q 767 465 808 429 q 662 524 726 501 q 506 547 597 547 l 293 547 l 293 972 l 167 972 l 167 0 m 293 61 l 293 486 l 471 486 q 566 470 522 486 q 641 426 610 454 q 690 358 672 397 q 707 272 707 318 q 691 191 707 229 q 647 124 675 153 q 578 78 618 94 q 490 61 539 61 l 293 61 m 985 972 l 985 0 l 1111 0 l 1111 972 l 985 972 z "},"Ъ":{"ha":1114,"x_min":42,"x_max":1031,"o":"m 353 0 l 683 0 q 850 26 783 0 q 957 94 917 53 q 1014 187 997 136 q 1031 288 1031 238 q 1012 382 1031 335 q 953 465 993 429 q 848 524 913 501 q 692 547 783 547 l 479 547 l 479 972 l 42 972 l 42 790 l 160 790 l 160 894 l 353 894 l 353 0 m 479 61 l 479 486 l 657 486 q 752 470 708 486 q 827 426 796 454 q 876 358 858 397 q 893 272 893 318 q 877 191 893 229 q 833 124 861 153 q 765 78 804 94 q 676 61 725 61 l 479 61 z "},"Э":{"ha":1071,"x_min":42,"x_max":988,"o":"m 481 989 q 228 943 344 989 q 42 797 113 897 l 113 729 q 175 807 139 771 q 256 870 211 843 q 353 913 300 897 q 468 928 407 928 q 635 894 564 928 q 753 807 706 861 q 825 686 801 753 q 849 553 849 619 l 849 547 l 386 547 l 386 485 l 849 485 l 849 478 q 822 316 849 394 q 747 177 796 238 q 626 81 697 117 q 463 44 554 44 q 349 60 401 44 q 253 102 297 75 q 174 165 210 129 q 113 243 139 201 l 42 175 q 125 89 76 125 q 230 29 174 53 q 348 -6 286 6 q 472 -17 410 -17 q 638 7 564 -17 q 768 69 711 31 q 867 161 825 108 q 935 271 908 214 q 975 388 963 328 q 988 501 988 447 q 948 710 988 619 q 840 863 908 801 q 678 957 771 925 q 481 989 586 989 z "},"Ю":{"ha":1600,"x_min":167,"x_max":1517,"o":"m 293 547 l 293 972 l 167 972 l 167 0 l 293 0 l 293 486 l 464 486 q 515 258 467 353 q 638 101 563 163 q 806 12 713 40 q 993 -17 900 -17 q 1203 24 1107 -17 q 1369 133 1300 64 q 1478 293 1439 201 q 1517 488 1517 385 q 1486 656 1517 568 q 1392 818 1456 744 q 1230 940 1329 892 q 993 989 1131 989 q 790 953 882 989 q 630 858 699 918 q 519 717 561 797 q 464 547 476 636 l 293 547 m 993 928 q 1117 905 1050 928 q 1242 830 1185 882 q 1339 694 1300 778 q 1378 488 1378 610 q 1339 282 1378 367 q 1242 144 1300 197 q 1117 68 1185 92 q 993 44 1050 44 q 866 68 935 44 q 739 144 797 92 q 641 282 681 197 q 601 488 601 367 q 641 692 601 608 q 739 828 681 776 q 866 904 797 881 q 993 928 935 928 z "},"г":{"ha":581,"x_min":111,"x_max":567,"o":"m 567 639 l 567 694 l 111 694 l 111 0 l 229 0 l 229 639 l 567 639 z "},"б":{"ha":863,"x_min":69,"x_max":793,"o":"m 563 972 q 444 969 503 972 q 332 950 386 967 q 230 899 278 933 q 144 801 182 864 q 101 704 117 756 q 79 602 86 653 q 71 502 72 551 q 69 410 69 453 l 69 372 q 83 252 69 319 q 138 125 97 185 q 252 24 178 65 q 446 -17 326 -17 q 605 16 539 -17 q 713 101 671 49 q 774 219 754 154 q 793 351 793 285 q 773 483 793 418 q 711 597 753 547 q 604 678 669 647 q 447 710 539 710 q 333 694 383 710 q 246 653 283 679 q 182 594 208 628 q 140 526 156 561 l 135 526 l 135 533 q 165 697 135 621 q 246 811 196 772 q 367 862 303 854 q 510 869 432 869 l 681 869 l 756 972 l 563 972 m 201 343 q 218 483 201 424 q 265 580 235 542 q 337 636 296 618 q 426 654 378 654 q 486 649 447 654 q 564 614 525 643 q 632 522 603 585 q 661 343 661 458 q 638 188 661 247 q 582 95 615 128 q 511 51 549 63 q 446 39 474 39 q 367 51 410 39 q 287 98 324 64 q 226 191 250 132 q 201 343 201 250 z "},"в":{"ha":749,"x_min":111,"x_max":679,"o":"m 111 694 l 111 0 l 425 0 q 542 16 493 0 q 621 58 590 32 q 665 116 651 83 q 679 183 679 149 q 658 271 679 236 q 606 326 638 306 q 540 354 575 346 q 475 364 504 363 l 475 374 q 531 391 503 379 q 580 423 558 403 q 615 470 601 443 q 628 532 628 497 q 621 579 628 551 q 590 633 614 607 q 522 676 567 658 q 401 694 476 694 l 111 694 m 229 56 l 229 332 l 351 332 q 408 329 374 332 q 474 313 442 326 q 528 269 506 299 q 551 189 551 240 q 529 112 551 139 q 477 72 507 85 q 417 58 447 60 q 374 56 388 56 l 229 56 m 229 379 l 229 639 l 367 639 q 442 625 414 639 q 486 592 471 611 q 506 551 501 572 q 511 513 511 529 q 498 456 511 481 q 463 415 485 432 q 411 388 440 397 q 350 379 382 379 l 229 379 z "},"д":{"ha":833,"x_min":14,"x_max":819,"o":"m 724 56 l 457 694 l 374 694 l 114 56 l 14 56 l 14 -146 l 111 -146 l 111 0 l 722 0 l 722 -146 l 819 -146 l 819 56 l 724 56 m 383 557 l 392 557 l 599 56 l 179 56 l 383 557 z "},"к":{"ha":767,"x_min":111,"x_max":739,"o":"m 229 336 l 229 694 l 111 694 l 111 0 l 229 0 l 229 244 l 306 325 l 478 99 q 513 57 494 78 q 551 19 531 36 q 597 -7 572 3 q 649 -17 621 -17 q 697 -11 674 -17 q 739 0 721 -6 l 739 56 l 700 56 q 665 65 683 56 q 628 91 647 75 q 592 126 610 107 q 561 163 575 144 l 379 400 l 661 694 l 574 694 l 229 336 z "},"ж":{"ha":1174,"x_min":28,"x_max":1146,"o":"m 190 694 l 106 694 l 379 400 l 204 158 q 174 122 192 140 q 138 90 157 104 q 101 65 119 75 q 67 56 83 56 l 28 56 l 28 0 q 69 -11 46 -6 q 118 -17 93 -17 q 215 19 174 -17 q 289 99 257 54 l 453 325 l 528 244 l 528 0 l 646 0 l 646 244 l 721 325 l 885 99 q 958 19 917 54 q 1056 -17 1000 -17 q 1104 -11 1081 -17 q 1146 0 1128 -6 l 1146 56 l 1107 56 q 1072 65 1090 56 q 1034 90 1053 75 q 999 122 1015 104 q 969 158 982 140 l 794 400 l 1068 694 l 983 694 l 646 336 l 646 694 l 528 694 l 528 336 l 190 694 z "},"м":{"ha":944,"x_min":111,"x_max":833,"o":"m 221 694 l 111 694 l 111 0 l 158 0 l 158 549 l 164 549 l 439 -17 l 453 -17 l 710 549 l 715 549 l 715 0 l 833 0 l 833 694 l 726 694 l 485 164 l 478 164 l 221 694 z "},"н":{"ha":810,"x_min":111,"x_max":699,"o":"m 229 332 l 581 332 l 581 0 l 699 0 l 699 694 l 581 694 l 581 379 l 229 379 l 229 694 l 111 694 l 111 0 l 229 0 l 229 332 z "},"п":{"ha":782,"x_min":111,"x_max":671,"o":"m 229 639 l 553 639 l 553 0 l 671 0 l 671 694 l 111 694 l 111 0 l 229 0 l 229 639 z "},"т":{"ha":729,"x_min":28,"x_max":701,"o":"m 306 0 l 424 0 l 424 639 l 701 639 l 701 694 l 28 694 l 28 639 l 306 639 l 306 0 z "},"л":{"ha":819,"x_min":28,"x_max":792,"o":"m 510 694 l 426 694 l 215 171 q 200 135 208 156 q 181 97 192 115 q 155 67 169 79 q 124 56 140 56 q 83 67 104 56 q 50 89 63 78 l 28 15 q 118 -15 60 -15 q 165 -8 144 -15 q 204 20 186 0 q 240 73 222 40 q 276 156 257 106 l 436 557 l 444 557 l 667 0 l 792 0 l 510 694 z "},"з":{"ha":717,"x_min":42,"x_max":647,"o":"m 326 654 q 449 617 410 654 q 489 521 489 579 q 474 456 489 483 q 435 413 460 429 q 378 388 410 396 q 313 379 346 379 l 265 379 l 265 332 l 315 332 q 370 328 336 332 q 437 311 404 325 q 493 269 469 297 q 517 190 517 240 q 465 74 517 117 q 329 32 413 32 q 256 42 292 32 q 191 70 221 51 q 139 117 161 89 q 107 183 117 146 l 42 129 q 86 64 63 92 q 142 19 110 36 q 219 -8 175 1 q 324 -17 263 -17 q 481 2 418 -17 q 580 50 543 21 q 632 114 617 79 q 647 181 647 149 q 633 245 647 214 q 594 301 619 276 q 530 342 568 326 q 442 358 492 358 l 442 368 q 532 396 500 374 q 579 444 564 418 q 598 494 594 469 q 601 526 601 518 q 588 588 601 556 q 545 648 575 621 q 466 692 515 675 q 346 710 417 710 q 218 690 269 710 q 136 639 167 669 q 92 572 106 608 q 76 503 78 535 l 160 503 q 181 578 165 549 q 218 624 196 607 q 268 648 240 642 q 326 654 296 654 z "},"и":{"ha":833,"x_min":111,"x_max":722,"o":"m 229 82 l 229 694 l 111 694 l 111 0 l 250 0 l 604 608 l 604 0 l 722 0 l 722 694 l 583 694 l 229 82 z "},"ф":{"ha":1199,"x_min":69,"x_max":1129,"o":"m 658 972 l 540 972 l 540 607 l 535 607 q 516 642 529 624 q 481 675 503 660 q 426 700 458 690 q 349 710 393 710 q 208 673 263 710 q 122 581 153 636 q 81 463 92 526 q 69 346 69 399 q 81 230 69 293 q 122 112 92 167 q 208 20 153 57 q 349 -17 263 -17 q 426 -7 393 -17 q 481 18 458 3 q 516 51 503 33 q 535 86 529 69 l 540 86 l 540 -347 l 658 -347 l 658 86 l 664 86 q 728 12 681 40 q 849 -17 776 -17 q 991 20 936 -17 q 1076 112 1046 57 q 1118 230 1107 167 q 1129 346 1129 293 q 1118 463 1129 399 q 1076 581 1107 526 q 991 673 1046 636 q 849 710 936 710 q 728 681 776 710 q 664 607 681 653 l 658 607 l 658 972 m 658 346 q 662 438 658 385 q 681 540 665 492 q 732 621 697 588 q 829 654 767 654 q 891 641 860 654 q 948 594 922 628 q 990 499 974 560 q 1007 346 1007 439 q 990 193 1007 253 q 948 99 974 133 q 891 51 922 64 q 829 38 860 38 q 732 72 767 38 q 681 153 697 106 q 662 254 665 201 q 658 346 658 307 m 540 346 q 537 253 540 307 q 517 152 533 200 q 467 71 501 104 q 369 38 432 38 q 314 48 344 38 q 256 92 283 58 q 210 185 229 125 q 192 346 192 246 q 210 507 192 446 q 256 601 229 568 q 314 644 283 633 q 369 654 344 654 q 467 621 432 654 q 517 540 501 588 q 537 438 533 492 q 540 346 540 385 z "},"ц":{"ha":815,"x_min":111,"x_max":801,"o":"m 229 56 l 229 694 l 111 694 l 111 0 l 704 0 l 704 -146 l 801 -146 l 801 56 l 676 56 l 676 694 l 558 694 l 558 56 l 229 56 z "},"ч":{"ha":700,"x_min":69,"x_max":589,"o":"m 471 342 q 442 335 460 339 q 403 328 424 332 q 363 322 383 325 q 328 319 343 319 q 247 333 275 319 q 206 365 219 346 q 190 403 192 383 q 188 438 188 424 l 188 694 l 69 694 l 69 438 q 72 391 69 421 q 92 332 75 361 q 147 282 110 303 q 254 261 185 261 q 357 269 300 261 q 471 294 414 276 l 471 0 l 589 0 l 589 694 l 471 694 l 471 342 z "},"ш":{"ha":1178,"x_min":111,"x_max":1067,"o":"m 111 0 l 1067 0 l 1067 694 l 947 694 l 947 56 l 647 56 l 647 694 l 529 694 l 529 56 l 229 56 l 229 694 l 111 694 l 111 0 z "},"щ":{"ha":1203,"x_min":111,"x_max":1189,"o":"m 111 0 l 1096 0 l 1096 -146 l 1189 -146 l 1189 56 l 1067 56 l 1067 694 l 947 694 l 947 56 l 647 56 l 647 694 l 529 694 l 529 56 l 229 56 l 229 694 l 111 694 l 111 0 z "},"я":{"ha":746,"x_min":14,"x_max":635,"o":"m 635 694 l 357 694 q 283 690 328 694 q 194 666 238 685 q 121 610 151 647 q 90 506 90 572 q 105 438 90 469 q 146 383 119 407 q 208 346 172 360 q 286 332 244 332 l 318 332 l 318 326 q 281 306 296 318 q 253 277 265 293 q 228 242 240 261 q 203 200 217 222 q 124 90 157 125 q 47 56 90 56 l 14 56 l 14 0 q 97 -17 51 -17 q 187 10 149 -17 q 257 92 225 38 l 397 332 l 517 332 l 517 0 l 635 0 l 635 694 m 517 639 l 517 379 l 403 379 q 327 385 361 379 q 269 406 293 392 q 231 446 244 421 q 217 508 217 471 q 238 583 217 557 q 285 622 258 610 q 337 637 311 635 q 372 639 363 639 l 517 639 z "},"ю":{"ha":1131,"x_min":111,"x_max":1061,"o":"m 229 332 l 229 -1 l 111 -1 l 111 693 l 229 693 l 229 379 l 344 379 q 375 517 346 456 q 452 622 404 579 q 565 687 500 664 q 703 710 629 710 q 852 681 786 710 q 965 603 918 653 q 1036 490 1011 554 q 1061 354 1061 425 q 1037 208 1061 275 q 967 90 1013 140 q 854 12 921 40 q 703 -17 788 -17 q 555 15 619 -17 q 445 96 490 46 q 374 208 400 146 q 344 332 349 271 l 229 332 m 476 354 q 498 195 476 257 q 553 99 519 133 q 626 51 586 64 q 704 39 667 39 q 815 67 771 39 q 884 142 858 96 q 920 244 910 188 q 931 356 931 300 q 910 510 931 451 q 856 601 889 569 q 782 644 822 633 q 704 654 742 654 q 636 649 675 654 q 562 615 597 643 q 501 525 526 586 q 476 354 476 464 z "},"э":{"ha":747,"x_min":42,"x_max":678,"o":"m 326 654 q 399 643 361 654 q 470 602 438 632 q 524 518 503 572 q 546 379 544 464 l 274 379 l 274 329 l 546 329 q 544 289 546 315 q 535 230 542 263 q 513 163 528 197 q 474 102 499 129 q 413 57 450 75 q 324 39 376 39 q 240 53 276 39 q 177 88 204 67 q 132 135 150 110 q 103 183 114 161 l 42 122 q 175 13 104 42 q 329 -15 246 -15 q 415 -8 372 -15 q 499 18 458 -1 q 561 60 529 33 q 619 127 593 86 q 662 223 646 168 q 678 350 678 278 q 654 500 678 433 q 586 613 631 567 q 478 685 542 660 q 336 710 415 710 q 215 692 267 710 q 126 649 163 675 q 72 590 90 622 q 51 529 53 558 l 154 529 q 178 594 158 569 q 223 632 197 618 q 276 650 249 646 q 326 654 304 654 z "},"ь":{"ha":747,"x_min":111,"x_max":678,"o":"m 111 694 l 111 0 l 476 0 q 551 13 514 0 q 615 49 588 25 q 660 108 643 74 q 678 185 678 142 q 647 294 678 256 q 571 352 615 333 q 478 375 526 371 q 396 379 429 379 l 229 379 l 229 694 l 111 694 m 229 56 l 229 332 l 389 332 q 428 329 401 332 q 481 312 454 326 q 529 267 508 297 q 550 183 550 238 q 509 87 550 118 q 414 56 468 56 l 229 56 z "},"ъ":{"ha":899,"x_min":14,"x_max":829,"o":"m 260 0 l 613 0 q 772 53 714 0 q 829 188 829 107 q 797 297 829 258 q 721 353 765 335 q 630 376 676 372 q 554 379 583 379 l 379 379 l 379 693 l 14 693 l 14 547 l 115 547 l 115 640 l 260 640 l 260 0 m 379 53 l 379 332 l 536 332 q 588 328 558 332 q 642 310 617 324 q 684 269 667 296 q 701 199 701 243 q 698 153 701 175 q 683 114 694 132 q 668 95 678 106 q 644 76 658 85 q 608 60 629 67 q 558 53 586 53 l 379 53 z "},"ы":{"ha":1053,"x_min":111,"x_max":942,"o":"m 111 694 l 111 0 l 476 0 q 551 13 514 0 q 615 49 588 25 q 660 108 643 74 q 678 185 678 142 q 647 294 678 256 q 571 352 615 333 q 478 375 526 371 q 396 379 429 379 l 229 379 l 229 694 l 111 694 m 824 694 l 824 0 l 942 0 l 942 694 l 824 694 m 229 53 l 229 332 l 389 332 q 428 329 401 332 q 481 312 454 326 q 529 267 508 297 q 550 183 550 238 q 509 85 550 118 q 414 53 468 53 l 229 53 z "},"!":{"ha":483,"x_min":163,"x_max":317,"o":"m 167 58 q 189 111 167 89 q 242 133 211 133 q 294 111 272 133 q 317 58 317 89 q 294 6 317 28 q 242 -17 272 -17 q 189 6 211 -17 q 167 58 167 28 m 271 186 l 206 186 l 163 972 l 315 972 l 271 186 z "},"\"":{"ha":479,"x_min":42,"x_max":438,"o":"m 142 717 l 85 717 l 42 1038 l 182 1038 l 142 717 m 394 717 l 342 717 l 299 1038 l 438 1038 l 394 717 z "},"#":{"ha":1203,"x_min":83,"x_max":1119,"o":"m 447 640 l 507 924 l 594 924 l 533 640 l 754 640 l 815 925 l 899 925 l 839 640 l 1119 640 l 1101 556 l 821 556 l 775 333 l 1056 333 l 1036 249 l 757 249 l 694 -31 l 611 -31 l 671 249 l 450 249 l 390 -31 l 304 -31 l 364 249 l 83 249 l 101 333 l 385 333 l 428 556 l 144 556 l 165 640 l 447 640 m 469 333 l 690 333 l 738 556 l 514 556 l 469 333 z "},"%":{"ha":1031,"x_min":83,"x_max":947,"o":"m 83 769 q 94 843 83 804 q 131 914 106 882 q 194 967 156 946 q 286 989 232 989 q 379 967 340 989 q 443 914 418 946 q 479 843 468 882 q 490 769 490 804 q 476 684 490 725 q 434 613 461 643 q 369 564 407 582 q 286 546 332 546 q 203 564 240 546 q 139 613 165 582 q 98 684 113 643 q 83 769 83 725 m 174 769 q 185 685 174 719 q 213 631 196 651 q 249 601 229 610 q 286 592 269 592 q 324 601 304 592 q 360 631 343 610 q 388 685 376 651 q 399 769 399 719 q 393 829 399 799 q 375 885 388 860 q 341 926 363 910 q 286 942 319 942 q 233 926 254 942 q 198 885 211 910 q 179 829 185 860 q 174 769 174 799 m 539 203 q 550 278 539 239 q 586 351 561 318 q 650 404 611 383 q 743 425 689 425 q 836 404 797 425 q 900 351 875 383 q 936 278 925 318 q 947 203 947 239 q 933 120 947 160 q 891 51 918 81 q 826 3 864 21 q 743 -15 789 -15 q 660 3 697 -15 q 595 51 622 21 q 553 120 568 81 q 539 203 539 160 m 631 203 q 642 119 631 153 q 670 65 653 86 q 707 36 688 44 q 743 28 726 28 q 780 36 760 28 q 817 65 800 44 q 844 119 833 86 q 856 203 856 153 q 851 265 856 233 q 833 322 846 297 q 798 363 819 347 q 743 379 776 379 q 690 363 711 379 q 655 322 668 347 q 636 265 642 297 q 631 203 631 233 m 826 989 l 289 -17 l 207 -17 l 742 989 l 826 989 z "},"&":{"ha":981,"x_min":83,"x_max":953,"o":"m 706 83 q 553 3 621 21 q 429 -15 486 -15 q 280 8 344 -15 q 172 69 215 31 q 106 156 128 107 q 83 254 83 204 q 103 351 83 307 q 159 434 124 396 q 242 503 194 472 q 344 561 289 535 q 269 676 300 624 q 238 786 238 728 q 249 858 238 821 q 287 924 261 894 q 352 972 313 953 q 447 990 392 990 q 528 976 490 990 q 593 936 565 963 q 638 873 621 910 q 654 790 654 836 q 615 676 654 732 q 478 574 575 619 l 754 210 q 818 337 796 265 q 844 519 840 408 l 953 519 q 924 385 946 444 q 877 279 903 325 q 827 203 851 233 q 790 160 803 174 l 917 0 l 769 0 l 706 83 m 454 929 q 402 919 424 929 q 367 892 381 908 q 347 854 353 875 q 340 813 340 833 q 371 717 340 764 q 446 615 401 671 q 485 642 464 625 q 525 683 507 660 q 555 735 543 706 q 567 799 567 764 q 561 840 567 817 q 543 882 556 863 q 509 915 531 901 q 454 929 488 929 m 379 513 q 240 408 278 460 q 201 294 201 357 q 225 194 201 238 q 287 119 249 150 q 372 73 325 89 q 464 57 418 57 q 498 59 475 57 q 550 68 521 61 q 610 89 579 75 q 671 128 642 103 l 379 513 z "},"'":{"ha":222,"x_min":42,"x_max":181,"o":"m 142 717 l 83 717 l 42 1038 l 181 1038 l 142 717 z "},"(":{"ha":417,"x_min":138,"x_max":389,"o":"m 389 946 q 319 852 344 906 q 281 726 294 799 q 263 558 267 653 q 260 342 260 464 q 263 124 260 219 q 281 -44 267 29 q 319 -173 294 -118 q 389 -267 344 -228 l 389 -304 q 287 -232 329 -279 q 217 -125 244 -185 q 173 2 189 -65 q 149 133 157 69 q 140 251 142 196 q 138 342 138 306 q 140 434 138 379 q 149 551 142 489 q 173 681 157 614 q 217 806 189 747 q 287 913 244 865 q 389 986 329 960 l 389 946 z "},"*":{"ha":463,"x_min":42,"x_max":421,"o":"m 114 610 l 157 747 l 42 833 l 188 833 l 231 972 l 276 833 l 421 833 l 303 747 l 349 610 l 231 697 l 114 610 z "},"+":{"ha":1233,"x_min":139,"x_max":1094,"o":"m 660 989 l 660 547 l 1094 547 l 1094 486 l 660 486 l 660 36 l 575 36 l 575 486 l 139 486 l 139 547 l 575 547 l 575 989 l 660 989 z "},",":{"ha":353,"x_min":83,"x_max":214,"o":"m 129 -189 l 83 -189 l 83 169 l 214 169 l 129 -189 z "},"-":{"ha":510,"x_min":83,"x_max":426,"o":"m 426 424 l 426 319 l 83 319 l 83 424 l 426 424 z "},".":{"ha":372,"x_min":111,"x_max":261,"o":"m 111 60 q 133 113 111 90 q 186 135 156 135 q 239 113 217 135 q 261 60 261 90 q 239 7 261 29 q 186 -15 217 -15 q 133 7 156 -15 q 111 60 111 29 z "},"/":{"ha":717,"x_min":42,"x_max":675,"o":"m 675 989 l 138 -17 l 42 -17 l 576 989 l 675 989 z "},":":{"ha":317,"x_min":83,"x_max":233,"o":"m 83 58 q 106 6 83 28 q 158 -17 128 -17 q 211 6 189 -17 q 233 58 233 28 q 211 111 233 89 q 158 133 189 133 q 106 111 128 133 q 83 58 83 89 m 83 635 q 106 582 83 604 q 158 560 128 560 q 211 582 189 560 q 233 635 233 604 q 211 688 233 665 q 158 710 189 710 q 106 688 128 710 q 83 635 83 665 z "},";":{"ha":317,"x_min":83,"x_max":233,"o":"m 218 169 l 88 169 l 88 -189 l 133 -189 l 218 169 m 83 635 q 106 582 83 604 q 158 560 128 560 q 211 582 189 560 q 233 635 233 604 q 211 688 233 665 q 158 710 189 710 q 106 688 128 710 q 83 635 83 665 z "},"<":{"ha":1086,"x_min":83,"x_max":1003,"o":"m 83 457 l 981 78 l 1003 139 l 274 457 l 1003 779 l 981 840 l 83 457 z "},"=":{"ha":1233,"x_min":139,"x_max":1094,"o":"m 139 310 l 1094 310 l 1094 396 l 139 396 l 139 310 m 139 660 l 139 575 l 1094 575 l 1094 660 l 139 660 z "},">":{"ha":1085,"x_min":83,"x_max":1001,"o":"m 1001 457 l 106 840 l 83 779 l 813 457 l 83 139 l 106 78 l 1001 457 z "},"?":{"ha":721,"x_min":139,"x_max":582,"o":"m 450 357 q 401 307 428 329 q 343 285 375 285 q 309 301 326 285 q 292 344 292 317 q 313 417 292 382 q 367 485 335 451 q 437 553 399 519 q 507 625 475 588 q 560 705 539 663 q 582 796 582 747 q 572 865 582 831 q 535 927 561 900 q 465 972 510 954 q 353 989 421 989 q 260 976 300 989 q 194 939 221 963 q 153 883 167 915 q 139 815 140 851 l 236 815 l 236 824 q 247 870 236 849 q 275 907 257 892 q 315 931 293 922 q 361 939 338 939 q 406 931 383 939 q 448 908 429 922 q 478 873 467 893 q 489 828 489 853 q 469 749 489 785 q 419 682 449 714 q 354 619 389 650 q 288 554 319 588 q 235 483 257 521 q 211 399 214 446 l 211 385 q 221 324 211 353 q 250 274 231 296 q 299 240 269 253 q 368 228 328 228 q 444 250 403 228 q 517 311 485 272 l 450 357 m 274 58 q 296 6 274 28 q 349 -17 318 -17 q 401 6 379 -17 q 424 58 424 28 q 401 111 424 89 q 349 133 379 133 q 296 111 318 133 q 274 58 274 89 z "},"[":{"ha":424,"x_min":139,"x_max":382,"o":"m 139 -306 l 382 -306 l 382 -237 l 261 -237 l 261 906 l 382 906 l 382 972 l 139 972 l 139 -306 z "},"^":{"ha":606,"x_min":83,"x_max":522,"o":"m 303 1135 l 522 1047 l 522 1097 l 333 1219 l 275 1219 l 83 1097 l 83 1047 l 303 1135 z "},"_":{"ha":1054,"x_min":42,"x_max":1013,"o":"m 42 -306 l 1013 -306 l 1013 -206 l 42 -206 l 42 -306 z "},"{":{"ha":494,"x_min":83,"x_max":453,"o":"m 83 404 q 128 392 104 401 q 172 360 151 383 q 206 299 192 338 q 219 197 219 260 q 217 109 219 149 q 214 29 214 69 q 221 -46 214 -3 q 252 -128 228 -89 q 324 -197 276 -168 q 453 -228 371 -225 l 453 -146 q 394 -119 415 -137 q 363 -81 374 -101 q 349 -38 351 -60 q 346 0 346 -17 q 350 85 346 43 q 354 168 354 128 q 312 340 354 275 q 176 447 269 404 l 176 458 q 312 567 269 501 q 354 739 354 632 q 350 825 354 783 q 346 911 346 867 q 349 948 346 926 q 363 990 351 969 q 394 1029 374 1011 q 453 1057 415 1047 l 453 1138 q 369 1124 411 1136 q 292 1083 326 1113 q 236 1005 258 1054 q 214 879 214 956 q 217 797 214 838 q 219 714 219 756 q 208 618 219 657 q 178 555 197 579 q 135 518 160 531 q 83 504 110 506 l 83 404 z "},"|":{"ha":379,"x_min":139,"x_max":240,"o":"m 139 1229 l 139 -346 l 240 -346 l 240 1229 l 139 1229 z "},"}":{"ha":497,"x_min":42,"x_max":414,"o":"m 414 504 q 371 515 394 506 q 326 547 347 524 q 292 610 306 569 q 278 714 278 650 q 281 797 278 756 q 283 879 283 838 q 261 1005 283 956 q 203 1083 239 1054 q 125 1124 168 1113 q 42 1138 82 1136 l 42 1057 q 98 1033 76 1049 q 131 997 119 1017 q 147 954 143 976 q 151 911 151 932 q 147 825 151 867 q 143 739 143 783 q 184 567 143 632 q 318 458 225 501 l 318 447 q 184 340 225 404 q 143 168 143 275 q 147 85 143 128 q 151 0 151 43 q 147 -44 151 -21 q 131 -87 143 -67 q 98 -122 119 -107 q 42 -146 76 -137 l 42 -228 q 175 -193 126 -224 q 247 -122 224 -162 q 277 -39 271 -81 q 283 29 283 3 q 281 109 283 69 q 278 197 278 149 q 289 290 278 251 q 319 353 300 328 q 363 390 338 378 q 414 404 388 401 l 414 504 z "},"~":{"ha":836,"x_min":83,"x_max":753,"o":"m 121 394 q 161 430 136 417 q 228 443 186 443 q 311 440 276 443 q 374 433 346 438 q 426 422 401 428 q 481 411 451 417 l 560 397 q 574 396 567 396 q 589 396 581 396 q 628 400 607 396 q 672 416 650 404 q 715 450 693 428 q 753 510 736 472 l 721 531 q 669 495 697 506 q 603 485 642 485 q 535 492 582 485 q 436 508 489 499 q 334 524 383 517 q 258 531 285 531 q 218 527 240 531 q 173 512 196 524 q 126 478 150 500 q 83 421 103 457 l 121 394 z "},"‘":{"ha":271,"x_min":69,"x_max":201,"o":"m 69 639 l 201 639 l 201 997 l 153 997 l 69 639 z "},"’":{"ha":271,"x_min":69,"x_max":201,"o":"m 201 997 l 69 997 l 69 639 l 119 639 l 201 997 z "},"“":{"ha":554,"x_min":69,"x_max":485,"o":"m 353 614 l 485 614 l 485 972 l 435 972 l 353 614 m 69 614 l 201 614 l 201 972 l 153 972 l 69 614 z "},"”":{"ha":554,"x_min":69,"x_max":485,"o":"m 201 972 l 69 972 l 69 614 l 119 614 l 201 972 m 485 972 l 353 972 l 353 614 l 401 614 l 485 972 z "},"•":{"ha":661,"x_min":167,"x_max":494,"o":"m 167 454 q 179 392 167 421 q 214 340 192 363 q 266 306 236 318 q 331 293 296 293 q 394 306 364 293 q 446 340 424 318 q 481 392 468 363 q 494 454 494 421 q 481 519 494 489 q 446 572 468 550 q 394 607 424 594 q 331 619 364 619 q 266 607 296 619 q 214 572 236 594 q 179 519 192 550 q 167 454 167 489 z "},"–":{"ha":1289,"x_min":167,"x_max":1122,"o":"m 167 319 l 1122 319 l 1122 407 l 167 407 l 167 319 z "},"—":{"ha":1539,"x_min":56,"x_max":1483,"o":"m 56 319 l 1483 319 l 1483 407 l 56 407 l 56 319 z "},"`":{"ha":310,"x_min":22,"x_max":292,"o":"m 176 989 l 22 989 l 238 813 l 292 813 l 176 989 z "},"„":{"ha":526,"x_min":56,"x_max":471,"o":"m 188 169 l 56 169 l 56 -189 l 106 -189 l 188 169 m 471 169 l 339 169 l 339 -189 l 388 -189 l 471 169 z "},"«":{"ha":750,"x_min":111,"x_max":639,"o":"m 210 360 l 372 635 l 278 635 l 111 360 l 278 85 l 372 85 l 210 360 m 475 360 l 639 635 l 544 635 l 375 360 l 544 85 l 639 85 l 475 360 z "},"»":{"ha":750,"x_min":111,"x_max":639,"o":"m 275 360 l 111 85 l 207 85 l 372 360 l 207 635 l 111 635 l 275 360 m 542 360 l 375 85 l 471 85 l 639 360 l 471 635 l 375 635 l 542 360 z "},"‹":{"ha":483,"x_min":111,"x_max":372,"o":"m 210 360 l 372 635 l 278 635 l 111 360 l 278 85 l 372 85 l 210 360 z "},"›":{"ha":483,"x_min":111,"x_max":372,"o":"m 274 360 l 111 635 l 206 635 l 372 360 l 206 85 l 111 85 l 274 360 z "},"§":{"ha":781,"x_min":111,"x_max":669,"o":"m 592 826 l 592 833 q 577 895 592 867 q 537 944 563 924 q 476 977 511 965 q 401 989 442 989 q 303 972 342 989 q 241 932 264 956 q 208 881 218 908 q 199 831 199 853 q 233 733 199 778 q 304 653 267 689 q 228 601 264 628 q 167 542 193 574 q 126 475 142 511 q 111 396 111 439 q 130 317 111 354 q 178 246 149 281 q 247 177 208 211 q 325 107 285 143 l 342 92 q 385 51 364 71 q 425 10 407 31 q 454 -31 443 -10 q 465 -74 465 -51 q 462 -99 465 -85 q 447 -124 458 -112 q 415 -144 435 -136 q 361 -153 394 -153 q 328 -150 346 -153 q 293 -137 310 -147 q 265 -107 276 -126 q 253 -54 254 -87 l 167 -54 q 185 -124 167 -94 q 233 -174 204 -154 q 298 -205 263 -194 q 369 -215 333 -215 q 447 -203 413 -215 q 507 -169 482 -190 q 546 -121 532 -149 q 560 -62 560 -93 q 532 44 560 -4 q 471 125 504 93 q 542 166 507 143 q 606 218 578 189 q 652 283 635 247 q 669 363 669 319 q 642 461 669 414 q 579 549 615 508 q 505 621 543 589 q 442 674 467 653 l 425 688 q 331 774 367 735 q 296 851 296 814 q 322 908 296 888 q 393 928 347 928 q 470 901 442 928 q 499 832 499 874 l 499 826 l 592 826 m 490 485 q 544 425 518 457 q 569 357 569 393 q 541 253 569 308 q 438 154 513 199 l 281 293 q 252 326 265 307 q 229 367 239 346 q 214 406 219 388 q 208 438 208 425 q 244 539 208 492 q 336 626 281 586 l 490 485 z "},"¬":{"ha":1289,"x_min":167,"x_max":1122,"o":"m 167 319 l 1035 319 l 1035 174 l 1122 174 l 1122 407 l 167 407 l 167 319 z "},"£":{"ha":1067,"x_min":92,"x_max":957,"o":"m 797 547 l 497 547 q 485 628 490 593 q 478 688 481 663 q 474 733 475 714 q 472 768 472 751 q 478 826 472 797 q 498 878 485 856 q 533 915 511 901 q 586 929 554 929 q 634 919 619 929 q 649 900 649 910 q 643 887 649 892 q 630 874 638 882 q 617 853 622 867 q 611 818 611 840 q 633 765 611 788 q 693 743 656 743 q 753 774 733 743 q 774 854 774 806 q 730 953 774 917 q 619 989 686 989 q 516 972 567 989 q 425 922 465 956 q 360 840 385 889 q 335 725 335 790 q 339 635 335 685 q 350 547 343 586 l 133 547 l 133 486 l 361 486 q 381 385 376 438 q 385 282 385 333 q 382 238 385 258 q 369 193 379 218 q 318 204 346 200 q 268 208 290 208 q 199 200 231 208 q 143 175 167 192 q 106 134 119 158 q 92 79 92 110 q 107 28 92 47 q 142 0 122 10 q 181 -12 161 -10 q 208 -15 200 -15 l 243 -15 q 342 21 297 -11 q 419 90 386 53 l 461 68 q 590 6 535 28 q 697 -15 644 -15 q 797 7 756 -15 q 869 67 839 29 q 919 154 899 104 q 957 261 940 204 l 892 278 q 865 208 881 242 q 827 150 850 175 q 774 110 804 125 q 701 96 743 96 q 585 119 644 96 q 458 164 526 142 q 496 260 481 208 q 511 372 511 311 q 510 407 511 379 q 504 486 508 435 l 797 486 l 797 547 m 343 125 q 281 56 313 72 q 229 40 249 40 q 186 53 201 40 q 171 82 171 67 q 174 101 171 90 q 187 120 178 111 q 213 135 196 129 q 258 142 231 142 q 294 139 274 142 q 343 125 315 136 z "},"¤":{"ha":1018,"x_min":83,"x_max":935,"o":"m 874 914 l 774 811 q 650 881 715 857 q 507 904 585 904 q 367 881 431 904 q 246 810 304 857 l 142 914 l 83 851 l 185 751 q 114 628 136 692 q 92 488 92 564 q 114 344 92 408 q 185 221 136 279 l 83 121 l 142 60 l 247 160 q 378 87 313 107 q 507 67 444 67 q 561 70 531 67 q 626 83 592 74 q 699 112 661 93 q 774 160 736 131 l 874 61 l 935 121 l 835 221 q 903 343 881 279 q 926 486 926 407 q 903 628 926 564 q 835 751 881 692 l 935 851 l 874 914 m 272 251 q 206 347 235 289 q 176 488 176 404 q 208 633 176 571 q 288 738 239 696 q 394 800 336 779 q 507 821 453 821 q 620 800 561 821 q 728 737 679 779 q 809 632 778 694 q 840 486 840 569 q 809 342 840 404 q 728 237 778 279 q 620 173 679 194 q 507 151 561 151 q 378 179 439 151 q 272 251 318 207 z "},"°":{"ha":521,"x_min":97,"x_max":424,"o":"m 97 804 q 110 741 97 771 q 144 690 122 711 q 197 655 167 668 q 261 642 226 642 q 324 655 294 642 q 376 690 354 668 q 411 741 399 711 q 424 804 424 771 q 411 869 424 839 q 376 921 399 899 q 324 956 354 943 q 261 968 294 968 q 197 956 226 968 q 144 921 167 943 q 110 869 122 899 q 97 804 97 839 m 158 804 q 189 877 158 847 q 261 907 219 907 q 306 897 288 907 q 338 871 325 886 q 356 838 350 856 q 363 804 363 819 q 332 734 363 764 q 261 704 301 704 q 228 710 246 704 q 194 728 210 715 q 169 759 179 740 q 158 804 158 778 z "},"÷":{"ha":1289,"x_min":167,"x_max":1122,"o":"m 167 331 l 1122 331 l 1122 415 l 167 415 l 167 331 m 571 110 q 593 57 571 79 q 646 35 615 35 q 699 57 676 35 q 721 110 721 79 q 699 163 721 140 q 646 185 676 185 q 593 163 615 185 q 571 110 571 140 m 571 635 q 593 582 571 604 q 646 560 615 560 q 699 582 676 560 q 721 635 721 604 q 699 688 721 665 q 646 710 676 710 q 593 688 615 710 q 571 635 571 665 z "},"µ":{"ha":914,"x_min":111,"x_max":872,"o":"m 229 694 l 111 694 l 111 -310 l 201 -310 l 201 104 l 208 104 q 237 48 217 71 q 283 10 257 25 q 335 -10 308 -4 q 386 -17 363 -17 q 440 -8 411 -17 q 494 20 468 1 q 542 67 521 39 q 576 135 564 96 q 629 26 585 68 q 743 -17 674 -17 q 817 -1 785 -17 q 872 47 850 14 l 839 79 q 800 43 824 58 q 757 28 776 28 q 708 48 725 28 q 683 99 690 68 q 674 167 675 131 q 672 236 672 203 l 672 694 l 554 694 l 554 253 q 513 111 554 165 q 393 57 472 57 q 299 81 332 57 q 250 135 265 104 q 232 195 235 165 q 229 236 229 225 l 229 694 z "},"¶":{"ha":751,"x_min":42,"x_max":640,"o":"m 361 -347 l 361 972 l 243 972 q 149 956 188 972 q 87 915 111 940 q 52 856 63 889 q 42 789 42 822 q 52 723 42 756 q 87 664 63 690 q 149 622 111 638 q 243 606 188 606 l 265 606 l 265 -347 l 361 -347 m 543 972 l 543 -347 l 640 -347 l 640 972 l 543 972 z "},"ƒ":{"ha":667,"x_min":-117,"x_max":674,"o":"m 133 -132 q 117 -191 126 -161 q 95 -244 108 -221 q 64 -281 82 -267 q 21 -296 46 -296 q -19 -276 -7 -296 q -39 -226 -32 -257 l -117 -279 q -60 -332 -93 -319 q 14 -344 -28 -344 q 128 -309 81 -344 q 204 -226 175 -274 q 247 -135 233 -179 q 261 -71 261 -90 l 408 621 l 551 621 l 561 669 l 419 669 l 449 811 q 458 849 451 826 q 474 891 464 871 q 501 925 485 911 q 539 939 517 939 q 563 931 553 939 q 581 910 574 922 q 592 882 588 897 q 599 853 596 867 l 674 921 q 622 969 650 953 q 553 986 594 986 q 485 974 519 986 q 419 936 450 961 q 365 872 389 911 q 329 781 342 833 l 304 669 l 201 669 l 192 621 l 294 621 l 133 -132 z "},"≈":{"ha":969,"x_min":97,"x_max":872,"o":"m 126 532 q 153 578 140 556 q 183 617 167 600 q 217 645 199 635 q 258 656 235 656 q 319 643 281 656 q 440 588 358 631 q 574 526 525 546 q 657 507 624 507 q 729 527 697 507 q 788 578 761 547 q 834 648 814 610 q 872 722 854 686 l 844 735 q 815 691 831 715 q 781 646 799 667 q 740 610 763 625 q 692 596 718 596 q 676 598 686 596 q 645 607 665 600 q 592 628 625 614 q 507 668 558 643 q 390 723 440 700 q 299 746 340 746 q 253 737 278 746 q 201 705 228 728 q 149 643 175 682 q 97 544 122 604 l 126 532 m 126 231 q 188 322 156 288 q 258 356 219 356 q 285 353 271 356 q 319 343 299 350 q 369 322 340 336 q 440 288 399 308 q 574 226 524 244 q 657 208 625 208 q 729 228 697 208 q 787 279 761 249 q 833 347 813 310 q 872 421 854 385 l 844 432 q 813 386 829 410 q 779 342 797 363 q 740 309 761 322 q 692 296 718 296 q 675 298 685 296 q 645 308 665 300 q 592 329 625 315 q 507 368 558 343 q 390 422 440 399 q 299 444 339 444 q 192 394 247 444 q 97 243 138 344 l 126 231 z "},"√":{"ha":883,"x_min":97,"x_max":786,"o":"m 360 147 l 217 642 l 97 642 l 97 575 l 153 575 l 324 0 l 414 0 l 614 1178 l 786 1178 l 786 1250 l 543 1250 l 360 147 z "},"≤":{"ha":990,"x_min":139,"x_max":851,"o":"m 140 507 l 815 182 l 851 264 l 332 507 l 851 754 l 815 835 l 140 507 m 139 315 l 815 -10 l 850 71 l 172 397 l 139 315 z "},"≥":{"ha":990,"x_min":139,"x_max":851,"o":"m 850 507 l 172 835 l 139 754 l 657 507 l 139 264 l 172 182 l 850 507 m 851 315 l 815 397 l 140 71 l 176 -10 l 851 315 z "},"‡":{"ha":763,"x_min":56,"x_max":707,"o":"m 319 -306 l 442 -306 l 442 14 l 707 14 l 707 136 l 442 136 l 442 531 l 707 531 l 707 653 l 442 653 l 442 972 l 319 972 l 319 653 l 56 653 l 56 531 l 319 531 l 319 136 l 56 136 l 56 14 l 319 14 l 319 -306 z "},"†":{"ha":763,"x_min":56,"x_max":707,"o":"m 319 -306 l 442 -306 l 442 529 l 707 529 l 707 651 l 442 651 l 442 972 l 319 972 l 319 651 l 56 651 l 56 529 l 319 529 l 319 -306 z "},"@":{"ha":1429,"x_min":83,"x_max":1346,"o":"m 1096 744 l 976 744 l 947 658 q 901 710 925 692 q 853 738 876 729 q 810 750 831 747 q 776 753 790 753 q 624 721 694 753 q 500 633 553 689 q 417 505 447 578 q 388 350 388 432 q 409 224 388 276 q 466 139 431 172 q 547 90 501 106 q 639 75 592 75 q 731 94 688 75 q 826 153 775 113 q 869 104 846 122 q 915 76 892 86 q 960 64 939 67 q 999 61 982 61 q 1135 94 1072 61 q 1246 184 1199 126 q 1319 319 1293 242 q 1346 483 1346 396 q 1338 600 1346 542 q 1308 714 1329 658 q 1235 842 1283 778 q 1117 957 1186 906 q 957 1040 1047 1008 q 758 1071 867 1071 q 623 1062 690 1071 q 493 1029 556 1053 q 322 928 397 992 q 192 783 246 864 q 111 606 139 701 q 83 414 83 511 q 128 174 83 293 q 255 -40 172 56 q 456 -193 338 -135 q 725 -251 575 -251 q 810 -247 764 -251 q 910 -228 857 -243 q 1021 -184 963 -212 q 1144 -107 1079 -156 l 1113 -67 q 1065 -103 1097 -81 q 984 -148 1033 -126 q 869 -185 935 -169 q 721 -200 804 -200 q 476 -147 585 -200 q 291 -6 367 -93 q 174 190 215 81 q 133 413 133 300 q 166 613 133 521 q 252 777 199 706 q 373 900 306 849 q 511 979 440 951 q 620 1010 564 1000 q 733 1019 676 1019 q 965 978 861 1019 q 1142 865 1069 938 q 1255 695 1215 793 q 1294 483 1294 597 q 1267 332 1294 400 q 1197 215 1239 264 q 1106 139 1156 165 q 1013 113 1057 113 q 992 116 1004 113 q 969 129 981 119 q 951 157 958 139 q 943 204 943 175 q 949 248 943 219 q 971 326 956 276 l 1096 744 m 815 218 q 788 187 804 203 q 751 158 772 171 q 706 136 731 144 q 651 128 681 128 q 557 175 588 128 q 526 297 526 222 q 549 458 526 383 q 606 588 571 533 q 684 674 640 643 q 772 706 728 706 q 864 667 825 706 q 914 567 903 629 l 815 218 z "},"‚":{"ha":242,"x_min":56,"x_max":186,"o":"m 186 171 l 56 171 l 56 -187 l 103 -187 l 186 171 z "},"∆":{"ha":1058,"x_min":42,"x_max":1017,"o":"m 1017 0 l 594 972 l 450 972 l 42 0 l 1017 0 m 496 890 l 835 93 l 163 93 l 496 890 z "},"∂":{"ha":829,"x_min":60,"x_max":778,"o":"m 653 825 q 554 903 610 874 q 438 950 499 933 q 317 975 378 967 q 203 989 256 983 l 193 939 q 344 908 267 928 q 485 852 421 888 q 596 762 550 817 q 654 628 642 707 l 649 628 q 546 688 601 667 q 417 710 490 710 q 267 680 333 710 q 154 599 200 650 q 84 481 108 547 q 60 342 60 414 q 91 186 60 253 q 172 74 122 119 q 286 6 222 29 q 417 -17 350 -17 q 539 2 475 -17 q 656 69 603 21 q 743 201 708 118 q 778 414 778 285 q 753 637 778 535 q 653 825 729 739 m 418 32 q 355 41 393 32 q 281 82 317 50 q 218 176 244 114 q 192 347 192 239 q 218 517 192 454 q 281 611 244 579 q 355 652 317 643 q 418 661 393 661 q 498 648 457 661 q 572 599 539 635 q 625 503 604 564 q 646 347 646 442 q 623 190 646 251 q 566 94 600 129 q 492 45 532 58 q 418 32 453 32 z "},"∑":{"ha":868,"x_min":42,"x_max":826,"o":"m 43 972 l 479 340 l 42 -306 l 826 -306 l 826 -228 l 238 -228 l 622 344 l 239 894 l 826 894 l 826 972 l 43 972 z "},"∏":{"ha":1094,"x_min":167,"x_max":928,"o":"m 928 972 l 167 972 l 167 -306 l 293 -306 l 293 894 l 801 894 l 801 -306 l 928 -306 l 928 972 z "},"∫":{"ha":824,"x_min":14,"x_max":796,"o":"m 343 699 l 343 -97 q 340 -162 343 -125 q 323 -233 338 -200 q 279 -290 308 -267 q 199 -314 250 -314 q 152 -297 167 -314 q 127 -260 138 -281 q 103 -222 117 -239 q 61 -206 90 -206 q 26 -222 38 -206 q 14 -256 14 -239 q 65 -321 14 -294 q 206 -347 115 -347 q 397 -274 325 -347 q 468 -56 468 -201 l 468 740 q 471 806 468 768 q 488 876 474 843 q 531 933 501 910 q 611 956 560 956 q 656 939 642 956 q 683 902 671 922 q 708 865 694 882 q 750 849 721 849 q 785 865 774 849 q 796 899 796 882 q 741 965 796 940 q 603 990 686 990 q 484 967 533 990 q 403 903 435 943 q 358 811 372 864 q 343 699 343 758 z "},")":{"ha":417,"x_min":28,"x_max":279,"o":"m 28 -264 q 97 -171 71 -225 q 136 -44 122 -117 q 153 124 150 29 q 157 340 157 219 q 153 558 157 463 q 135 726 149 653 q 97 854 122 800 q 28 949 71 908 l 28 986 q 130 914 88 961 q 200 807 172 867 q 244 680 228 747 q 267 549 260 613 q 277 431 275 486 q 279 340 279 376 q 277 249 279 304 q 267 131 275 194 q 244 1 260 68 q 200 -124 228 -65 q 130 -231 172 -183 q 28 -304 88 -279 l 28 -264 z "},"]":{"ha":424,"x_min":42,"x_max":285,"o":"m 285 -306 l 42 -306 l 42 -237 l 163 -237 l 163 906 l 42 906 l 42 972 l 285 972 l 285 -306 z "},"…":{"ha":793,"x_min":56,"x_max":738,"o":"m 322 60 q 344 7 322 29 q 397 -15 367 -15 q 450 7 428 -15 q 472 60 472 29 q 450 113 472 90 q 397 135 428 135 q 344 113 367 135 q 322 60 322 90 m 56 60 q 78 7 56 29 q 131 -15 100 -15 q 183 7 161 -15 q 206 60 206 29 q 183 113 206 90 q 131 135 161 135 q 78 113 100 135 q 56 60 56 90 m 588 60 q 610 7 588 29 q 663 -15 632 -15 q 715 7 693 -15 q 738 60 738 29 q 715 113 738 90 q 663 135 693 135 q 610 113 632 135 q 588 60 588 90 z "},"\\":{"ha":717,"x_min":42,"x_max":675,"o":"m 140 989 l 675 -17 l 579 -17 l 42 989 l 140 989 z "},"ˆ":{"ha":485,"x_min":0,"x_max":483,"o":"m 242 872 q 257 863 242 872 q 295 840 272 854 q 345 810 318 826 q 395 778 372 793 q 433 754 418 764 q 449 744 449 744 l 483 788 q 468 803 483 788 q 430 840 453 818 q 380 889 407 863 q 330 938 353 915 q 292 974 307 960 q 276 989 276 989 l 207 989 q 192 974 207 989 q 153 936 176 958 q 103 888 131 914 q 53 839 76 861 q 15 801 31 817 q 0 788 0 786 l 33 746 q 49 755 33 746 q 88 778 65 764 q 138 809 111 793 q 188 840 165 825 q 226 863 211 854 q 242 872 242 872 z "},"˜":{"ha":517,"x_min":0,"x_max":517,"o":"m 38 818 q 77 862 53 844 q 125 879 101 879 q 160 874 143 879 q 193 861 178 868 q 285 826 243 842 q 363 811 326 811 q 452 844 411 811 q 517 950 493 876 l 475 969 q 436 920 460 933 q 389 907 413 907 q 356 911 372 907 q 328 918 340 915 q 226 955 268 938 q 151 972 183 972 q 59 934 99 972 q 0 839 19 896 l 38 818 z "},"¯":{"ha":504,"x_min":35,"x_max":469,"o":"m 35 810 l 469 810 l 469 865 l 35 865 l 35 810 z "},"˘":{"ha":408,"x_min":0,"x_max":408,"o":"m 0 989 q 15 915 0 950 q 58 855 31 881 q 123 815 86 829 q 204 800 160 800 q 285 815 247 800 q 350 855 322 829 q 393 915 378 881 q 408 989 408 950 l 350 989 q 305 888 347 926 q 204 850 263 850 q 105 888 147 850 q 58 989 63 926 l 0 989 z "},"˙":{"ha":150,"x_min":0,"x_max":150,"o":"m 0 914 q 22 861 0 883 q 75 839 44 839 q 128 861 106 839 q 150 914 150 883 q 128 967 150 944 q 75 989 106 989 q 22 967 44 989 q 0 914 0 944 z "},"˚":{"ha":256,"x_min":0,"x_max":256,"o":"m 46 874 q 69 931 46 908 q 128 954 93 954 q 185 931 161 954 q 210 874 210 908 q 185 815 210 839 q 128 792 161 792 q 69 815 93 792 q 46 874 46 839 m 0 874 q 10 824 0 847 q 37 784 19 801 q 78 756 54 767 q 128 746 101 746 q 178 756 154 746 q 219 784 201 767 q 246 824 236 801 q 256 874 256 847 q 248 917 256 894 q 224 958 240 940 q 184 988 208 976 q 128 1000 160 1000 q 72 988 96 1000 q 33 958 49 976 q 8 917 17 940 q 0 874 0 894 z "},"¸":{"ha":251,"x_min":0,"x_max":251,"o":"m 0 -264 q 45 -269 21 -267 q 93 -272 69 -272 q 151 -266 122 -272 q 201 -245 179 -260 q 238 -209 224 -231 q 251 -156 251 -187 q 214 -85 251 -111 q 131 -60 176 -60 q 114 -60 122 -60 q 97 -61 106 -60 l 114 0 l 68 0 l 33 -114 q 59 -110 43 -111 q 85 -108 75 -108 q 156 -125 138 -108 q 174 -158 174 -142 q 161 -196 174 -182 q 129 -217 149 -210 q 87 -226 110 -224 q 44 -229 64 -229 q 26 -229 35 -229 q 11 -226 18 -229 l 0 -264 z "},"˛":{"ha":231,"x_min":0,"x_max":231,"o":"m 164 0 l 100 -46 q 31 -107 63 -74 q 0 -181 0 -140 q 33 -246 0 -228 q 103 -264 65 -264 q 166 -253 135 -264 q 219 -225 197 -242 l 204 -187 q 169 -203 190 -194 q 129 -211 149 -211 q 92 -193 100 -211 q 85 -167 85 -175 q 97 -121 85 -143 q 131 -77 110 -99 q 178 -36 151 -56 q 231 0 204 -17 l 164 0 z "},"ˇ":{"ha":485,"x_min":0,"x_max":483,"o":"m 242 863 q 257 871 242 861 q 295 894 272 881 q 345 925 318 908 q 395 956 372 942 q 433 981 418 971 q 449 990 449 990 l 483 947 q 468 932 483 947 q 430 894 453 917 q 380 846 407 872 q 330 797 353 819 q 292 760 307 775 q 276 746 276 746 l 207 746 q 192 761 207 746 q 153 799 176 776 q 103 847 131 821 q 53 896 76 874 q 15 933 31 918 q 0 947 0 947 l 33 989 q 49 980 33 989 q 88 956 65 971 q 138 926 111 942 q 188 895 165 910 q 226 872 211 881 q 242 863 242 863 z "},"´":{"ha":269,"x_min":0,"x_max":269,"o":"m 115 989 l 269 989 l 54 813 l 0 813 l 115 989 z "},"¨":{"ha":342,"x_min":0,"x_max":342,"o":"m 0 914 q 22 861 0 883 q 75 839 44 839 q 128 861 106 839 q 150 914 150 883 q 128 967 150 944 q 75 989 106 989 q 22 967 44 989 q 0 914 0 944 m 192 914 q 214 861 192 883 q 267 839 236 839 q 319 861 297 839 q 342 914 342 883 q 319 967 342 944 q 267 989 297 989 q 214 967 236 989 q 192 914 192 944 z "},"˝":{"ha":406,"x_min":0,"x_max":406,"o":"m 71 989 l 225 989 l 54 813 l 0 813 l 71 989 m 251 989 l 406 989 l 235 813 l 181 813 l 251 989 z "},"¢":{"ha":826,"x_min":111,"x_max":756,"o":"m 432 893 l 432 708 q 296 674 356 704 q 195 594 236 643 q 133 481 154 546 q 111 344 111 417 q 133 213 111 275 q 197 102 156 150 q 299 23 239 54 q 432 -14 358 -8 l 432 -228 l 506 -228 l 506 -15 q 641 20 581 -8 q 743 81 701 49 l 703 133 q 608 73 654 93 q 506 51 561 53 l 506 647 q 608 610 571 640 q 660 539 646 581 l 756 539 q 718 613 743 582 q 660 663 693 643 q 587 694 626 683 q 506 707 547 704 l 506 893 l 432 893 m 243 346 q 260 483 243 428 q 305 572 278 538 q 365 622 332 606 q 432 644 399 639 l 432 58 q 358 89 393 68 q 298 145 324 110 q 258 230 272 181 q 243 346 243 279 z "},"ß":{"ha":815,"x_min":153,"x_max":731,"o":"m 153 0 l 271 0 l 271 733 q 274 784 271 751 q 290 849 276 817 q 334 904 304 881 q 418 928 364 928 q 490 910 463 928 q 533 868 518 893 q 552 815 547 843 q 557 764 557 786 q 549 707 557 736 q 523 654 540 678 q 480 616 506 631 q 419 601 454 601 l 379 601 l 379 547 l 419 547 q 526 519 488 547 q 583 451 564 492 q 606 363 601 410 q 610 276 610 315 q 607 197 610 239 q 594 118 604 154 q 567 58 585 82 q 518 33 549 33 q 498 36 511 33 q 471 49 485 39 q 446 78 457 60 q 431 128 435 96 l 346 128 q 358 81 347 106 q 389 34 368 56 q 442 -2 410 13 q 521 -17 475 -17 q 603 3 564 -17 q 669 59 642 22 q 714 149 697 96 q 731 271 731 203 q 724 350 731 303 q 694 444 718 397 q 622 527 669 490 q 492 575 575 564 l 492 581 q 615 647 571 590 q 658 776 658 703 q 594 931 658 872 q 415 989 529 989 q 352 983 396 989 q 264 953 308 978 q 186 876 219 928 q 153 733 153 825 l 153 0 z "},"≠":{"ha":1163,"x_min":167,"x_max":996,"o":"m 167 610 l 167 533 l 572 533 l 471 357 l 167 357 l 167 281 l 428 281 l 346 139 l 408 103 l 510 281 l 996 281 l 996 357 l 556 357 l 657 533 l 996 533 l 996 610 l 700 610 l 793 769 l 731 807 l 618 610 l 167 610 z "},"±":{"ha":1150,"x_min":167,"x_max":983,"o":"m 536 846 l 536 599 l 167 599 l 167 522 l 536 522 l 536 303 l 614 303 l 614 522 l 983 522 l 983 599 l 614 599 l 614 846 l 536 846 m 167 161 l 983 161 l 983 239 l 167 239 l 167 161 z "},"π":{"ha":776,"x_min":42,"x_max":749,"o":"m 149 0 l 263 0 l 263 621 l 549 621 l 549 110 q 551 73 549 93 q 565 35 553 53 q 603 6 578 18 q 678 -6 629 -6 q 733 0 713 -6 l 733 71 l 713 69 q 685 77 694 68 q 670 99 675 86 q 665 125 665 111 q 664 147 664 139 l 664 621 l 749 621 l 749 671 l 154 671 q 98 666 124 671 q 42 644 72 661 l 42 593 q 85 613 60 604 q 131 621 111 621 l 149 621 l 149 0 z "},"∞":{"ha":1154,"x_min":167,"x_max":988,"o":"m 576 431 l 494 508 q 432 550 463 538 q 358 563 401 563 q 269 544 306 563 q 209 499 232 526 q 176 438 186 471 q 167 375 167 406 q 176 310 167 343 q 209 249 186 276 q 269 205 232 222 q 358 188 306 188 q 432 200 403 188 q 494 240 461 213 l 576 319 l 660 240 q 722 199 692 210 q 796 188 751 188 q 885 205 849 188 q 944 249 921 222 q 977 310 967 276 q 988 375 988 343 q 977 438 988 406 q 944 499 967 471 q 885 544 921 526 q 796 563 849 563 q 721 550 753 563 q 660 508 689 538 l 576 431 m 644 375 l 722 446 q 751 467 736 458 q 797 476 767 476 q 869 446 846 476 q 893 375 893 415 q 869 304 893 338 q 797 271 846 271 q 771 274 782 271 q 751 283 760 278 q 735 295 743 288 q 717 311 726 303 l 644 375 m 510 375 l 438 311 q 403 283 418 294 q 357 271 388 271 q 285 304 308 271 q 261 375 261 338 q 285 446 261 415 q 357 476 308 476 q 399 469 385 476 q 426 450 413 461 l 431 446 l 510 375 z "},"◊":{"ha":606,"x_min":69,"x_max":536,"o":"m 536 485 l 310 989 l 69 485 l 296 -17 l 536 485 m 444 485 l 296 178 l 161 485 l 307 794 l 444 485 z "},"у":{"ha":714,"x_min":28,"x_max":686,"o":"m 394 163 l 154 694 l 28 694 l 339 8 l 265 -172 q 233 -224 253 -204 q 186 -243 213 -243 q 138 -228 161 -243 q 103 -186 115 -214 l 42 -301 q 100 -336 68 -325 q 160 -347 132 -347 q 228 -328 199 -347 q 279 -277 257 -308 q 318 -208 301 -246 q 350 -132 335 -169 l 686 694 l 618 694 l 400 163 l 394 163 z "},"х":{"ha":738,"x_min":42,"x_max":696,"o":"m 342 288 l 554 0 l 696 0 l 413 381 l 646 694 l 565 694 l 372 435 l 182 694 l 42 694 l 301 342 l 43 0 l 125 0 l 342 288 z "},"й":{"ha":833,"x_min":111,"x_max":722,"o":"m 229 82 l 229 694 l 111 694 l 111 0 l 250 0 l 604 608 l 604 0 l 722 0 l 722 694 l 583 694 l 229 82 m 418 819 q 484 822 443 819 q 563 836 525 824 q 629 876 601 849 q 657 956 657 904 l 657 972 l 524 972 q 526 959 525 965 q 526 946 526 953 q 514 900 526 917 q 484 875 501 883 q 449 865 467 867 q 418 864 431 864 q 387 865 406 864 q 351 875 368 867 q 321 900 333 883 q 308 946 308 917 q 309 959 308 953 q 311 972 310 965 l 179 972 l 179 956 q 207 876 179 904 q 273 836 235 849 q 351 822 311 824 q 418 819 392 819 z "},"d":{"ha":839,"x_min":69,"x_max":728,"o":"m 728 972 l 610 972 l 610 581 l 604 581 q 567 641 590 617 q 515 681 544 665 q 453 703 486 696 q 388 710 421 710 q 260 684 318 710 q 159 611 201 658 q 93 497 117 564 q 69 349 69 431 q 93 198 69 265 q 159 83 117 131 q 260 9 201 35 q 388 -17 318 -17 q 604 113 551 -17 l 610 113 l 610 0 l 728 0 l 728 972 m 610 278 q 594 191 610 232 q 553 120 579 150 q 492 73 528 90 q 417 56 457 56 q 333 72 372 56 q 265 122 294 88 q 219 213 236 157 q 201 346 201 268 q 219 481 201 425 q 266 572 236 536 q 335 623 296 607 q 417 639 374 639 q 490 623 456 639 q 551 576 525 607 q 594 500 578 544 q 610 399 610 456 l 610 278 z "},"p":{"ha":839,"x_min":111,"x_max":769,"o":"m 111 -347 l 229 -347 l 229 114 l 235 114 q 272 53 249 78 q 324 13 294 28 q 385 -10 353 -3 q 451 -17 418 -17 q 579 9 521 -17 q 680 82 638 35 q 746 197 722 129 q 769 346 769 264 q 746 496 769 429 q 680 610 722 563 q 579 684 638 658 q 451 710 521 710 q 235 582 286 710 l 229 582 l 229 694 l 111 694 l 111 -347 m 229 417 q 244 503 229 463 q 285 574 258 544 q 347 622 311 604 q 422 639 382 639 q 505 623 465 639 q 574 572 544 607 q 620 482 603 538 q 638 349 638 426 q 620 214 638 269 q 573 123 603 158 q 504 72 543 88 q 422 56 465 56 q 349 72 383 56 q 288 119 314 88 q 245 194 261 150 q 229 296 229 239 l 229 417 z "},"q":{"ha":839,"x_min":69,"x_max":728,"o":"m 728 -347 l 610 -347 l 610 114 l 604 114 q 567 53 590 78 q 515 13 544 28 q 453 -10 486 -3 q 388 -17 421 -17 q 260 9 318 -17 q 159 82 201 35 q 93 197 117 129 q 69 346 69 264 q 93 496 69 429 q 159 610 117 563 q 260 684 201 658 q 388 710 318 710 q 604 582 553 710 l 610 582 l 610 694 l 728 694 l 728 -347 m 610 417 q 594 503 610 463 q 553 574 579 544 q 492 622 528 604 q 417 639 457 639 q 333 623 372 639 q 265 572 294 607 q 219 482 236 538 q 201 349 201 426 q 219 214 201 269 q 266 123 236 158 q 335 72 296 88 q 417 56 374 56 q 490 72 456 56 q 551 119 525 88 q 594 194 578 150 q 610 296 610 239 l 610 417 z "},"р":{"ha":839,"x_min":111,"x_max":769,"o":"m 111 -347 l 229 -347 l 229 114 l 235 114 q 272 53 249 78 q 324 13 294 28 q 385 -10 353 -3 q 451 -17 418 -17 q 579 9 521 -17 q 680 82 638 35 q 746 197 722 129 q 769 346 769 264 q 746 496 769 429 q 680 610 722 563 q 579 684 638 658 q 451 710 521 710 q 235 582 286 710 l 229 582 l 229 694 l 111 694 l 111 -347 m 229 417 q 244 503 229 463 q 285 574 258 544 q 347 622 311 604 q 422 639 382 639 q 505 623 465 639 q 574 572 544 607 q 620 482 603 538 q 638 349 638 426 q 620 214 638 269 q 573 123 603 158 q 504 72 543 88 q 422 56 465 56 q 349 72 383 56 q 288 119 314 88 q 245 194 261 150 q 229 296 229 239 l 229 417 z "},"А":{"ha":1017,"x_min":42,"x_max":975,"o":"m 707 286 l 840 0 l 975 0 l 522 972 l 453 972 l 42 0 l 106 0 l 228 286 l 707 286 m 678 349 l 254 349 l 454 817 l 460 817 l 678 349 z "},"Е":{"ha":836,"x_min":167,"x_max":794,"o":"m 167 972 l 167 0 l 794 0 l 794 76 l 293 76 l 293 481 l 724 481 l 724 547 l 293 547 l 293 896 l 794 896 l 794 972 l 167 972 z "},"Н":{"ha":1168,"x_min":167,"x_max":1001,"o":"m 293 483 l 875 483 l 875 0 l 1001 0 l 1001 972 l 875 972 l 875 547 l 293 547 l 293 972 l 167 972 l 167 0 l 293 0 l 293 483 z "},"К":{"ha":1006,"x_min":167,"x_max":964,"o":"m 167 0 l 293 0 l 293 342 l 450 510 l 819 0 l 964 0 l 531 596 l 883 972 l 814 972 l 293 425 l 293 972 l 167 972 l 167 0 z "},"М":{"ha":1425,"x_min":167,"x_max":1258,"o":"m 261 972 l 167 972 l 167 0 l 228 0 l 228 793 l 233 793 l 663 -17 l 688 -17 l 1126 788 l 1132 788 l 1132 0 l 1258 0 l 1258 972 l 1163 972 l 713 138 l 707 138 l 261 972 z "},"Р":{"ha":893,"x_min":167,"x_max":810,"o":"m 293 406 q 371 390 329 396 q 463 383 413 383 q 613 407 547 383 q 722 472 678 431 q 788 566 765 513 q 810 681 810 619 q 790 792 810 739 q 731 885 771 846 q 632 949 692 925 q 492 972 572 972 l 167 972 l 167 0 l 293 0 l 293 406 m 293 911 l 439 911 q 542 890 497 911 q 615 835 586 869 q 659 759 644 801 q 674 675 674 717 q 660 594 674 635 q 618 519 647 553 q 544 465 589 486 q 438 444 500 444 q 358 448 394 444 q 293 463 322 451 l 293 911 z "},"Ђ":{"ha":1146,"x_min":28,"x_max":1090,"o":"m 28 972 l 28 896 l 392 896 l 392 0 l 518 0 l 518 499 q 568 507 540 503 q 624 515 596 511 q 681 520 653 518 q 731 522 708 522 q 801 517 760 522 q 878 496 842 511 q 942 451 915 481 q 968 374 968 421 l 968 232 q 956 144 968 179 q 922 85 943 108 q 876 53 901 63 q 824 43 850 43 q 767 53 792 43 q 725 77 743 63 q 695 108 707 92 q 678 140 683 125 l 590 71 q 696 1 642 19 q 817 -17 750 -17 q 965 15 911 -17 q 1047 91 1019 46 q 1083 186 1075 136 q 1090 275 1090 236 l 1090 381 q 1079 444 1090 408 q 1036 510 1068 479 q 944 561 1004 540 q 789 582 885 582 q 726 580 761 582 q 653 575 690 578 q 580 568 615 572 q 518 560 544 564 l 518 896 l 889 896 l 889 972 l 28 972 z "},"­":{"ha":510,"x_min":83,"x_max":426,"o":"m 83 417 l 83 328 l 426 328 l 426 417 l 83 417 z "},"€":{"ha":829,"x_min":1,"x_max":756,"o":"m 451 988 q 308 953 371 988 q 202 863 246 919 q 132 735 158 807 q 97 589 106 664 l 35 589 l 1 528 l 93 528 q 92 511 92 519 q 92 494 92 503 q 92 472 92 483 q 93 450 92 461 l 35 450 l 1 389 l 99 389 q 131 237 104 310 q 203 108 157 164 q 314 17 250 51 q 458 -17 378 -17 q 623 21 553 -17 q 750 143 693 58 l 704 178 q 679 143 696 165 q 634 99 663 121 q 566 60 606 76 q 472 43 526 43 q 360 73 406 43 q 285 152 314 103 q 244 263 257 201 q 231 389 231 325 l 508 389 l 540 450 l 229 450 l 229 528 l 582 528 l 614 589 l 229 589 q 243 707 232 647 q 280 816 254 767 q 351 896 306 865 q 467 926 396 926 q 530 919 494 926 q 597 892 565 913 q 652 833 629 871 q 679 736 675 796 l 756 736 q 706 861 742 806 q 667 908 690 885 q 614 948 644 931 q 543 976 583 965 q 451 988 503 988 z "},"·":{"ha":317,"x_min":83,"x_max":233,"o":"m 83 514 q 106 461 83 483 q 158 439 128 439 q 211 461 189 439 q 233 514 233 483 q 211 567 233 544 q 158 589 189 589 q 106 567 128 589 q 83 514 83 544 z "},"¦":{"ha":344,"x_min":111,"x_max":229,"o":"m 111 218 l 111 -346 l 229 -346 l 229 218 l 111 218 m 111 1229 l 111 665 l 229 665 l 229 1229 l 111 1229 z "},"×":{"ha":856,"x_min":111,"x_max":744,"o":"m 688 804 l 428 544 l 165 807 l 111 753 l 372 490 l 111 228 l 165 175 l 428 436 l 689 175 l 744 228 l 481 490 l 743 751 l 688 804 z "},"Þ":{"ha":931,"x_min":167,"x_max":819,"o":"m 293 811 q 309 812 301 811 q 324 813 317 813 q 481 783 414 813 q 593 708 549 754 q 660 606 638 663 q 682 494 682 549 q 658 385 682 440 q 588 286 635 331 q 469 214 540 242 q 303 186 399 186 l 293 186 l 293 811 m 293 0 l 293 125 l 310 125 q 549 163 451 125 q 706 257 646 200 q 793 380 767 314 q 819 503 819 446 q 787 640 819 574 q 693 758 754 707 q 544 841 632 810 q 346 872 457 872 l 293 872 l 293 972 l 167 972 l 167 0 l 293 0 z "},"þ":{"ha":839,"x_min":111,"x_max":769,"o":"m 111 -347 l 229 -347 l 229 114 l 235 114 q 272 53 249 78 q 324 13 294 28 q 385 -10 353 -3 q 451 -17 418 -17 q 579 9 521 -17 q 680 82 638 35 q 746 197 722 129 q 769 346 769 264 q 746 496 769 429 q 680 610 722 563 q 579 684 638 658 q 451 710 521 710 q 235 582 286 710 l 229 582 l 229 972 l 111 972 l 111 -347 m 229 417 q 244 503 229 463 q 285 574 258 544 q 347 622 311 604 q 422 639 382 639 q 505 623 465 639 q 574 572 544 607 q 620 482 603 538 q 638 349 638 426 q 620 214 638 269 q 573 123 603 158 q 504 72 543 88 q 422 56 465 56 q 349 72 383 56 q 288 119 314 88 q 245 194 261 150 q 229 296 229 239 l 229 417 z "},"Ω":{"ha":1242,"x_min":111,"x_max":1131,"o":"m 1104 103 l 782 103 l 782 154 q 886 186 826 164 q 1000 253 946 208 q 1092 370 1054 297 q 1131 554 1131 443 q 1092 739 1131 658 q 987 875 1054 819 q 826 959 919 931 q 621 988 732 988 q 415 959 508 988 q 254 875 322 931 q 149 739 186 819 q 111 554 111 658 q 149 370 111 443 q 242 253 188 297 q 356 186 296 208 q 460 154 415 164 l 460 103 l 135 103 l 135 0 l 529 0 l 529 203 q 391 260 446 221 q 305 350 336 300 q 261 454 274 400 q 249 554 249 508 q 274 706 249 638 q 349 824 300 775 q 466 899 397 872 q 621 926 535 926 q 776 899 707 926 q 893 824 844 872 q 967 706 942 775 q 993 554 993 638 q 981 454 993 508 q 937 350 968 400 q 851 260 906 300 q 713 203 796 221 l 713 0 l 1104 0 l 1104 103 z "},"Ω":{"ha":1242,"x_min":111,"x_max":1131,"o":"m 1104 103 l 782 103 l 782 154 q 886 186 826 164 q 1000 253 946 208 q 1092 370 1054 297 q 1131 554 1131 443 q 1092 739 1131 658 q 987 875 1054 819 q 826 959 919 931 q 621 988 732 988 q 415 959 508 988 q 254 875 322 931 q 149 739 186 819 q 111 554 111 658 q 149 370 111 443 q 242 253 188 297 q 356 186 296 208 q 460 154 415 164 l 460 103 l 135 103 l 135 0 l 529 0 l 529 203 q 391 260 446 221 q 305 350 336 300 q 261 454 274 400 q 249 554 249 508 q 274 706 249 638 q 349 824 300 775 q 466 899 397 872 q 621 926 535 926 q 776 899 707 926 q 893 824 844 872 q 967 706 942 775 q 993 554 993 638 q 981 454 993 508 q 937 350 968 400 q 851 260 906 300 q 713 203 796 221 l 713 0 l 1104 0 l 1104 103 z "},"Δ":{"ha":1058,"x_min":42,"x_max":1017,"o":"m 1017 0 l 594 972 l 450 972 l 42 0 l 1017 0 m 496 890 l 835 93 l 163 93 l 496 890 z "},"μ":{"ha":914,"x_min":111,"x_max":872,"o":"m 229 694 l 111 694 l 111 -310 l 201 -310 l 201 104 l 208 104 q 237 48 217 71 q 283 10 257 25 q 335 -10 308 -4 q 386 -17 363 -17 q 440 -8 411 -17 q 494 20 468 1 q 542 67 521 39 q 576 135 564 96 q 629 26 585 68 q 743 -17 674 -17 q 817 -1 785 -17 q 872 47 850 14 l 839 79 q 800 43 824 58 q 757 28 776 28 q 708 48 725 28 q 683 99 690 68 q 674 167 675 131 q 672 236 672 203 l 672 694 l 554 694 l 554 253 q 513 111 554 165 q 393 57 472 57 q 299 81 332 57 q 250 135 265 104 q 232 195 235 165 q 229 236 229 225 l 229 694 z "},"ʼ":{"ha":226,"x_min":32,"x_max":163,"o":"m 32 989 l 163 989 l 163 756 l 115 756 l 32 989 z "},"С":{"ha":1085,"x_min":86,"x_max":1043,"o":"m 1001 179 q 665 46 860 46 q 474 83 557 46 q 335 183 390 121 q 251 328 279 246 q 222 499 222 410 q 252 672 222 593 q 336 807 282 750 q 465 896 390 864 q 626 928 539 928 q 735 914 686 928 q 823 878 785 900 q 885 827 861 856 q 919 769 910 799 l 1022 769 q 969 857 1001 817 q 888 926 936 897 q 774 972 839 956 q 625 989 708 989 q 405 954 504 989 q 235 855 306 919 q 125 699 164 790 q 86 496 86 608 q 117 306 86 399 q 214 142 149 214 q 381 27 279 71 q 622 -17 482 -17 q 781 0 711 -17 q 903 41 851 17 q 990 93 956 65 q 1043 142 1025 121 l 1001 179 z "},"с":{"ha":756,"x_min":69,"x_max":714,"o":"m 460 56 q 363 71 410 56 q 281 120 317 86 q 223 210 244 154 q 201 349 201 267 q 225 492 201 433 q 284 587 249 551 q 363 638 319 622 q 444 654 406 654 q 556 621 508 654 q 618 539 603 588 l 714 539 q 669 622 700 589 q 599 674 639 654 q 515 702 560 694 q 428 710 469 710 q 274 681 340 710 q 161 604 207 653 q 92 490 115 556 q 69 351 69 425 q 94 206 69 274 q 166 90 119 139 q 278 12 213 40 q 425 -17 343 -17 q 585 14 517 -17 q 701 81 654 44 l 661 133 q 565 74 613 93 q 460 56 517 56 z "},"О":{"ha":1201,"x_min":69,"x_max":1132,"o":"m 69 486 q 99 320 69 408 q 193 157 129 232 q 356 33 257 82 q 592 -17 454 -17 q 760 6 685 -17 q 897 68 836 29 q 1001 158 957 107 q 1074 265 1046 208 q 1117 378 1103 321 q 1132 486 1132 435 q 1100 652 1132 564 q 1001 815 1068 740 q 833 940 935 890 q 592 989 731 989 q 356 940 454 989 q 193 817 257 892 q 99 654 129 743 q 69 486 69 565 m 206 486 q 235 665 206 583 q 317 804 265 746 q 440 895 369 863 q 594 928 511 928 q 749 895 676 928 q 877 804 822 863 q 964 665 932 746 q 996 486 996 583 q 964 308 996 389 q 877 168 932 226 q 749 77 822 110 q 594 44 676 44 q 440 77 511 44 q 317 168 369 110 q 235 308 265 226 q 206 486 206 389 z "},"о":{"ha":858,"x_min":69,"x_max":789,"o":"m 789 346 q 764 208 789 274 q 692 92 739 142 q 580 13 646 42 q 432 -17 514 -17 q 281 13 349 -17 q 167 93 214 43 q 95 209 121 143 q 69 346 69 275 q 95 484 69 418 q 167 600 121 550 q 281 680 214 650 q 432 710 349 710 q 580 680 514 710 q 692 600 646 650 q 764 484 739 550 q 789 346 789 418 m 657 346 q 636 503 657 443 q 582 597 615 564 q 508 642 549 631 q 431 654 468 654 q 353 642 393 654 q 278 597 313 631 q 223 503 244 564 q 201 346 201 443 q 223 190 201 250 q 278 96 244 129 q 353 51 313 63 q 431 39 393 39 q 508 51 468 39 q 582 96 549 63 q 636 190 615 129 q 657 346 657 250 z "},"Я":{"ha":997,"x_min":42,"x_max":831,"o":"m 831 972 l 831 0 l 704 0 l 704 429 l 643 429 q 578 422 604 429 q 532 399 553 415 q 493 356 511 382 q 450 290 475 329 l 340 128 q 299 69 319 96 q 256 24 279 43 q 202 -6 232 6 q 131 -17 172 -17 q 81 -14 100 -17 q 42 0 61 -11 l 42 51 q 56 49 49 50 q 69 49 63 49 q 121 57 99 49 q 163 81 143 65 q 200 120 182 97 q 238 172 218 143 q 328 308 296 257 q 378 386 360 358 q 409 426 397 414 q 438 447 421 439 l 451 454 l 451 460 q 337 489 385 464 q 258 551 289 514 q 214 633 228 589 q 200 718 200 676 q 215 800 200 756 q 265 883 229 844 q 361 947 300 921 q 515 972 422 972 l 831 972 m 704 911 l 564 911 q 469 896 511 911 q 396 853 426 881 q 349 789 365 826 q 333 707 333 751 q 348 631 333 669 q 392 562 363 593 q 463 511 421 531 q 561 492 506 492 l 704 492 l 704 911 z "},"В":{"ha":890,"x_min":167,"x_max":849,"o":"m 167 0 l 515 0 q 672 24 608 0 q 775 88 736 49 q 831 176 814 126 q 849 275 849 225 q 815 401 849 354 q 733 474 781 449 q 636 507 686 499 q 556 517 586 515 l 556 522 q 647 541 604 522 q 723 590 690 560 q 775 659 756 619 q 794 743 794 699 q 778 822 794 782 q 727 896 761 863 q 640 951 693 929 q 514 972 586 972 l 167 972 l 167 0 m 293 61 l 293 486 l 446 486 q 564 468 514 486 q 647 419 614 450 q 695 349 679 389 q 711 264 711 308 q 694 178 711 215 q 647 114 676 140 q 578 74 618 88 q 494 61 539 61 l 293 61 m 293 547 l 293 911 l 463 911 q 555 896 517 911 q 617 856 593 881 q 653 799 642 831 q 664 735 664 767 q 648 660 664 694 q 603 600 632 625 q 538 561 575 575 q 460 547 501 547 l 293 547 z "},"Љ":{"ha":1438,"x_min":28,"x_max":1354,"o":"m 679 972 l 299 240 q 270 192 286 215 q 237 151 254 169 q 199 121 219 132 q 157 110 179 110 q 120 116 142 110 q 82 131 99 122 l 28 -4 q 77 -15 56 -14 q 107 -17 99 -17 q 149 -12 126 -17 q 197 10 172 -7 q 250 62 222 28 q 308 154 278 96 l 686 876 l 697 876 l 697 0 l 1007 0 q 1166 24 1100 0 q 1274 88 1232 49 q 1335 178 1315 128 q 1354 283 1354 229 q 1335 381 1354 333 q 1276 465 1317 428 q 1171 525 1235 503 q 1015 547 1107 547 l 824 547 l 824 972 l 679 972 m 824 61 l 824 486 l 979 486 q 1068 472 1025 486 q 1144 432 1111 458 q 1197 368 1178 406 q 1217 285 1217 331 q 1204 206 1217 246 q 1165 134 1192 167 q 1097 81 1138 101 q 1000 61 1056 61 l 824 61 z "},"Њ":{"ha":1553,"x_min":167,"x_max":1469,"o":"m 293 486 l 813 486 l 813 0 l 1121 0 q 1288 26 1221 0 q 1394 94 1354 53 q 1452 187 1435 136 q 1469 288 1469 238 q 1451 382 1469 335 q 1391 465 1432 429 q 1285 524 1350 501 q 1129 547 1221 547 l 939 547 l 939 972 l 813 972 l 813 547 l 293 547 l 293 972 l 167 972 l 167 0 l 293 0 l 293 486 m 939 61 l 939 486 l 1094 486 q 1190 470 1146 486 q 1265 426 1233 454 q 1313 358 1296 397 q 1331 272 1331 318 q 1315 191 1331 229 q 1270 124 1299 153 q 1202 78 1242 94 q 1114 61 1163 61 l 939 61 z "},"Ћ":{"ha":1181,"x_min":28,"x_max":1097,"o":"m 518 499 q 624 516 571 510 q 719 522 676 522 q 863 507 811 522 q 938 467 914 492 q 966 412 961 443 q 971 350 971 381 l 971 0 l 1097 0 l 1097 388 q 1088 457 1097 422 q 1047 519 1079 492 q 951 565 1015 547 q 776 583 886 583 q 646 576 711 583 q 518 560 581 568 l 518 896 l 899 896 l 899 972 l 28 972 l 28 896 l 392 896 l 392 0 l 518 0 l 518 499 z "},"Џ":{"ha":1168,"x_min":167,"x_max":1001,"o":"m 522 -146 l 649 -146 l 649 0 l 1001 0 l 1001 972 l 875 972 l 875 76 l 293 76 l 293 972 l 167 972 l 167 0 l 522 0 l 522 -146 z "},"ђ":{"ha":839,"x_min":42,"x_max":728,"o":"m 157 972 l 157 854 l 42 854 l 42 803 l 157 803 l 157 0 l 275 0 l 275 400 q 280 469 275 428 q 303 547 285 510 q 360 612 322 585 q 464 639 397 639 q 574 590 540 639 q 608 438 608 542 l 608 -126 q 606 -189 608 -158 q 594 -243 603 -219 q 567 -282 585 -267 q 522 -297 550 -297 q 471 -281 490 -297 q 436 -226 451 -264 l 368 -281 q 440 -334 400 -321 q 525 -347 479 -347 q 591 -335 556 -347 q 657 -292 626 -324 q 708 -206 688 -261 q 728 -62 728 -150 l 728 438 q 722 518 728 471 q 692 608 715 565 q 622 681 668 650 q 493 711 575 711 q 393 690 444 711 q 293 615 342 668 l 281 601 l 275 601 l 275 803 l 597 803 l 597 854 l 275 854 l 275 972 l 157 972 z "},"љ":{"ha":1107,"x_min":14,"x_max":1038,"o":"m 629 54 l 629 332 l 757 332 q 808 326 779 332 q 861 304 836 319 q 903 263 886 289 q 919 197 919 238 q 911 133 919 161 q 871 79 903 106 q 819 57 842 60 q 765 54 796 54 l 629 54 m 511 0 l 801 0 q 897 11 853 0 q 972 45 940 22 q 1020 104 1003 68 q 1038 189 1038 140 q 1008 299 1038 260 q 935 355 978 338 q 844 376 892 372 q 764 379 797 379 l 629 379 l 629 694 l 503 694 l 224 182 q 164 104 196 133 q 100 75 132 75 q 61 84 81 75 q 26 104 42 93 l 14 0 q 50 -10 33 -4 q 88 -17 67 -17 q 139 -8 115 -17 q 183 22 163 1 q 226 73 204 42 q 271 150 247 104 l 506 597 l 511 597 l 511 0 z "},"њ":{"ha":1154,"x_min":111,"x_max":1085,"o":"m 676 53 l 676 332 l 804 332 q 845 329 818 332 q 899 313 872 326 q 947 273 926 300 q 967 199 967 246 q 930 94 967 136 q 814 53 893 53 l 676 53 m 558 332 l 558 0 l 888 0 q 963 13 926 0 q 1026 51 999 26 q 1069 110 1053 75 q 1085 188 1085 144 q 1055 297 1085 258 q 982 354 1025 336 q 892 376 939 372 q 811 379 846 379 l 676 379 l 676 694 l 558 694 l 558 379 l 229 379 l 229 694 l 111 694 l 111 0 l 229 0 l 229 332 l 558 332 z "},"ќ":{"ha":767,"x_min":111,"x_max":739,"o":"m 383 989 l 538 989 l 322 813 l 268 813 l 383 989 m 229 336 l 229 694 l 111 694 l 111 0 l 229 0 l 229 244 l 306 325 l 478 99 q 513 57 494 78 q 551 19 531 36 q 597 -7 572 3 q 649 -17 621 -17 q 697 -11 674 -17 q 739 0 721 -6 l 739 56 l 700 56 q 665 65 683 56 q 628 91 647 75 q 592 126 610 107 q 561 163 575 144 l 379 400 l 661 694 l 574 694 l 229 336 z "},"ћ":{"ha":836,"x_min":42,"x_max":725,"o":"m 42 803 l 157 803 l 157 0 l 275 0 l 275 401 q 279 469 275 429 q 302 547 283 510 q 358 612 321 585 q 463 639 396 639 q 538 622 510 639 q 582 575 567 604 q 602 507 597 546 q 607 426 607 468 l 607 0 l 725 0 l 725 458 q 703 585 725 536 q 647 663 681 635 q 574 700 614 690 q 499 710 535 710 q 397 691 450 710 q 296 619 343 672 l 281 600 l 275 600 l 275 803 l 597 803 l 597 856 l 275 856 l 275 972 l 157 972 l 157 856 l 42 856 l 42 803 z "},"џ":{"ha":782,"x_min":111,"x_max":671,"o":"m 333 -146 l 450 -146 l 450 0 l 671 0 l 671 694 l 553 694 l 553 56 l 229 56 l 229 694 l 111 694 l 111 0 l 333 0 l 333 -146 z "},"Ў":{"ha":917,"x_min":42,"x_max":875,"o":"m 190 972 l 42 972 l 476 268 l 426 163 q 392 114 413 135 q 328 93 372 93 q 267 114 294 93 q 221 158 239 135 l 163 29 q 220 -2 182 13 q 306 -17 258 -17 q 349 -12 326 -17 q 394 6 372 -8 q 436 44 415 19 q 476 108 457 68 l 875 972 l 803 972 l 543 408 l 538 408 l 190 972 m 488 1042 q 553 1044 513 1042 q 633 1058 594 1046 q 699 1099 671 1071 q 726 1178 726 1126 l 726 1194 l 593 1194 q 595 1181 594 1188 q 596 1168 596 1175 q 583 1122 596 1139 q 553 1097 571 1106 q 518 1088 536 1089 q 488 1086 500 1086 q 456 1088 475 1086 q 420 1097 438 1089 q 390 1122 403 1106 q 378 1168 378 1139 q 378 1181 378 1175 q 381 1194 379 1188 l 249 1194 l 249 1178 q 276 1099 249 1126 q 342 1058 304 1071 q 421 1044 381 1046 q 488 1042 461 1042 z "},"ў":{"ha":714,"x_min":28,"x_max":686,"o":"m 394 163 l 154 694 l 28 694 l 339 8 l 265 -172 q 233 -224 253 -204 q 186 -243 213 -243 q 138 -228 161 -243 q 103 -186 115 -214 l 42 -301 q 100 -336 68 -325 q 160 -347 132 -347 q 228 -328 199 -347 q 279 -277 257 -308 q 318 -208 301 -246 q 350 -132 335 -169 l 686 694 l 618 694 l 400 163 l 394 163 m 388 819 q 453 822 413 819 q 533 836 494 824 q 599 876 571 849 q 626 956 626 904 l 626 972 l 493 972 q 495 959 494 965 q 496 946 496 953 q 483 900 496 917 q 453 875 471 883 q 418 865 436 867 q 388 864 400 864 q 356 865 375 864 q 320 875 338 867 q 290 900 303 883 q 278 946 278 917 q 278 959 278 953 q 281 972 279 965 l 149 972 l 149 956 q 176 876 149 904 q 242 836 204 849 q 321 822 281 824 q 388 819 361 819 z "},"Ј":{"ha":739,"x_min":28,"x_max":572,"o":"m 446 972 l 446 271 q 444 199 446 238 q 428 125 442 160 q 385 67 414 90 q 306 44 357 44 q 228 62 258 44 q 180 104 197 79 q 156 158 163 129 q 149 207 149 186 l 28 207 q 95 44 31 104 q 299 -17 160 -17 q 449 13 394 -17 q 531 85 504 42 q 565 180 558 129 q 572 275 572 231 l 572 972 l 446 972 z "},"Ѓ":{"ha":801,"x_min":167,"x_max":760,"o":"m 167 972 l 167 0 l 293 0 l 293 896 l 760 896 l 760 972 l 167 972 m 446 1267 l 600 1267 l 385 1090 l 331 1090 l 446 1267 z "},"ѓ":{"ha":581,"x_min":111,"x_max":567,"o":"m 567 639 l 567 694 l 111 694 l 111 0 l 229 0 l 229 639 l 567 639 m 303 989 l 457 989 l 242 813 l 188 813 l 303 989 z "},"Ґ":{"ha":801,"x_min":167,"x_max":760,"o":"m 642 1118 l 642 972 l 167 972 l 167 0 l 293 0 l 293 896 l 760 896 l 760 1118 l 642 1118 z "},"Ё":{"ha":836,"x_min":167,"x_max":794,"o":"m 167 972 l 167 0 l 794 0 l 794 76 l 293 76 l 293 486 l 724 486 l 724 547 l 293 547 l 293 896 l 794 896 l 794 972 l 167 972 m 303 1192 q 325 1139 303 1161 q 378 1117 347 1117 q 431 1139 408 1117 q 453 1192 453 1161 q 431 1244 453 1222 q 378 1267 408 1267 q 325 1244 347 1267 q 303 1192 303 1222 m 494 1192 q 517 1139 494 1161 q 569 1117 539 1117 q 622 1139 600 1117 q 644 1192 644 1161 q 622 1244 644 1222 q 569 1267 600 1267 q 517 1244 539 1267 q 494 1192 494 1222 z "},"©":{"ha":1197,"x_min":97,"x_max":1100,"o":"m 188 486 q 220 646 188 571 q 309 776 253 721 q 440 865 365 832 q 599 897 514 897 q 758 865 683 897 q 888 776 832 832 q 977 646 944 721 q 1010 486 1010 571 q 977 327 1010 401 q 888 197 944 253 q 758 108 832 140 q 599 75 683 75 q 440 108 514 75 q 309 197 365 140 q 220 327 253 253 q 188 486 188 401 m 97 486 q 137 292 97 383 q 244 133 176 201 q 403 26 313 65 q 599 -14 494 -14 q 794 26 703 -14 q 953 133 885 65 q 1060 292 1021 201 q 1100 486 1100 383 q 1060 681 1100 590 q 953 840 1021 772 q 794 948 885 908 q 599 988 703 988 q 403 948 494 988 q 244 840 313 908 q 137 681 176 772 q 97 486 97 590 m 629 260 q 560 272 593 260 q 501 309 528 283 q 460 376 475 335 q 444 475 444 417 q 461 592 444 547 q 503 660 478 636 q 559 693 529 685 q 615 701 589 701 q 701 677 672 701 q 742 619 731 653 l 819 619 q 787 681 808 657 q 735 720 765 706 q 671 740 706 735 q 600 746 636 746 q 491 724 539 746 q 410 667 443 703 q 360 581 378 631 q 343 475 343 531 q 362 372 343 421 q 415 288 381 324 q 497 230 449 251 q 606 208 546 208 q 724 231 672 208 q 810 281 775 254 l 775 324 q 706 276 739 293 q 629 260 672 260 z "},"®":{"ha":1197,"x_min":97,"x_max":1100,"o":"m 504 696 l 567 696 q 645 665 614 696 q 676 593 676 633 q 666 544 676 564 q 639 513 656 525 q 603 496 622 501 q 568 490 585 490 l 504 490 l 504 696 m 415 210 l 504 210 l 504 438 l 564 438 q 585 417 569 438 q 617 371 600 397 q 650 319 635 344 q 672 285 665 294 q 695 253 685 268 q 719 226 706 238 q 751 208 733 214 q 794 201 768 201 q 828 204 817 201 q 853 215 840 207 l 853 260 q 828 256 840 256 q 781 272 796 256 q 758 300 765 289 l 650 453 q 705 478 682 461 q 742 515 728 494 q 763 558 757 536 q 769 599 769 579 q 764 635 769 611 q 740 684 758 660 q 685 726 721 708 q 592 743 650 743 l 415 743 l 415 210 m 188 485 q 220 644 188 569 q 309 774 253 718 q 440 863 365 831 q 599 896 514 896 q 758 863 683 896 q 888 774 832 831 q 977 644 944 718 q 1010 485 1010 569 q 977 326 1010 400 q 888 195 944 251 q 758 106 832 139 q 599 74 683 74 q 440 106 514 74 q 309 195 365 139 q 220 326 253 251 q 188 485 188 400 m 97 485 q 137 290 97 382 q 244 131 176 199 q 403 23 313 63 q 599 -17 494 -17 q 794 23 703 -17 q 953 131 885 63 q 1060 290 1021 199 q 1100 485 1100 382 q 1060 680 1100 589 q 953 839 1021 771 q 794 947 885 907 q 599 986 703 986 q 403 947 494 986 q 244 839 313 907 q 137 680 176 771 q 97 485 97 589 z "},"Ї":{"ha":571,"x_min":114,"x_max":456,"o":"m 222 972 l 222 0 l 349 0 l 349 972 l 222 972 m 114 1192 q 136 1139 114 1161 q 189 1117 158 1117 q 242 1139 219 1117 q 264 1192 264 1161 q 242 1244 264 1222 q 189 1267 219 1267 q 136 1244 158 1267 q 114 1192 114 1222 m 306 1192 q 328 1139 306 1161 q 381 1117 350 1117 q 433 1139 411 1117 q 456 1192 456 1161 q 433 1244 456 1222 q 381 1267 411 1267 q 328 1244 350 1267 q 306 1192 306 1222 z "},"І":{"ha":571,"x_min":222,"x_max":349,"o":"m 222 972 l 222 0 l 349 0 l 349 972 l 222 972 z "},"і":{"ha":428,"x_min":139,"x_max":289,"o":"m 156 694 l 156 0 l 274 0 l 274 694 l 156 694 m 139 914 q 161 861 139 883 q 214 839 183 839 q 267 861 244 839 q 289 914 289 883 q 267 967 289 944 q 214 989 244 989 q 161 967 183 989 q 139 914 139 944 z "},"ґ":{"ha":581,"x_min":111,"x_max":567,"o":"m 229 639 l 567 639 l 567 840 l 469 840 l 469 694 l 111 694 l 111 0 l 229 0 l 229 639 z "},"а":{"ha":750,"x_min":56,"x_max":639,"o":"m 367 710 q 524 681 468 710 q 605 607 579 653 q 635 501 631 561 q 639 379 639 442 l 639 0 l 526 0 l 526 68 q 424 6 486 29 q 299 -17 361 -17 q 193 4 239 -17 q 117 58 147 25 q 71 133 86 92 q 56 218 56 175 q 72 307 56 263 q 122 387 89 351 q 204 444 156 422 q 315 467 253 467 q 434 442 378 467 q 526 374 490 418 l 526 433 q 492 603 526 547 q 368 658 458 658 q 300 649 329 658 q 248 622 271 639 q 206 578 225 604 q 167 521 186 553 l 94 593 q 135 635 114 614 q 188 672 157 656 q 263 699 219 689 q 367 710 306 710 m 526 275 q 506 314 519 292 q 472 357 493 336 q 422 392 451 378 q 353 407 393 407 q 279 391 313 407 q 223 349 246 375 q 188 289 200 324 q 175 217 175 254 q 191 140 175 172 q 232 84 207 107 q 288 50 257 61 q 346 39 318 39 q 399 49 372 39 q 451 76 426 58 q 494 117 475 93 q 526 168 514 140 l 526 275 z "},"Є":{"ha":1071,"x_min":42,"x_max":988,"o":"m 549 989 q 801 943 685 989 q 988 797 917 897 l 917 729 q 853 807 889 771 q 774 870 818 843 q 676 913 729 897 q 561 928 622 928 q 394 894 465 928 q 276 807 324 861 q 204 686 228 753 q 181 553 181 619 l 181 547 l 643 547 l 643 485 l 181 485 l 181 478 q 207 316 181 394 q 283 177 233 238 q 403 81 332 117 q 567 44 475 44 q 680 60 628 44 q 776 102 732 75 q 854 165 819 129 q 917 243 889 201 l 988 175 q 904 89 953 125 q 799 29 856 53 q 681 -6 743 6 q 557 -17 619 -17 q 392 7 465 -17 q 261 69 318 31 q 163 161 204 108 q 94 271 121 214 q 54 388 67 328 q 42 501 42 447 q 81 710 42 619 q 190 863 121 801 q 351 957 258 925 q 549 989 443 989 z "},"є":{"ha":747,"x_min":42,"x_max":678,"o":"m 393 654 q 320 643 358 654 q 249 602 282 632 q 196 518 217 572 q 174 379 175 464 l 446 379 l 446 329 l 174 329 q 176 289 174 315 q 185 230 178 263 q 206 163 192 197 q 245 102 221 129 q 306 57 269 75 q 396 39 343 39 q 479 53 443 39 q 542 88 515 67 q 588 135 569 110 q 617 183 606 161 l 678 122 q 544 13 615 42 q 390 -15 474 -15 q 304 -8 347 -15 q 221 18 261 -1 q 158 60 189 33 q 100 127 126 86 q 58 223 74 168 q 42 350 42 278 q 65 500 42 433 q 133 613 89 567 q 241 685 178 660 q 383 710 304 710 q 504 692 451 710 q 593 649 557 675 q 648 590 629 622 q 668 529 667 558 l 565 529 q 542 594 561 569 q 497 632 522 618 q 443 650 471 646 q 393 654 415 654 z "},"е":{"ha":797,"x_min":69,"x_max":728,"o":"m 728 317 l 728 346 q 701 507 728 439 q 630 619 675 575 q 525 686 585 664 q 399 708 465 708 q 268 684 328 708 q 164 613 208 660 q 94 501 119 567 q 69 351 69 435 q 91 216 69 282 q 156 98 113 150 q 267 15 200 46 q 426 -17 335 -17 q 590 15 515 -17 q 721 104 665 46 l 676 149 q 622 103 647 124 q 569 68 596 82 q 515 47 543 54 q 451 39 486 39 q 369 51 413 39 q 288 93 325 63 q 225 178 250 124 q 200 317 200 232 l 728 317 m 200 372 q 212 480 200 428 q 248 572 224 532 q 310 637 272 613 q 399 661 347 661 q 552 584 497 661 q 607 372 607 507 l 200 372 z "},"™":{"ha":1247,"x_min":83,"x_max":1178,"o":"m 346 478 l 346 917 l 518 917 l 518 972 l 83 972 l 83 917 l 257 917 l 257 478 l 346 478 m 668 972 l 560 972 l 560 478 l 615 478 l 615 883 l 824 478 l 875 478 l 1085 881 l 1085 478 l 1178 478 l 1178 972 l 1075 972 l 871 583 l 668 972 z "},"№":{"ha":1565,"x_min":167,"x_max":1528,"o":"m 1183 496 q 1195 599 1183 558 q 1225 663 1207 639 q 1265 695 1243 686 q 1310 704 1288 704 q 1349 697 1328 704 q 1390 666 1371 689 q 1422 603 1408 643 q 1435 496 1435 563 q 1429 425 1435 461 q 1410 359 1424 389 q 1372 310 1396 329 q 1310 292 1347 292 q 1247 311 1271 292 q 1208 361 1222 331 q 1189 427 1194 392 q 1183 496 1183 463 m 1090 496 q 1113 380 1090 426 q 1168 305 1135 333 q 1240 264 1201 276 q 1310 251 1278 251 q 1378 264 1340 251 q 1450 305 1417 276 q 1506 380 1483 333 q 1528 496 1528 426 q 1509 603 1528 556 q 1460 681 1490 650 q 1390 729 1429 713 q 1310 746 1351 746 q 1242 733 1281 746 q 1170 692 1204 721 q 1113 615 1136 663 q 1090 496 1090 567 m 1111 60 l 1517 60 l 1517 136 l 1111 136 l 1111 60 m 950 972 l 950 229 l 944 229 l 174 989 l 167 989 l 167 0 l 231 0 l 231 743 l 236 743 l 1007 -17 l 1014 -17 l 1014 972 l 950 972 z "},"Ќ":{"ha":1006,"x_min":167,"x_max":964,"o":"m 499 1267 l 653 1267 l 438 1090 l 383 1090 l 499 1267 m 167 0 l 293 0 l 293 342 l 450 510 l 819 0 l 964 0 l 531 596 l 883 972 l 814 972 l 293 425 l 293 972 l 167 972 l 167 0 z "},"‰":{"ha":1529,"x_min":83,"x_max":1446,"o":"m 83 769 q 98 684 83 725 q 139 613 113 643 q 203 564 165 582 q 286 546 240 546 q 369 564 332 546 q 434 613 407 582 q 476 684 461 643 q 490 769 490 725 q 479 843 490 804 q 443 914 468 882 q 379 967 418 946 q 286 989 340 989 q 194 967 232 989 q 131 914 156 946 q 94 843 106 882 q 83 769 83 804 m 174 769 q 179 829 174 799 q 198 885 185 860 q 233 926 211 910 q 286 942 254 942 q 341 926 319 942 q 375 885 363 910 q 393 829 388 860 q 399 769 399 799 q 388 685 399 719 q 360 631 376 651 q 324 601 343 610 q 286 592 304 592 q 249 601 269 592 q 213 631 229 610 q 185 685 196 651 q 174 769 174 719 m 539 203 q 553 120 539 160 q 595 51 568 81 q 660 3 622 21 q 743 -15 697 -15 q 826 3 789 -15 q 891 51 864 21 q 933 120 918 81 q 947 203 947 160 q 936 278 947 239 q 900 351 925 318 q 836 404 875 383 q 743 425 797 425 q 650 404 689 425 q 586 351 611 383 q 550 278 561 318 q 539 203 539 239 m 631 203 q 636 265 631 233 q 655 322 642 297 q 690 363 668 347 q 743 379 711 379 q 798 363 776 379 q 833 322 819 347 q 851 265 846 297 q 856 203 856 233 q 844 119 856 153 q 817 65 833 86 q 780 36 800 44 q 743 28 760 28 q 707 36 726 28 q 670 65 688 44 q 642 119 653 86 q 631 203 631 153 m 742 989 l 207 -17 l 289 -17 l 826 989 l 742 989 m 1038 203 q 1052 120 1038 160 q 1094 51 1067 81 q 1158 3 1121 21 q 1242 -15 1196 -15 q 1325 3 1288 -15 q 1390 51 1363 21 q 1431 120 1417 81 q 1446 203 1446 160 q 1435 278 1446 239 q 1399 351 1424 318 q 1335 404 1374 383 q 1242 425 1296 425 q 1149 404 1188 425 q 1085 351 1110 383 q 1049 278 1060 318 q 1038 203 1038 239 m 1129 203 q 1135 265 1129 233 q 1153 322 1140 297 q 1188 363 1167 347 q 1242 379 1210 379 q 1297 363 1275 379 q 1331 322 1318 347 q 1349 265 1344 297 q 1354 203 1354 233 q 1343 119 1354 153 q 1315 65 1332 86 q 1278 36 1299 44 q 1242 28 1258 28 q 1206 36 1225 28 q 1169 65 1186 44 q 1140 119 1151 86 q 1129 203 1129 153 z "},"ё":{"ha":804,"x_min":60,"x_max":718,"o":"m 718 317 l 718 346 q 692 507 718 439 q 620 619 665 575 q 515 686 575 664 q 389 708 456 708 q 258 684 318 708 q 154 613 199 660 q 85 501 110 567 q 60 351 60 435 q 81 216 60 282 q 147 98 103 150 q 258 15 190 46 q 417 -17 325 -17 q 581 15 506 -17 q 711 104 656 46 l 667 149 q 612 103 638 124 q 560 68 586 82 q 505 47 533 54 q 442 39 476 39 q 359 51 403 39 q 278 93 315 63 q 215 178 240 124 q 190 317 190 232 l 718 317 m 190 372 q 202 480 190 428 q 238 572 214 532 q 300 637 263 613 q 389 661 338 661 q 542 584 488 661 q 597 372 597 507 l 190 372 m 211 917 q 233 864 211 886 q 286 842 256 842 q 339 864 317 842 q 361 917 361 886 q 339 969 361 947 q 286 992 317 992 q 233 969 256 992 q 211 917 211 947 m 403 917 q 425 864 403 886 q 478 842 447 842 q 531 864 508 842 q 553 917 553 886 q 531 969 553 947 q 478 992 508 992 q 425 969 447 992 q 403 917 403 947 z "},"Ѕ":{"ha":868,"x_min":51,"x_max":774,"o":"m 51 246 q 83 138 54 186 q 160 55 111 89 q 276 2 210 21 q 422 -17 343 -17 q 567 3 503 -17 q 678 58 632 22 q 749 146 724 94 q 774 260 774 197 q 731 401 774 346 q 623 492 688 456 q 483 554 558 529 q 342 607 407 579 q 235 671 278 635 q 192 767 192 707 q 206 829 192 800 q 249 880 221 858 q 319 915 278 901 q 415 928 361 928 q 569 890 506 928 q 643 769 632 851 l 738 769 q 700 862 729 821 q 626 931 671 903 q 526 974 582 960 q 408 989 469 989 q 287 972 344 989 q 185 924 229 956 q 116 843 142 892 q 90 732 90 794 q 132 600 90 650 q 237 517 174 550 q 374 460 300 483 q 510 406 447 436 q 615 333 574 376 q 657 218 657 290 q 591 86 657 128 q 415 44 525 44 q 275 67 328 44 q 194 122 222 90 q 157 188 167 154 q 146 246 147 222 l 51 246 z "},"ѕ":{"ha":667,"x_min":46,"x_max":590,"o":"m 554 536 q 535 606 554 574 q 481 660 515 638 q 402 697 447 683 q 306 710 357 710 q 215 697 257 710 q 141 660 172 685 q 92 598 110 635 q 74 513 74 561 q 104 407 74 446 q 181 344 135 368 q 280 306 226 321 q 379 274 333 292 q 456 231 425 257 q 486 158 486 204 q 480 118 486 139 q 457 80 474 97 q 411 51 440 63 q 338 39 382 39 q 244 56 282 39 q 181 98 206 74 q 147 147 157 122 q 136 189 136 172 l 46 189 q 64 113 46 150 q 119 47 82 76 q 209 1 156 18 q 333 -17 263 -17 q 526 40 461 -17 q 590 188 590 96 q 559 294 590 254 q 481 359 528 335 q 378 399 433 383 q 276 431 324 414 q 198 471 229 447 q 167 538 167 494 q 174 576 167 556 q 197 613 181 596 q 242 642 214 631 q 311 654 269 654 q 383 642 353 654 q 435 613 414 631 q 465 575 456 596 q 475 536 475 554 l 554 536 z "},"ї":{"ha":428,"x_min":43,"x_max":385,"o":"m 156 694 l 156 0 l 274 0 l 274 694 l 156 694 m 43 914 q 65 861 43 883 q 118 839 88 839 q 171 861 149 839 q 193 914 193 883 q 171 967 193 944 q 118 989 149 989 q 65 967 88 989 q 43 914 43 944 m 235 914 q 257 861 235 883 q 310 839 279 839 q 363 861 340 839 q 385 914 385 883 q 363 967 385 944 q 310 989 340 989 q 257 967 279 989 q 235 914 235 944 z "},"ј":{"ha":404,"x_min":-83,"x_max":293,"o":"m 157 694 l 157 -128 q 154 -190 157 -160 q 142 -243 151 -219 q 116 -281 133 -267 q 71 -294 99 -294 q 19 -278 36 -294 q -14 -225 1 -261 l -83 -279 q -12 -333 -53 -319 q 74 -347 29 -347 q 140 -336 104 -347 q 206 -294 175 -325 q 256 -208 236 -262 q 276 -65 276 -153 l 276 694 l 157 694 m 143 914 q 165 861 143 883 q 218 839 186 839 q 271 861 249 839 q 293 914 293 883 q 271 967 293 944 q 218 989 249 989 q 165 967 186 989 q 143 914 143 944 z "},"$":{"ha":868,"x_min":51,"x_max":774,"o":"m 372 1107 l 372 988 q 263 965 314 983 q 173 913 211 946 q 113 835 135 881 q 90 732 90 790 q 115 628 90 671 q 178 553 139 585 q 269 501 218 522 q 372 460 319 479 l 372 46 q 255 75 299 51 q 188 129 211 99 q 156 192 164 160 q 146 246 147 224 l 51 246 q 78 146 53 192 q 145 67 103 100 q 245 13 188 33 q 372 -14 303 -8 l 372 -174 l 474 -174 l 474 -14 q 693 70 613 -3 q 774 260 774 143 q 748 373 774 326 q 680 454 722 419 q 583 513 638 489 q 474 557 529 536 l 474 922 q 588 874 542 911 q 643 769 633 838 l 738 769 q 649 915 722 860 q 474 985 575 969 l 474 1107 l 372 1107 m 657 218 q 608 99 657 140 q 474 47 558 57 l 474 422 q 544 388 511 407 q 603 346 578 369 q 642 291 628 322 q 657 218 657 260 m 192 767 q 238 870 192 825 q 372 925 283 915 l 372 594 q 301 626 335 610 q 244 663 268 643 q 206 708 219 683 q 192 767 192 733 z "},"Š":{"ha":868,"x_min":51,"x_max":774,"o":"m 51 246 q 83 138 54 186 q 160 55 111 89 q 276 2 210 21 q 422 -17 343 -17 q 567 3 503 -17 q 678 58 632 22 q 749 146 724 94 q 774 260 774 197 q 731 401 774 346 q 623 492 688 456 q 483 554 558 529 q 342 607 407 579 q 235 671 278 635 q 192 767 192 707 q 206 829 192 800 q 249 880 221 858 q 319 915 278 901 q 415 928 361 928 q 569 890 506 928 q 643 769 632 851 l 738 769 q 700 862 729 821 q 626 931 671 903 q 526 974 582 960 q 408 989 469 989 q 287 972 344 989 q 185 924 229 956 q 116 843 142 892 q 90 732 90 794 q 132 600 90 650 q 237 517 174 550 q 374 460 300 483 q 510 406 447 436 q 615 333 574 376 q 657 218 657 290 q 591 86 657 128 q 415 44 525 44 q 275 67 328 44 q 194 122 222 90 q 157 188 167 154 q 146 246 147 222 l 51 246 m 433 1140 q 449 1149 433 1139 q 487 1172 464 1158 q 537 1203 510 1186 q 587 1234 564 1219 q 625 1258 610 1249 q 640 1268 640 1268 l 675 1225 q 660 1210 675 1225 q 622 1172 644 1194 q 572 1124 599 1150 q 522 1075 544 1097 q 483 1038 499 1053 q 468 1024 468 1024 l 399 1024 q 383 1039 399 1024 q 345 1076 368 1054 q 295 1125 322 1099 q 245 1174 268 1151 q 207 1210 222 1196 q 192 1225 192 1225 l 225 1267 q 241 1258 225 1267 q 280 1234 257 1249 q 330 1203 303 1219 q 380 1173 357 1188 q 418 1149 403 1158 q 433 1140 433 1140 z "},"Ž":{"ha":925,"x_min":42,"x_max":883,"o":"m 76 972 l 76 896 l 664 896 l 42 0 l 883 0 l 883 76 l 243 76 l 860 972 l 76 972 m 461 1140 q 476 1149 461 1139 q 515 1172 492 1158 q 565 1203 538 1186 q 615 1234 592 1219 q 653 1258 638 1249 q 668 1268 668 1268 l 703 1225 q 688 1210 703 1225 q 649 1172 672 1194 q 599 1124 626 1150 q 549 1075 572 1097 q 511 1038 526 1053 q 496 1024 496 1024 l 426 1024 q 411 1039 426 1024 q 373 1076 396 1054 q 323 1125 350 1099 q 273 1174 296 1151 q 235 1210 250 1196 q 219 1225 219 1225 l 253 1267 q 269 1258 253 1267 q 308 1234 285 1249 q 358 1203 331 1219 q 408 1173 385 1188 q 446 1149 431 1158 q 461 1140 461 1140 z "},"š":{"ha":667,"x_min":46,"x_max":590,"o":"m 554 536 q 535 606 554 574 q 481 660 515 638 q 402 697 447 683 q 306 710 357 710 q 215 697 257 710 q 141 660 172 685 q 92 598 110 635 q 74 513 74 561 q 104 407 74 446 q 181 344 135 368 q 280 306 226 321 q 379 274 333 292 q 456 231 425 257 q 486 158 486 204 q 480 118 486 139 q 457 80 474 97 q 411 51 440 63 q 338 39 382 39 q 244 56 282 39 q 181 98 206 74 q 147 147 157 122 q 136 189 136 172 l 46 189 q 64 113 46 150 q 119 47 82 76 q 209 1 156 18 q 333 -17 263 -17 q 526 40 461 -17 q 590 188 590 96 q 559 294 590 254 q 481 359 528 335 q 378 399 433 383 q 276 431 324 414 q 198 471 229 447 q 167 538 167 494 q 174 576 167 556 q 197 613 181 596 q 242 642 214 631 q 311 654 269 654 q 383 642 353 654 q 435 613 414 631 q 465 575 456 596 q 475 536 475 554 l 554 536 m 332 863 q 347 871 332 861 q 385 894 363 881 q 435 925 408 908 q 485 956 463 942 q 524 981 508 971 q 539 990 539 990 l 574 947 q 558 932 574 947 q 520 894 543 917 q 470 846 497 872 q 420 797 443 819 q 382 760 397 775 q 367 746 367 746 l 297 746 q 282 761 297 746 q 244 799 267 776 q 194 847 221 821 q 144 896 167 874 q 106 933 121 918 q 90 947 90 947 l 124 989 q 140 980 124 989 q 178 956 156 971 q 228 926 201 942 q 278 895 256 910 q 317 872 301 881 q 332 863 332 863 z "},"ž":{"ha":681,"x_min":28,"x_max":639,"o":"m 50 694 l 50 639 l 468 639 l 28 0 l 635 0 l 635 56 l 199 56 l 639 694 l 50 694 m 339 863 q 354 871 339 861 q 392 894 369 881 q 442 925 415 908 q 492 956 469 942 q 531 981 515 971 q 546 990 546 990 l 581 947 q 565 932 581 947 q 527 894 550 917 q 477 846 504 872 q 427 797 450 819 q 389 760 404 775 q 374 746 374 746 l 304 746 q 289 761 304 746 q 251 799 274 776 q 201 847 228 821 q 151 896 174 874 q 113 933 128 918 q 97 947 97 947 l 131 989 q 147 980 131 989 q 185 956 163 971 q 235 926 208 942 q 285 895 263 910 q 324 872 308 881 q 339 863 339 863 z "},"Ÿ":{"ha":888,"x_min":42,"x_max":846,"o":"m 42 972 l 378 368 l 378 0 l 504 0 l 504 381 l 846 972 l 771 972 l 474 460 l 468 460 l 185 972 l 42 972 m 272 1192 q 294 1139 272 1161 q 347 1117 317 1117 q 400 1139 378 1117 q 422 1192 422 1161 q 400 1244 422 1222 q 347 1267 378 1267 q 294 1244 317 1267 q 272 1192 272 1222 m 464 1192 q 486 1139 464 1161 q 539 1117 508 1117 q 592 1139 569 1117 q 614 1192 614 1161 q 592 1244 614 1222 q 539 1267 569 1267 q 486 1244 508 1267 q 464 1192 464 1222 z "},"Œ":{"ha":1497,"x_min":82,"x_max":1456,"o":"m 817 99 q 740 63 788 81 q 617 44 692 44 q 476 70 540 44 q 363 139 413 96 q 280 239 314 182 q 232 358 246 296 q 223 422 225 390 q 221 486 221 453 q 223 551 221 521 q 232 614 225 582 q 278 733 244 676 q 361 832 311 789 q 476 901 411 875 q 617 926 540 926 q 740 907 692 926 q 817 871 788 888 l 817 99 m 942 894 l 1431 894 l 1431 972 l 761 972 q 688 984 722 981 q 614 988 653 988 q 470 970 544 988 q 328 913 396 953 q 203 810 260 874 q 113 651 147 746 q 90 570 97 611 q 82 486 82 529 q 113 319 82 407 q 209 156 144 231 q 374 33 274 82 q 614 -17 475 -17 q 684 -12 649 -17 q 756 0 719 -7 l 1456 0 l 1456 76 l 942 76 l 942 486 l 1358 486 l 1358 547 l 942 547 l 942 894 z "},"œ":{"ha":1353,"x_min":56,"x_max":1297,"o":"m 771 382 l 771 399 q 785 501 771 453 q 826 586 800 550 q 889 643 853 622 q 968 664 925 664 q 1046 644 1010 664 q 1108 588 1082 625 q 1149 499 1133 551 q 1164 382 1164 447 l 771 382 m 638 349 q 616 190 638 251 q 561 94 594 129 q 488 45 528 58 q 410 32 447 32 q 331 45 371 32 q 260 94 292 58 q 208 190 228 129 q 188 349 188 251 q 208 507 188 446 q 260 603 228 568 q 331 651 292 638 q 410 664 371 664 q 488 651 447 664 q 561 603 528 638 q 616 507 594 568 q 638 349 638 446 m 771 333 l 1290 333 l 1290 360 q 1264 518 1290 451 q 1193 628 1238 585 q 1092 692 1149 671 q 972 713 1035 713 q 899 705 938 713 q 825 680 861 697 q 756 636 789 663 q 700 572 724 610 q 650 621 678 596 q 587 666 622 646 q 507 699 551 686 q 408 713 463 713 q 260 683 325 713 q 149 603 194 653 q 79 487 103 553 q 56 349 56 421 q 79 209 56 275 q 149 93 103 143 q 260 13 194 43 q 408 -17 325 -17 q 579 22 504 -17 q 703 131 654 61 q 831 20 751 57 q 1001 -17 910 -17 q 1163 17 1083 -17 q 1297 113 1243 50 l 1258 154 q 1152 69 1204 99 q 1029 40 1100 40 q 912 65 961 40 q 831 130 863 90 q 785 218 800 169 q 771 315 771 267 l 771 333 z "},"¿":{"ha":721,"x_min":139,"x_max":582,"o":"m 271 615 q 319 665 293 643 q 378 688 346 688 q 412 672 394 688 q 429 628 429 656 q 408 556 429 590 q 354 487 386 521 q 284 419 322 453 q 214 347 246 385 q 160 267 182 310 q 139 176 139 225 q 149 107 139 142 q 185 45 160 72 q 256 1 211 18 q 368 -17 300 -17 q 460 -3 421 -17 q 527 33 500 10 q 567 89 554 57 q 582 157 581 121 l 485 157 l 485 149 q 474 102 485 124 q 446 65 464 81 q 406 42 428 50 q 360 33 383 33 q 314 42 336 33 q 273 65 292 50 q 243 99 254 79 q 232 144 232 119 q 252 222 232 186 q 302 290 272 257 q 367 353 332 322 q 433 417 401 383 q 485 489 464 451 q 510 574 507 526 l 510 588 q 500 648 510 619 q 471 698 490 676 q 422 732 451 719 q 353 744 393 744 q 277 722 318 744 q 204 661 236 700 l 271 615 m 447 914 q 425 967 447 944 q 372 989 403 989 q 319 967 342 989 q 297 914 297 944 q 319 861 297 883 q 372 839 342 839 q 425 861 403 839 q 447 914 447 883 z "},"¥":{"ha":860,"x_min":28,"x_max":832,"o":"m 28 972 l 349 394 l 172 394 l 172 317 l 364 317 l 364 260 l 172 260 l 172 181 l 364 181 l 364 0 l 490 0 l 490 181 l 682 181 l 682 260 l 490 260 l 490 317 l 682 317 l 682 394 l 499 394 l 832 972 l 757 972 l 460 460 l 454 460 l 171 972 l 28 972 z "},"ª":{"ha":668,"x_min":97,"x_max":529,"o":"m 432 624 q 377 567 410 588 q 308 546 344 546 q 222 578 247 546 q 196 651 196 611 q 201 692 196 671 q 218 731 206 714 q 253 760 231 749 q 310 771 275 771 q 381 749 351 771 q 432 690 410 728 l 432 624 m 529 764 q 526 846 529 806 q 502 917 522 886 q 438 968 482 949 q 315 988 394 988 q 231 979 279 988 q 133 942 182 971 l 175 876 q 248 924 211 906 q 317 942 285 942 q 399 916 365 942 q 432 839 432 890 l 432 756 q 367 803 401 785 q 283 822 332 822 q 201 808 236 822 q 142 769 165 793 q 108 714 119 744 q 97 651 97 683 q 107 597 97 625 q 138 547 117 569 q 194 510 160 525 q 276 496 228 496 q 358 512 321 496 q 432 556 396 528 l 432 507 l 529 507 l 529 764 z "},"Ð":{"ha":1092,"x_min":14,"x_max":1008,"o":"m 14 515 l 167 515 l 167 972 l 486 972 q 698 935 601 972 q 863 832 794 897 q 970 676 932 767 q 1008 482 1008 586 q 968 288 1008 376 q 859 136 928 200 q 699 36 790 72 q 503 0 607 0 l 167 0 l 167 460 l 14 460 l 14 515 m 293 61 l 446 61 q 640 100 560 61 q 771 201 719 139 q 846 339 822 263 q 869 490 869 415 q 842 651 869 575 q 760 785 814 728 q 628 877 707 843 q 446 911 549 911 l 293 911 l 293 515 l 449 515 l 449 460 l 293 460 l 293 61 z "},"ð":{"ha":829,"x_min":60,"x_max":778,"o":"m 394 742 l 522 829 q 608 744 574 793 q 654 628 643 696 l 649 628 q 546 688 601 667 q 417 710 490 710 q 267 680 333 710 q 154 599 200 650 q 84 481 108 547 q 60 342 60 414 q 91 186 60 253 q 172 74 122 119 q 286 6 222 29 q 417 -17 350 -17 q 539 2 475 -17 q 656 69 603 21 q 743 201 708 118 q 778 414 778 285 q 771 547 778 481 q 744 673 764 613 q 688 785 724 733 q 593 878 651 838 l 697 949 l 669 986 l 551 904 q 375 965 468 949 q 203 989 282 981 l 193 939 q 340 908 265 928 q 478 856 414 889 l 367 779 l 394 742 m 418 32 q 355 41 393 32 q 281 82 317 50 q 218 176 244 114 q 192 347 192 239 q 218 517 192 454 q 281 611 244 579 q 355 652 317 643 q 418 661 393 661 q 498 648 457 661 q 572 599 539 635 q 625 503 604 564 q 646 347 646 442 q 623 190 646 251 q 566 94 600 129 q 492 45 532 58 q 418 32 453 32 z "},"À":{"ha":1017,"x_min":42,"x_max":975,"o":"m 707 286 l 840 0 l 975 0 l 522 972 l 453 972 l 42 0 l 106 0 l 228 286 l 707 286 m 678 349 l 254 349 l 454 817 l 460 817 l 678 349 m 528 1267 l 374 1267 l 589 1090 l 643 1090 l 528 1267 z "},"Á":{"ha":1017,"x_min":42,"x_max":975,"o":"m 707 286 l 840 0 l 975 0 l 522 972 l 453 972 l 42 0 l 106 0 l 228 286 l 707 286 m 678 349 l 254 349 l 454 817 l 460 817 l 678 349 m 489 1267 l 643 1267 l 428 1090 l 374 1090 l 489 1267 z "},"Â":{"ha":1017,"x_min":42,"x_max":975,"o":"m 707 286 l 840 0 l 975 0 l 522 972 l 453 972 l 42 0 l 106 0 l 228 286 l 707 286 m 678 349 l 254 349 l 454 817 l 460 817 l 678 349 m 507 1150 q 522 1141 507 1150 q 560 1118 538 1132 q 610 1088 583 1104 q 660 1056 638 1071 q 699 1032 683 1042 q 714 1022 714 1022 l 749 1065 q 733 1081 749 1065 q 695 1118 718 1096 q 645 1167 672 1140 q 595 1215 618 1193 q 557 1252 572 1238 q 542 1267 542 1267 l 472 1267 q 457 1251 472 1267 q 419 1214 442 1236 q 369 1165 396 1192 q 319 1117 342 1139 q 281 1079 296 1094 q 265 1065 265 1064 l 299 1024 q 315 1033 299 1024 q 353 1056 331 1042 q 403 1087 376 1071 q 453 1117 431 1103 q 492 1141 476 1132 q 507 1150 507 1150 z "},"Ã":{"ha":1017,"x_min":42,"x_max":975,"o":"m 707 286 l 840 0 l 975 0 l 522 972 l 453 972 l 42 0 l 106 0 l 228 286 l 707 286 m 678 349 l 254 349 l 454 817 l 460 817 l 678 349 m 288 1096 q 327 1140 303 1122 q 375 1157 351 1157 q 410 1151 393 1157 q 443 1139 428 1146 q 535 1104 493 1119 q 613 1089 576 1089 q 702 1122 661 1089 q 767 1228 743 1154 l 725 1247 q 686 1198 710 1211 q 639 1185 663 1185 q 606 1189 622 1185 q 578 1196 590 1193 q 476 1233 518 1215 q 401 1250 433 1250 q 309 1212 349 1250 q 250 1117 269 1174 l 288 1096 z "},"Ä":{"ha":1017,"x_min":42,"x_max":975,"o":"m 707 286 l 840 0 l 975 0 l 522 972 l 453 972 l 42 0 l 106 0 l 228 286 l 707 286 m 678 349 l 254 349 l 454 817 l 460 817 l 678 349 m 338 1192 q 360 1139 338 1161 q 413 1117 382 1117 q 465 1139 443 1117 q 488 1192 488 1161 q 465 1244 488 1222 q 413 1267 443 1267 q 360 1244 382 1267 q 338 1192 338 1222 m 529 1192 q 551 1139 529 1161 q 604 1117 574 1117 q 657 1139 635 1117 q 679 1192 679 1161 q 657 1244 679 1222 q 604 1267 635 1267 q 551 1244 574 1267 q 529 1192 529 1222 z "},"Å":{"ha":1017,"x_min":42,"x_max":975,"o":"m 707 286 l 840 0 l 975 0 l 522 972 l 453 972 l 42 0 l 106 0 l 228 286 l 707 286 m 678 349 l 254 349 l 454 817 l 460 817 l 678 349 m 426 1151 q 450 1209 426 1186 q 508 1232 474 1232 q 566 1209 542 1232 q 590 1151 590 1186 q 566 1093 590 1117 q 508 1069 542 1069 q 450 1093 474 1069 q 426 1151 426 1117 m 381 1151 q 390 1102 381 1125 q 417 1062 400 1079 q 458 1034 435 1044 q 508 1024 482 1024 q 558 1034 535 1024 q 599 1062 582 1044 q 626 1102 617 1079 q 636 1151 636 1125 q 628 1195 636 1172 q 605 1236 621 1218 q 565 1266 589 1254 q 508 1278 540 1278 q 453 1266 476 1278 q 413 1236 429 1254 q 389 1195 397 1218 q 381 1151 381 1172 z "},"à":{"ha":750,"x_min":56,"x_max":639,"o":"m 367 710 q 524 681 468 710 q 605 607 579 653 q 635 501 631 561 q 639 379 639 442 l 639 0 l 526 0 l 526 68 q 424 6 486 29 q 299 -17 361 -17 q 193 4 239 -17 q 117 58 147 25 q 71 133 86 92 q 56 218 56 175 q 72 307 56 263 q 122 387 89 351 q 204 444 156 422 q 315 467 253 467 q 434 442 378 467 q 526 374 490 418 l 526 433 q 492 603 526 547 q 368 658 458 658 q 300 649 329 658 q 248 622 271 639 q 206 578 225 604 q 167 521 186 553 l 94 593 q 135 635 114 614 q 188 672 157 656 q 263 699 219 689 q 367 710 306 710 m 526 275 q 506 314 519 292 q 472 357 493 336 q 422 392 451 378 q 353 407 393 407 q 279 391 313 407 q 223 349 246 375 q 188 289 200 324 q 175 217 175 254 q 191 140 175 172 q 232 84 207 107 q 288 50 257 61 q 346 39 318 39 q 399 49 372 39 q 451 76 426 58 q 494 117 475 93 q 526 168 514 140 l 526 275 m 394 989 l 240 989 l 456 813 l 510 813 l 394 989 z "},"á":{"ha":750,"x_min":56,"x_max":639,"o":"m 367 710 q 524 681 468 710 q 605 607 579 653 q 635 501 631 561 q 639 379 639 442 l 639 0 l 526 0 l 526 68 q 424 6 486 29 q 299 -17 361 -17 q 193 4 239 -17 q 117 58 147 25 q 71 133 86 92 q 56 218 56 175 q 72 307 56 263 q 122 387 89 351 q 204 444 156 422 q 315 467 253 467 q 434 442 378 467 q 526 374 490 418 l 526 433 q 492 603 526 547 q 368 658 458 658 q 300 649 329 658 q 248 622 271 639 q 206 578 225 604 q 167 521 186 553 l 94 593 q 135 635 114 614 q 188 672 157 656 q 263 699 219 689 q 367 710 306 710 m 526 275 q 506 314 519 292 q 472 357 493 336 q 422 392 451 378 q 353 407 393 407 q 279 391 313 407 q 223 349 246 375 q 188 289 200 324 q 175 217 175 254 q 191 140 175 172 q 232 84 207 107 q 288 50 257 61 q 346 39 318 39 q 399 49 372 39 q 451 76 426 58 q 494 117 475 93 q 526 168 514 140 l 526 275 m 356 989 l 510 989 l 294 813 l 240 813 l 356 989 z "},"â":{"ha":750,"x_min":56,"x_max":639,"o":"m 367 710 q 524 681 468 710 q 605 607 579 653 q 635 501 631 561 q 639 379 639 442 l 639 0 l 526 0 l 526 68 q 424 6 486 29 q 299 -17 361 -17 q 193 4 239 -17 q 117 58 147 25 q 71 133 86 92 q 56 218 56 175 q 72 307 56 263 q 122 387 89 351 q 204 444 156 422 q 315 467 253 467 q 434 442 378 467 q 526 374 490 418 l 526 433 q 492 603 526 547 q 368 658 458 658 q 300 649 329 658 q 248 622 271 639 q 206 578 225 604 q 167 521 186 553 l 94 593 q 135 635 114 614 q 188 672 157 656 q 263 699 219 689 q 367 710 306 710 m 526 275 q 506 314 519 292 q 472 357 493 336 q 422 392 451 378 q 353 407 393 407 q 279 391 313 407 q 223 349 246 375 q 188 289 200 324 q 175 217 175 254 q 191 140 175 172 q 232 84 207 107 q 288 50 257 61 q 346 39 318 39 q 399 49 372 39 q 451 76 426 58 q 494 117 475 93 q 526 168 514 140 l 526 275 m 374 872 q 389 863 374 872 q 427 840 404 854 q 477 810 450 826 q 527 778 504 793 q 565 754 550 764 q 581 744 581 744 l 615 788 q 600 803 615 788 q 562 840 585 818 q 512 889 539 863 q 462 938 485 915 q 424 974 439 960 q 408 989 408 989 l 339 989 q 324 974 339 989 q 285 936 308 958 q 235 888 263 914 q 185 839 208 861 q 147 801 163 817 q 132 788 132 786 l 165 746 q 181 755 165 746 q 220 778 197 764 q 270 809 243 793 q 320 840 297 825 q 358 863 343 854 q 374 872 374 872 z "},"ã":{"ha":750,"x_min":56,"x_max":639,"o":"m 367 710 q 524 681 468 710 q 605 607 579 653 q 635 501 631 561 q 639 379 639 442 l 639 0 l 526 0 l 526 68 q 424 6 486 29 q 299 -17 361 -17 q 193 4 239 -17 q 117 58 147 25 q 71 133 86 92 q 56 218 56 175 q 72 307 56 263 q 122 387 89 351 q 204 444 156 422 q 315 467 253 467 q 434 442 378 467 q 526 374 490 418 l 526 433 q 492 603 526 547 q 368 658 458 658 q 300 649 329 658 q 248 622 271 639 q 206 578 225 604 q 167 521 186 553 l 94 593 q 135 635 114 614 q 188 672 157 656 q 263 699 219 689 q 367 710 306 710 m 526 275 q 506 314 519 292 q 472 357 493 336 q 422 392 451 378 q 353 407 393 407 q 279 391 313 407 q 223 349 246 375 q 188 289 200 324 q 175 217 175 254 q 191 140 175 172 q 232 84 207 107 q 288 50 257 61 q 346 39 318 39 q 399 49 372 39 q 451 76 426 58 q 494 117 475 93 q 526 168 514 140 l 526 275 m 154 818 q 194 862 169 844 q 242 879 218 879 q 277 874 260 879 q 310 861 294 868 q 401 826 360 842 q 479 811 443 811 q 569 844 528 811 q 633 950 610 876 l 592 969 q 553 920 576 933 q 506 907 529 907 q 473 911 489 907 q 444 918 457 915 q 342 955 385 938 q 268 972 300 972 q 176 934 215 972 q 117 839 136 896 l 154 818 z "},"ä":{"ha":750,"x_min":56,"x_max":639,"o":"m 367 710 q 524 681 468 710 q 605 607 579 653 q 635 501 631 561 q 639 379 639 442 l 639 0 l 526 0 l 526 68 q 424 6 486 29 q 299 -17 361 -17 q 193 4 239 -17 q 117 58 147 25 q 71 133 86 92 q 56 218 56 175 q 72 307 56 263 q 122 387 89 351 q 204 444 156 422 q 315 467 253 467 q 434 442 378 467 q 526 374 490 418 l 526 433 q 492 603 526 547 q 368 658 458 658 q 300 649 329 658 q 248 622 271 639 q 206 578 225 604 q 167 521 186 553 l 94 593 q 135 635 114 614 q 188 672 157 656 q 263 699 219 689 q 367 710 306 710 m 526 275 q 506 314 519 292 q 472 357 493 336 q 422 392 451 378 q 353 407 393 407 q 279 391 313 407 q 223 349 246 375 q 188 289 200 324 q 175 217 175 254 q 191 140 175 172 q 232 84 207 107 q 288 50 257 61 q 346 39 318 39 q 399 49 372 39 q 451 76 426 58 q 494 117 475 93 q 526 168 514 140 l 526 275 m 204 914 q 226 861 204 883 q 279 839 249 839 q 332 861 310 839 q 354 914 354 883 q 332 967 354 944 q 279 989 310 989 q 226 967 249 989 q 204 914 204 944 m 396 914 q 418 861 396 883 q 471 839 440 839 q 524 861 501 839 q 546 914 546 883 q 524 967 546 944 q 471 989 501 989 q 418 967 440 989 q 396 914 396 944 z "},"å":{"ha":750,"x_min":56,"x_max":639,"o":"m 367 710 q 524 681 468 710 q 605 607 579 653 q 635 501 631 561 q 639 379 639 442 l 639 0 l 526 0 l 526 68 q 424 6 486 29 q 299 -17 361 -17 q 193 4 239 -17 q 117 58 147 25 q 71 133 86 92 q 56 218 56 175 q 72 307 56 263 q 122 387 89 351 q 204 444 156 422 q 315 467 253 467 q 434 442 378 467 q 526 374 490 418 l 526 433 q 492 603 526 547 q 368 658 458 658 q 300 649 329 658 q 248 622 271 639 q 206 578 225 604 q 167 521 186 553 l 94 593 q 135 635 114 614 q 188 672 157 656 q 263 699 219 689 q 367 710 306 710 m 526 275 q 506 314 519 292 q 472 357 493 336 q 422 392 451 378 q 353 407 393 407 q 279 391 313 407 q 223 349 246 375 q 188 289 200 324 q 175 217 175 254 q 191 140 175 172 q 232 84 207 107 q 288 50 257 61 q 346 39 318 39 q 399 49 372 39 q 451 76 426 58 q 494 117 475 93 q 526 168 514 140 l 526 275 m 293 874 q 317 931 293 908 q 375 954 340 954 q 433 931 408 954 q 457 874 457 908 q 433 815 457 839 q 375 792 408 792 q 317 815 340 792 q 293 874 293 839 m 247 874 q 257 824 247 847 q 284 784 267 801 q 325 756 301 767 q 375 746 349 746 q 425 756 401 746 q 466 784 449 767 q 493 824 483 801 q 503 874 503 847 q 495 917 503 894 q 472 958 488 940 q 431 988 456 976 q 375 1000 407 1000 q 319 988 343 1000 q 280 958 296 976 q 256 917 264 940 q 247 874 247 894 z "},"Æ":{"ha":1392,"x_min":28,"x_max":1350,"o":"m 711 353 l 343 353 l 711 903 l 711 353 m 711 290 l 711 0 l 1350 0 l 1350 76 l 838 76 l 838 486 l 1254 486 l 1254 547 l 838 547 l 838 894 l 1326 894 l 1326 972 l 681 972 l 28 0 l 108 0 l 301 290 l 711 290 z "},"æ":{"ha":1233,"x_min":57,"x_max":1150,"o":"m 629 381 q 647 503 629 450 q 692 591 664 556 q 756 644 719 626 q 828 663 792 663 q 963 591 911 663 q 1015 393 1015 519 l 1015 381 l 629 381 m 519 161 q 488 110 507 132 q 444 74 468 89 q 396 53 421 60 q 349 46 371 46 q 281 60 313 46 q 227 98 250 74 q 191 156 204 122 q 178 229 178 189 q 192 303 178 271 q 229 358 206 336 q 284 391 253 379 q 349 403 315 403 q 421 389 390 403 q 472 356 451 375 q 504 317 493 338 q 519 283 515 297 l 519 161 m 629 332 l 1142 332 l 1142 356 q 1110 532 1142 463 q 1032 641 1079 601 q 931 696 985 681 q 832 711 878 711 q 765 704 800 711 q 698 684 731 697 q 638 653 665 671 q 594 613 611 635 q 486 692 542 674 q 358 711 431 711 q 235 696 286 711 q 132 642 183 681 l 174 583 q 261 641 214 619 q 361 663 308 663 q 408 656 382 663 q 458 638 435 650 q 499 608 482 626 q 519 564 517 589 l 519 381 q 467 426 494 410 q 411 452 439 443 q 358 464 383 461 q 315 467 333 467 q 204 445 253 467 q 123 388 156 424 q 74 307 90 353 q 57 214 57 261 q 72 131 57 172 q 118 58 88 90 q 195 4 149 25 q 304 -17 242 -17 q 447 15 376 -17 q 572 119 518 47 q 621 70 593 94 q 684 26 649 46 q 764 -5 719 7 q 863 -17 808 -17 q 1011 15 936 -17 q 1150 113 1086 46 l 1110 154 q 997 66 1050 92 q 872 40 944 40 q 778 60 822 40 q 700 117 733 81 q 648 207 667 154 q 629 326 629 260 l 629 332 z "},"Ç":{"ha":1054,"x_min":69,"x_max":1026,"o":"m 533 -264 q 578 -269 554 -267 q 626 -272 603 -272 q 684 -266 656 -272 q 735 -245 713 -260 q 771 -209 757 -231 q 785 -156 785 -187 q 747 -85 785 -111 q 664 -60 710 -60 q 647 -60 656 -60 q 631 -61 639 -60 l 643 -15 q 787 6 724 -11 q 898 47 850 24 q 978 95 946 69 q 1026 142 1010 121 l 985 179 q 649 46 843 46 q 457 83 540 46 q 318 183 374 121 q 234 328 263 246 q 206 499 206 410 q 235 672 206 593 q 319 807 265 750 q 448 896 374 864 q 610 928 522 928 q 719 914 669 928 q 806 878 768 900 q 869 827 844 856 q 903 769 893 799 l 1006 769 q 952 857 985 817 q 871 926 919 897 q 757 972 822 956 q 608 989 692 989 q 388 954 488 989 q 218 855 289 919 q 108 699 147 790 q 69 496 69 608 q 100 308 69 400 q 194 145 131 217 q 358 29 258 74 q 596 -17 458 -15 l 567 -114 q 592 -110 576 -111 q 618 -108 608 -108 q 689 -125 671 -108 q 707 -158 707 -142 q 694 -196 707 -182 q 663 -217 682 -210 q 620 -226 643 -224 q 578 -229 597 -229 q 560 -229 568 -229 q 544 -226 551 -229 l 533 -264 z "},"ç":{"ha":756,"x_min":69,"x_max":714,"o":"m 342 -264 q 387 -269 363 -267 q 435 -272 411 -272 q 492 -266 464 -272 q 543 -245 521 -260 q 579 -209 565 -231 q 593 -156 593 -187 q 556 -85 593 -111 q 472 -60 518 -60 q 456 -60 464 -60 q 439 -61 447 -60 l 451 -15 q 594 19 532 -10 q 701 81 657 47 l 661 133 q 565 74 613 93 q 460 56 517 56 q 363 71 410 56 q 281 120 317 86 q 223 210 244 154 q 201 349 201 267 q 225 492 201 433 q 284 587 249 551 q 363 638 319 622 q 444 654 406 654 q 556 621 508 654 q 618 539 603 588 l 714 539 q 669 622 700 589 q 599 674 639 654 q 515 702 560 694 q 428 710 469 710 q 274 681 340 710 q 161 604 207 653 q 92 490 115 556 q 69 351 69 425 q 93 210 69 276 q 160 96 117 144 q 266 18 204 47 q 404 -15 328 -11 l 375 -114 q 401 -110 385 -111 q 426 -108 417 -108 q 497 -125 479 -108 q 515 -158 515 -142 q 503 -196 515 -182 q 471 -217 490 -210 q 428 -226 451 -224 q 386 -229 406 -229 q 368 -229 376 -229 q 353 -226 360 -229 l 342 -264 z "},"È":{"ha":836,"x_min":167,"x_max":794,"o":"m 167 972 l 167 0 l 794 0 l 794 76 l 293 76 l 293 483 l 724 483 l 724 547 l 293 547 l 293 896 l 794 896 l 794 972 l 167 972 m 438 1267 l 283 1267 l 499 1090 l 553 1090 l 438 1267 z "},"É":{"ha":836,"x_min":167,"x_max":794,"o":"m 167 972 l 167 0 l 794 0 l 794 76 l 293 76 l 293 483 l 724 483 l 724 547 l 293 547 l 293 896 l 794 896 l 794 972 l 167 972 m 399 1267 l 553 1267 l 338 1090 l 283 1090 l 399 1267 z "},"Ê":{"ha":836,"x_min":167,"x_max":794,"o":"m 167 972 l 167 0 l 794 0 l 794 76 l 293 76 l 293 483 l 724 483 l 724 547 l 293 547 l 293 896 l 794 896 l 794 972 l 167 972 m 417 1150 q 432 1141 417 1150 q 470 1118 447 1132 q 520 1088 493 1104 q 570 1056 547 1071 q 608 1032 593 1042 q 624 1022 624 1022 l 658 1065 q 643 1081 658 1065 q 605 1118 628 1096 q 555 1167 582 1140 q 505 1215 528 1193 q 467 1252 482 1238 q 451 1267 451 1267 l 382 1267 q 367 1251 382 1267 q 328 1214 351 1236 q 278 1165 306 1192 q 228 1117 251 1139 q 190 1079 206 1094 q 175 1065 175 1064 l 208 1024 q 224 1033 208 1024 q 263 1056 240 1042 q 313 1087 286 1071 q 363 1117 340 1103 q 401 1141 386 1132 q 417 1150 417 1150 z "},"Ë":{"ha":836,"x_min":167,"x_max":794,"o":"m 167 972 l 167 0 l 794 0 l 794 76 l 293 76 l 293 483 l 724 483 l 724 547 l 293 547 l 293 896 l 794 896 l 794 972 l 167 972 m 247 1192 q 269 1139 247 1161 q 322 1117 292 1117 q 375 1139 353 1117 q 397 1192 397 1161 q 375 1244 397 1222 q 322 1267 353 1267 q 269 1244 292 1267 q 247 1192 247 1222 m 439 1192 q 461 1139 439 1161 q 514 1117 483 1117 q 567 1139 544 1117 q 589 1192 589 1161 q 567 1244 589 1222 q 514 1267 544 1267 q 461 1244 483 1267 q 439 1192 439 1222 z "},"Ì":{"ha":571,"x_min":150,"x_max":419,"o":"m 222 972 l 222 0 l 349 0 l 349 972 l 222 972 m 304 1267 l 150 1267 l 365 1090 l 419 1090 l 304 1267 z "},"Í":{"ha":571,"x_min":150,"x_max":419,"o":"m 222 972 l 222 0 l 349 0 l 349 972 l 222 972 m 265 1267 l 419 1267 l 204 1090 l 150 1090 l 265 1267 z "},"Î":{"ha":571,"x_min":43,"x_max":526,"o":"m 222 972 l 222 0 l 349 0 l 349 972 l 222 972 m 285 1150 q 300 1141 285 1150 q 338 1118 315 1132 q 388 1088 361 1104 q 438 1056 415 1071 q 476 1032 461 1042 q 492 1022 492 1022 l 526 1065 q 511 1081 526 1065 q 473 1118 496 1096 q 423 1167 450 1140 q 373 1215 396 1193 q 335 1252 350 1238 q 319 1267 319 1267 l 250 1267 q 235 1251 250 1267 q 197 1214 219 1236 q 147 1165 174 1192 q 97 1117 119 1139 q 58 1079 74 1094 q 43 1065 43 1064 l 76 1024 q 92 1033 76 1024 q 131 1056 108 1042 q 181 1087 154 1071 q 231 1117 208 1103 q 269 1141 254 1132 q 285 1150 285 1150 z "},"Ï":{"ha":571,"x_min":114,"x_max":456,"o":"m 222 972 l 222 0 l 349 0 l 349 972 l 222 972 m 114 1192 q 136 1139 114 1161 q 189 1117 158 1117 q 242 1139 219 1117 q 264 1192 264 1161 q 242 1244 264 1222 q 189 1267 219 1267 q 136 1244 158 1267 q 114 1192 114 1222 m 306 1192 q 328 1139 306 1161 q 381 1117 350 1117 q 433 1139 411 1117 q 456 1192 456 1161 q 433 1244 456 1222 q 381 1267 411 1267 q 328 1244 350 1267 q 306 1192 306 1222 z "},"è":{"ha":797,"x_min":69,"x_max":728,"o":"m 728 317 l 728 346 q 701 507 728 439 q 630 619 675 575 q 525 686 585 664 q 399 708 465 708 q 268 684 328 708 q 164 613 208 660 q 94 501 119 567 q 69 351 69 435 q 91 216 69 282 q 156 98 113 150 q 267 15 200 46 q 426 -17 335 -17 q 590 15 515 -17 q 721 104 665 46 l 676 149 q 622 103 647 124 q 569 68 596 82 q 515 47 543 54 q 451 39 486 39 q 369 51 413 39 q 288 93 325 63 q 225 178 250 124 q 200 317 200 232 l 728 317 m 200 372 q 212 480 200 428 q 248 572 224 532 q 310 637 272 613 q 399 661 347 661 q 552 584 497 661 q 607 372 607 507 l 200 372 m 418 989 l 264 989 l 479 813 l 533 813 l 418 989 z "},"é":{"ha":797,"x_min":69,"x_max":728,"o":"m 728 317 l 728 346 q 701 507 728 439 q 630 619 675 575 q 525 686 585 664 q 399 708 465 708 q 268 684 328 708 q 164 613 208 660 q 94 501 119 567 q 69 351 69 435 q 91 216 69 282 q 156 98 113 150 q 267 15 200 46 q 426 -17 335 -17 q 590 15 515 -17 q 721 104 665 46 l 676 149 q 622 103 647 124 q 569 68 596 82 q 515 47 543 54 q 451 39 486 39 q 369 51 413 39 q 288 93 325 63 q 225 178 250 124 q 200 317 200 232 l 728 317 m 200 372 q 212 480 200 428 q 248 572 224 532 q 310 637 272 613 q 399 661 347 661 q 552 584 497 661 q 607 372 607 507 l 200 372 m 379 989 l 533 989 l 318 813 l 264 813 l 379 989 z "},"ê":{"ha":797,"x_min":69,"x_max":728,"o":"m 728 317 l 728 346 q 701 507 728 439 q 630 619 675 575 q 525 686 585 664 q 399 708 465 708 q 268 684 328 708 q 164 613 208 660 q 94 501 119 567 q 69 351 69 435 q 91 216 69 282 q 156 98 113 150 q 267 15 200 46 q 426 -17 335 -17 q 590 15 515 -17 q 721 104 665 46 l 676 149 q 622 103 647 124 q 569 68 596 82 q 515 47 543 54 q 451 39 486 39 q 369 51 413 39 q 288 93 325 63 q 225 178 250 124 q 200 317 200 232 l 728 317 m 200 372 q 212 480 200 428 q 248 572 224 532 q 310 637 272 613 q 399 661 347 661 q 552 584 497 661 q 607 372 607 507 l 200 372 m 397 872 q 413 863 397 872 q 451 840 428 854 q 501 810 474 826 q 551 778 528 793 q 589 754 574 764 q 604 744 604 744 l 639 788 q 624 803 639 788 q 585 840 608 818 q 535 889 563 863 q 485 938 508 915 q 447 974 463 960 q 432 989 432 989 l 363 989 q 347 974 363 989 q 309 936 332 958 q 259 888 286 914 q 209 839 232 861 q 171 801 186 817 q 156 788 156 786 l 189 746 q 205 755 189 746 q 244 778 221 764 q 294 809 267 793 q 344 840 321 825 q 382 863 367 854 q 397 872 397 872 z "},"ë":{"ha":797,"x_min":69,"x_max":728,"o":"m 728 317 l 728 346 q 701 507 728 439 q 630 619 675 575 q 525 686 585 664 q 399 708 465 708 q 268 684 328 708 q 164 613 208 660 q 94 501 119 567 q 69 351 69 435 q 91 216 69 282 q 156 98 113 150 q 267 15 200 46 q 426 -17 335 -17 q 590 15 515 -17 q 721 104 665 46 l 676 149 q 622 103 647 124 q 569 68 596 82 q 515 47 543 54 q 451 39 486 39 q 369 51 413 39 q 288 93 325 63 q 225 178 250 124 q 200 317 200 232 l 728 317 m 200 372 q 212 480 200 428 q 248 572 224 532 q 310 637 272 613 q 399 661 347 661 q 552 584 497 661 q 607 372 607 507 l 200 372 m 228 914 q 250 861 228 883 q 303 839 272 839 q 356 861 333 839 q 378 914 378 883 q 356 967 378 944 q 303 989 333 989 q 250 967 272 989 q 228 914 228 944 m 419 914 q 442 861 419 883 q 494 839 464 839 q 547 861 525 839 q 569 914 569 883 q 547 967 569 944 q 494 989 525 989 q 442 967 464 989 q 419 914 419 944 z "},"Ñ":{"ha":1181,"x_min":167,"x_max":1014,"o":"m 950 972 l 950 229 l 944 229 l 174 989 l 167 989 l 167 0 l 231 0 l 231 743 l 236 743 l 1007 -17 l 1014 -17 l 1014 972 l 950 972 m 369 1096 q 409 1140 385 1122 q 457 1157 433 1157 q 492 1151 475 1157 q 525 1139 510 1146 q 617 1104 575 1119 q 694 1089 658 1089 q 784 1122 743 1089 q 849 1228 825 1154 l 807 1247 q 768 1198 792 1211 q 721 1185 744 1185 q 688 1189 704 1185 q 660 1196 672 1193 q 558 1233 600 1215 q 483 1250 515 1250 q 391 1212 431 1250 q 332 1117 351 1174 l 369 1096 z "},"Ò":{"ha":1201,"x_min":69,"x_max":1132,"o":"m 69 486 q 99 320 69 408 q 193 157 129 232 q 356 33 257 82 q 592 -17 454 -17 q 760 6 685 -17 q 897 68 836 29 q 1001 158 957 107 q 1074 265 1046 208 q 1117 378 1103 321 q 1132 486 1132 435 q 1100 652 1132 564 q 1001 815 1068 740 q 833 940 935 890 q 592 989 731 989 q 356 940 454 989 q 193 817 257 892 q 99 654 129 743 q 69 486 69 565 m 206 486 q 235 665 206 583 q 317 804 265 746 q 440 895 369 863 q 594 928 511 928 q 749 895 676 928 q 877 804 822 863 q 964 665 932 746 q 996 486 996 583 q 964 308 996 389 q 877 168 932 226 q 749 77 822 110 q 594 44 676 44 q 440 77 511 44 q 317 168 369 110 q 235 308 265 226 q 206 486 206 389 m 619 1267 l 465 1267 l 681 1090 l 735 1090 l 619 1267 z "},"Ó":{"ha":1201,"x_min":69,"x_max":1132,"o":"m 69 486 q 99 320 69 408 q 193 157 129 232 q 356 33 257 82 q 592 -17 454 -17 q 760 6 685 -17 q 897 68 836 29 q 1001 158 957 107 q 1074 265 1046 208 q 1117 378 1103 321 q 1132 486 1132 435 q 1100 652 1132 564 q 1001 815 1068 740 q 833 940 935 890 q 592 989 731 989 q 356 940 454 989 q 193 817 257 892 q 99 654 129 743 q 69 486 69 565 m 206 486 q 235 665 206 583 q 317 804 265 746 q 440 895 369 863 q 594 928 511 928 q 749 895 676 928 q 877 804 822 863 q 964 665 932 746 q 996 486 996 583 q 964 308 996 389 q 877 168 932 226 q 749 77 822 110 q 594 44 676 44 q 440 77 511 44 q 317 168 369 110 q 235 308 265 226 q 206 486 206 389 m 581 1267 l 735 1267 l 519 1090 l 465 1090 l 581 1267 z "},"Ô":{"ha":1201,"x_min":69,"x_max":1132,"o":"m 69 486 q 99 320 69 408 q 193 157 129 232 q 356 33 257 82 q 592 -17 454 -17 q 760 6 685 -17 q 897 68 836 29 q 1001 158 957 107 q 1074 265 1046 208 q 1117 378 1103 321 q 1132 486 1132 435 q 1100 652 1132 564 q 1001 815 1068 740 q 833 940 935 890 q 592 989 731 989 q 356 940 454 989 q 193 817 257 892 q 99 654 129 743 q 69 486 69 565 m 206 486 q 235 665 206 583 q 317 804 265 746 q 440 895 369 863 q 594 928 511 928 q 749 895 676 928 q 877 804 822 863 q 964 665 932 746 q 996 486 996 583 q 964 308 996 389 q 877 168 932 226 q 749 77 822 110 q 594 44 676 44 q 440 77 511 44 q 317 168 369 110 q 235 308 265 226 q 206 486 206 389 m 600 1150 q 615 1141 600 1150 q 653 1118 631 1132 q 703 1088 676 1104 q 753 1056 731 1071 q 792 1032 776 1042 q 807 1022 807 1022 l 842 1065 q 826 1081 842 1065 q 788 1118 811 1096 q 738 1167 765 1140 q 688 1215 711 1193 q 650 1252 665 1238 q 635 1267 635 1267 l 565 1267 q 550 1251 565 1267 q 512 1214 535 1236 q 462 1165 489 1192 q 412 1117 435 1139 q 374 1079 389 1094 q 358 1065 358 1064 l 392 1024 q 408 1033 392 1024 q 447 1056 424 1042 q 497 1087 469 1071 q 547 1117 524 1103 q 585 1141 569 1132 q 600 1150 600 1150 z "},"ñ":{"ha":807,"x_min":111,"x_max":692,"o":"m 692 0 l 692 450 q 688 519 692 475 q 660 605 683 563 q 588 678 638 647 q 446 710 538 710 q 356 694 406 711 q 257 628 306 676 l 235 606 l 229 606 l 229 694 l 111 694 l 111 0 l 229 0 l 229 429 q 244 522 229 483 q 286 588 260 561 q 347 626 313 614 q 417 639 381 639 q 507 616 475 639 q 553 563 539 593 q 571 501 568 532 q 574 457 574 471 l 574 0 l 692 0 m 182 818 q 222 862 197 844 q 269 879 246 879 q 305 874 288 879 q 338 861 322 868 q 429 826 388 842 q 507 811 471 811 q 597 844 556 811 q 661 950 638 876 l 619 969 q 581 920 604 933 q 533 907 557 907 q 501 911 517 907 q 472 918 485 915 q 370 955 413 938 q 296 972 328 972 q 203 934 243 972 q 144 839 164 896 l 182 818 z "},"ò":{"ha":858,"x_min":69,"x_max":789,"o":"m 789 346 q 764 208 789 274 q 692 92 739 142 q 580 13 646 42 q 432 -17 514 -17 q 281 13 349 -17 q 167 93 214 43 q 95 209 121 143 q 69 346 69 275 q 95 484 69 418 q 167 600 121 550 q 281 680 214 650 q 432 710 349 710 q 580 680 514 710 q 692 600 646 650 q 764 484 739 550 q 789 346 789 418 m 657 346 q 636 503 657 443 q 582 597 615 564 q 508 642 549 631 q 431 654 468 654 q 353 642 393 654 q 278 597 313 631 q 223 503 244 564 q 201 346 201 443 q 223 190 201 250 q 278 96 244 129 q 353 51 313 63 q 431 39 393 39 q 508 51 468 39 q 582 96 549 63 q 636 190 615 129 q 657 346 657 250 m 449 989 l 294 989 l 510 813 l 564 813 l 449 989 z "},"ó":{"ha":858,"x_min":69,"x_max":789,"o":"m 789 346 q 764 208 789 274 q 692 92 739 142 q 580 13 646 42 q 432 -17 514 -17 q 281 13 349 -17 q 167 93 214 43 q 95 209 121 143 q 69 346 69 275 q 95 484 69 418 q 167 600 121 550 q 281 680 214 650 q 432 710 349 710 q 580 680 514 710 q 692 600 646 650 q 764 484 739 550 q 789 346 789 418 m 657 346 q 636 503 657 443 q 582 597 615 564 q 508 642 549 631 q 431 654 468 654 q 353 642 393 654 q 278 597 313 631 q 223 503 244 564 q 201 346 201 443 q 223 190 201 250 q 278 96 244 129 q 353 51 313 63 q 431 39 393 39 q 508 51 468 39 q 582 96 549 63 q 636 190 615 129 q 657 346 657 250 m 410 989 l 564 989 l 349 813 l 294 813 l 410 989 z "},"ô":{"ha":858,"x_min":69,"x_max":789,"o":"m 789 346 q 764 208 789 274 q 692 92 739 142 q 580 13 646 42 q 432 -17 514 -17 q 281 13 349 -17 q 167 93 214 43 q 95 209 121 143 q 69 346 69 275 q 95 484 69 418 q 167 600 121 550 q 281 680 214 650 q 432 710 349 710 q 580 680 514 710 q 692 600 646 650 q 764 484 739 550 q 789 346 789 418 m 657 346 q 636 503 657 443 q 582 597 615 564 q 508 642 549 631 q 431 654 468 654 q 353 642 393 654 q 278 597 313 631 q 223 503 244 564 q 201 346 201 443 q 223 190 201 250 q 278 96 244 129 q 353 51 313 63 q 431 39 393 39 q 508 51 468 39 q 582 96 549 63 q 636 190 615 129 q 657 346 657 250 m 428 872 q 443 863 428 872 q 481 840 458 854 q 531 810 504 826 q 581 778 558 793 q 619 754 604 764 q 635 744 635 744 l 669 788 q 654 803 669 788 q 616 840 639 818 q 566 889 593 863 q 516 938 539 915 q 478 974 493 960 q 463 989 463 989 l 393 989 q 378 974 393 989 q 340 936 363 958 q 290 888 317 914 q 240 839 263 861 q 201 801 217 817 q 186 788 186 786 l 219 746 q 235 755 219 746 q 274 778 251 764 q 324 809 297 793 q 374 840 351 825 q 413 863 397 854 q 428 872 428 872 z "},"õ":{"ha":858,"x_min":69,"x_max":789,"o":"m 789 346 q 764 208 789 274 q 692 92 739 142 q 580 13 646 42 q 432 -17 514 -17 q 281 13 349 -17 q 167 93 214 43 q 95 209 121 143 q 69 346 69 275 q 95 484 69 418 q 167 600 121 550 q 281 680 214 650 q 432 710 349 710 q 580 680 514 710 q 692 600 646 650 q 764 484 739 550 q 789 346 789 418 m 657 346 q 636 503 657 443 q 582 597 615 564 q 508 642 549 631 q 431 654 468 654 q 353 642 393 654 q 278 597 313 631 q 223 503 244 564 q 201 346 201 443 q 223 190 201 250 q 278 96 244 129 q 353 51 313 63 q 431 39 393 39 q 508 51 468 39 q 582 96 549 63 q 636 190 615 129 q 657 346 657 250 m 208 818 q 248 862 224 844 q 296 879 272 879 q 331 874 314 879 q 364 861 349 868 q 456 826 414 842 q 533 811 497 811 q 623 844 582 811 q 688 950 664 876 l 646 969 q 607 920 631 933 q 560 907 583 907 q 527 911 543 907 q 499 918 511 915 q 397 955 439 938 q 322 972 354 972 q 230 934 269 972 q 171 839 190 896 l 208 818 z "},"Õ":{"ha":1201,"x_min":69,"x_max":1132,"o":"m 69 486 q 99 320 69 408 q 193 157 129 232 q 356 33 257 82 q 592 -17 454 -17 q 760 6 685 -17 q 897 68 836 29 q 1001 158 957 107 q 1074 265 1046 208 q 1117 378 1103 321 q 1132 486 1132 435 q 1100 652 1132 564 q 1001 815 1068 740 q 833 940 935 890 q 592 989 731 989 q 356 940 454 989 q 193 817 257 892 q 99 654 129 743 q 69 486 69 565 m 206 486 q 235 665 206 583 q 317 804 265 746 q 440 895 369 863 q 594 928 511 928 q 749 895 676 928 q 877 804 822 863 q 964 665 932 746 q 996 486 996 583 q 964 308 996 389 q 877 168 932 226 q 749 77 822 110 q 594 44 676 44 q 440 77 511 44 q 317 168 369 110 q 235 308 265 226 q 206 486 206 389 m 379 1096 q 419 1140 394 1122 q 467 1157 443 1157 q 502 1151 485 1157 q 535 1139 519 1146 q 626 1104 585 1119 q 704 1089 668 1089 q 794 1122 753 1089 q 858 1228 835 1154 l 817 1247 q 778 1198 801 1211 q 731 1185 754 1185 q 698 1189 714 1185 q 669 1196 682 1193 q 567 1233 610 1215 q 493 1250 525 1250 q 401 1212 440 1250 q 342 1117 361 1174 l 379 1096 z "},"Ö":{"ha":1201,"x_min":69,"x_max":1132,"o":"m 69 486 q 99 320 69 408 q 193 157 129 232 q 356 33 257 82 q 592 -17 454 -17 q 760 6 685 -17 q 897 68 836 29 q 1001 158 957 107 q 1074 265 1046 208 q 1117 378 1103 321 q 1132 486 1132 435 q 1100 652 1132 564 q 1001 815 1068 740 q 833 940 935 890 q 592 989 731 989 q 356 940 454 989 q 193 817 257 892 q 99 654 129 743 q 69 486 69 565 m 206 486 q 235 665 206 583 q 317 804 265 746 q 440 895 369 863 q 594 928 511 928 q 749 895 676 928 q 877 804 822 863 q 964 665 932 746 q 996 486 996 583 q 964 308 996 389 q 877 168 932 226 q 749 77 822 110 q 594 44 676 44 q 440 77 511 44 q 317 168 369 110 q 235 308 265 226 q 206 486 206 389 m 429 1192 q 451 1139 429 1161 q 504 1117 474 1117 q 557 1139 535 1117 q 579 1192 579 1161 q 557 1244 579 1222 q 504 1267 535 1267 q 451 1244 474 1267 q 429 1192 429 1222 m 621 1192 q 643 1139 621 1161 q 696 1117 665 1117 q 749 1139 726 1117 q 771 1192 771 1161 q 749 1244 771 1222 q 696 1267 726 1267 q 643 1244 665 1267 q 621 1192 621 1222 z "},"ö":{"ha":858,"x_min":69,"x_max":789,"o":"m 789 346 q 764 208 789 274 q 692 92 739 142 q 580 13 646 42 q 432 -17 514 -17 q 281 13 349 -17 q 167 93 214 43 q 95 209 121 143 q 69 346 69 275 q 95 484 69 418 q 167 600 121 550 q 281 680 214 650 q 432 710 349 710 q 580 680 514 710 q 692 600 646 650 q 764 484 739 550 q 789 346 789 418 m 657 346 q 636 503 657 443 q 582 597 615 564 q 508 642 549 631 q 431 654 468 654 q 353 642 393 654 q 278 597 313 631 q 223 503 244 564 q 201 346 201 443 q 223 190 201 250 q 278 96 244 129 q 353 51 313 63 q 431 39 393 39 q 508 51 468 39 q 582 96 549 63 q 636 190 615 129 q 657 346 657 250 m 258 914 q 281 861 258 883 q 333 839 303 839 q 386 861 364 839 q 408 914 408 883 q 386 967 408 944 q 333 989 364 989 q 281 967 303 989 q 258 914 258 944 m 450 914 q 472 861 450 883 q 525 839 494 839 q 578 861 556 839 q 600 914 600 883 q 578 967 600 944 q 525 989 556 989 q 472 967 494 989 q 450 914 450 944 z "},"Ø":{"ha":1217,"x_min":83,"x_max":1133,"o":"m 826 989 l 801 942 q 606 972 713 972 q 369 925 468 972 q 207 805 271 878 q 113 644 143 732 q 83 478 83 557 q 98 364 83 424 q 142 247 113 304 q 218 140 172 190 q 328 53 264 89 l 292 -17 l 388 -17 l 406 17 q 499 -8 450 1 q 606 -17 547 -17 q 774 6 699 -17 q 907 66 849 28 q 1008 153 965 104 q 1079 258 1051 203 q 1120 369 1107 313 q 1133 478 1133 426 q 1119 592 1133 532 q 1073 710 1104 653 q 994 819 1042 768 q 881 906 946 869 l 925 989 l 826 989 m 997 478 q 967 301 997 381 q 885 163 938 221 q 761 74 832 106 q 608 43 690 43 q 440 81 515 43 l 840 832 q 955 685 913 775 q 997 478 997 594 m 219 478 q 249 655 219 575 q 331 792 279 735 q 454 880 383 849 q 608 911 525 911 q 767 876 690 911 l 368 128 q 259 275 299 186 q 219 478 219 364 z "},"ø":{"ha":886,"x_min":83,"x_max":803,"o":"m 590 711 l 576 685 q 511 703 544 696 q 440 710 478 710 q 292 680 358 710 q 180 600 226 650 q 108 484 133 550 q 83 346 83 418 q 120 180 83 257 q 224 53 157 103 l 185 -17 l 275 -17 l 292 13 q 361 -9 324 -1 q 440 -17 399 -17 q 591 13 524 -17 q 705 93 658 43 q 777 209 751 143 q 803 346 803 275 q 763 517 803 438 q 647 647 722 597 l 683 711 l 590 711 m 671 346 q 649 189 671 250 q 594 93 628 128 q 519 45 560 58 q 442 32 479 32 q 380 39 411 32 q 321 65 349 46 l 610 581 q 654 488 638 544 q 671 346 671 431 m 215 346 q 236 504 215 443 q 290 600 257 565 q 364 648 324 635 q 442 661 404 661 q 494 656 467 661 q 547 635 521 650 l 264 126 q 228 216 242 163 q 215 346 215 269 z "},"Ù":{"ha":1000,"x_min":111,"x_max":889,"o":"m 111 972 l 111 375 q 122 249 111 318 q 175 122 133 181 q 299 23 217 63 q 522 -17 381 -17 q 680 11 611 -17 q 795 88 749 39 q 865 201 842 136 q 889 339 889 265 l 889 972 l 828 972 l 828 385 q 826 323 828 354 q 818 260 825 292 q 797 199 811 229 q 754 138 782 168 q 642 64 704 83 q 511 44 579 44 q 408 63 453 44 q 322 117 363 81 q 274 172 290 144 q 249 227 257 200 q 239 282 240 254 q 238 338 238 310 l 238 972 l 111 972 m 519 1267 l 365 1267 l 581 1090 l 635 1090 l 519 1267 z "},"Ú":{"ha":1000,"x_min":111,"x_max":889,"o":"m 111 972 l 111 375 q 122 249 111 318 q 175 122 133 181 q 299 23 217 63 q 522 -17 381 -17 q 680 11 611 -17 q 795 88 749 39 q 865 201 842 136 q 889 339 889 265 l 889 972 l 828 972 l 828 385 q 826 323 828 354 q 818 260 825 292 q 797 199 811 229 q 754 138 782 168 q 642 64 704 83 q 511 44 579 44 q 408 63 453 44 q 322 117 363 81 q 274 172 290 144 q 249 227 257 200 q 239 282 240 254 q 238 338 238 310 l 238 972 l 111 972 m 481 1267 l 635 1267 l 419 1090 l 365 1090 l 481 1267 z "},"Û":{"ha":1000,"x_min":111,"x_max":889,"o":"m 111 972 l 111 375 q 122 249 111 318 q 175 122 133 181 q 299 23 217 63 q 522 -17 381 -17 q 680 11 611 -17 q 795 88 749 39 q 865 201 842 136 q 889 339 889 265 l 889 972 l 828 972 l 828 385 q 826 323 828 354 q 818 260 825 292 q 797 199 811 229 q 754 138 782 168 q 642 64 704 83 q 511 44 579 44 q 408 63 453 44 q 322 117 363 81 q 274 172 290 144 q 249 227 257 200 q 239 282 240 254 q 238 338 238 310 l 238 972 l 111 972 m 499 1150 q 514 1141 499 1150 q 552 1118 529 1132 q 602 1088 575 1104 q 652 1056 629 1071 q 690 1032 675 1042 q 706 1022 706 1022 l 740 1065 q 725 1081 740 1065 q 687 1118 710 1096 q 637 1167 664 1140 q 587 1215 610 1193 q 549 1252 564 1238 q 533 1267 533 1267 l 464 1267 q 449 1251 464 1267 q 410 1214 433 1236 q 360 1165 388 1192 q 310 1117 333 1139 q 272 1079 288 1094 q 257 1065 257 1064 l 290 1024 q 306 1033 290 1024 q 345 1056 322 1042 q 395 1087 368 1071 q 445 1117 422 1103 q 483 1141 468 1132 q 499 1150 499 1150 z "},"Ü":{"ha":1000,"x_min":111,"x_max":889,"o":"m 111 972 l 111 375 q 122 249 111 318 q 175 122 133 181 q 299 23 217 63 q 522 -17 381 -17 q 680 11 611 -17 q 795 88 749 39 q 865 201 842 136 q 889 339 889 265 l 889 972 l 828 972 l 828 385 q 826 323 828 354 q 818 260 825 292 q 797 199 811 229 q 754 138 782 168 q 642 64 704 83 q 511 44 579 44 q 408 63 453 44 q 322 117 363 81 q 274 172 290 144 q 249 227 257 200 q 239 282 240 254 q 238 338 238 310 l 238 972 l 111 972 m 329 1192 q 351 1139 329 1161 q 404 1117 374 1117 q 457 1139 435 1117 q 479 1192 479 1161 q 457 1244 479 1222 q 404 1267 435 1267 q 351 1244 374 1267 q 329 1192 329 1222 m 521 1192 q 543 1139 521 1161 q 596 1117 565 1117 q 649 1139 626 1117 q 671 1192 671 1161 q 649 1244 671 1222 q 596 1267 626 1267 q 543 1244 565 1267 q 521 1192 521 1222 z "},"Ý":{"ha":888,"x_min":42,"x_max":846,"o":"m 42 972 l 378 368 l 378 0 l 504 0 l 504 381 l 846 972 l 771 972 l 474 460 l 468 460 l 185 972 l 42 972 m 424 1267 l 578 1267 l 363 1090 l 308 1090 l 424 1267 z "},"ù":{"ha":807,"x_min":111,"x_max":692,"o":"m 111 694 l 111 243 q 116 174 111 218 q 144 88 121 131 q 219 15 168 46 q 361 -17 269 -17 q 449 -1 401 -18 q 546 65 497 17 l 568 88 l 574 88 l 574 0 l 692 0 l 692 694 l 574 694 l 574 264 q 558 171 574 210 q 518 106 543 132 q 460 68 493 81 q 390 56 426 56 q 299 78 332 56 q 251 132 267 101 q 232 192 235 163 q 229 236 229 222 l 229 694 l 111 694 m 422 989 l 268 989 l 483 813 l 538 813 l 422 989 z "},"ú":{"ha":807,"x_min":111,"x_max":692,"o":"m 111 694 l 111 243 q 116 174 111 218 q 144 88 121 131 q 219 15 168 46 q 361 -17 269 -17 q 449 -1 401 -18 q 546 65 497 17 l 568 88 l 574 88 l 574 0 l 692 0 l 692 694 l 574 694 l 574 264 q 558 171 574 210 q 518 106 543 132 q 460 68 493 81 q 390 56 426 56 q 299 78 332 56 q 251 132 267 101 q 232 192 235 163 q 229 236 229 222 l 229 694 l 111 694 m 383 989 l 538 989 l 322 813 l 268 813 l 383 989 z "},"û":{"ha":807,"x_min":111,"x_max":692,"o":"m 111 694 l 111 243 q 116 174 111 218 q 144 88 121 131 q 219 15 168 46 q 361 -17 269 -17 q 449 -1 401 -18 q 546 65 497 17 l 568 88 l 574 88 l 574 0 l 692 0 l 692 694 l 574 694 l 574 264 q 558 171 574 210 q 518 106 543 132 q 460 68 493 81 q 390 56 426 56 q 299 78 332 56 q 251 132 267 101 q 232 192 235 163 q 229 236 229 222 l 229 694 l 111 694 m 403 872 q 418 863 403 872 q 456 840 433 854 q 506 810 479 826 q 556 778 533 793 q 594 754 579 764 q 610 744 610 744 l 644 788 q 629 803 644 788 q 591 840 614 818 q 541 889 568 863 q 491 938 514 915 q 453 974 468 960 q 438 989 438 989 l 368 989 q 353 974 368 989 q 315 936 338 958 q 265 888 292 914 q 215 839 238 861 q 176 801 192 817 q 161 788 161 786 l 194 746 q 210 755 194 746 q 249 778 226 764 q 299 809 272 793 q 349 840 326 825 q 388 863 372 854 q 403 872 403 872 z "},"ü":{"ha":807,"x_min":111,"x_max":692,"o":"m 111 694 l 111 243 q 116 174 111 218 q 144 88 121 131 q 219 15 168 46 q 361 -17 269 -17 q 449 -1 401 -18 q 546 65 497 17 l 568 88 l 574 88 l 574 0 l 692 0 l 692 694 l 574 694 l 574 264 q 558 171 574 210 q 518 106 543 132 q 460 68 493 81 q 390 56 426 56 q 299 78 332 56 q 251 132 267 101 q 232 192 235 163 q 229 236 229 222 l 229 694 l 111 694 m 232 914 q 254 861 232 883 q 307 839 276 839 q 360 861 338 839 q 382 914 382 883 q 360 967 382 944 q 307 989 338 989 q 254 967 276 989 q 232 914 232 944 m 424 914 q 446 861 424 883 q 499 839 468 839 q 551 861 529 839 q 574 914 574 883 q 551 967 574 944 q 499 989 529 989 q 446 967 468 989 q 424 914 424 944 z "},"ý":{"ha":700,"x_min":14,"x_max":672,"o":"m 381 163 l 140 694 l 14 694 l 325 8 l 251 -172 q 219 -224 239 -204 q 172 -243 199 -243 q 124 -228 147 -243 q 89 -186 101 -214 l 28 -301 q 86 -336 54 -325 q 146 -347 118 -347 q 214 -328 185 -347 q 265 -277 243 -308 q 304 -208 288 -246 q 336 -132 321 -169 l 672 694 l 604 694 l 386 163 l 381 163 m 331 989 l 485 989 l 269 813 l 215 813 l 331 989 z "},"ÿ":{"ha":700,"x_min":14,"x_max":672,"o":"m 381 163 l 140 694 l 14 694 l 325 8 l 251 -172 q 219 -224 239 -204 q 172 -243 199 -243 q 124 -228 147 -243 q 89 -186 101 -214 l 28 -301 q 86 -336 54 -325 q 146 -347 118 -347 q 214 -328 185 -347 q 265 -277 243 -308 q 304 -208 288 -246 q 336 -132 321 -169 l 672 694 l 604 694 l 386 163 l 381 163 m 179 914 q 201 861 179 883 q 254 839 224 839 q 307 861 285 839 q 329 914 329 883 q 307 967 329 944 q 254 989 285 989 q 201 967 224 989 q 179 914 179 944 m 371 914 q 393 861 371 883 q 446 839 415 839 q 499 861 476 839 q 521 914 521 883 q 499 967 521 944 q 446 989 476 989 q 393 967 415 989 q 371 914 371 944 z "},"ì":{"ha":428,"x_min":79,"x_max":349,"o":"m 156 694 l 156 0 l 274 0 l 274 694 l 156 694 m 233 989 l 79 989 l 294 813 l 349 813 l 233 989 z "},"í":{"ha":428,"x_min":79,"x_max":349,"o":"m 156 694 l 156 0 l 274 0 l 274 694 l 156 694 m 194 989 l 349 989 l 133 813 l 79 813 l 194 989 z "},"î":{"ha":428,"x_min":-28,"x_max":456,"o":"m 156 694 l 156 0 l 274 0 l 274 694 l 156 694 m 214 872 q 229 863 214 872 q 267 840 244 854 q 317 810 290 826 q 367 778 344 793 q 406 754 390 764 q 421 744 421 744 l 456 788 q 440 803 456 788 q 402 840 425 818 q 352 889 379 863 q 302 938 325 915 q 264 974 279 960 q 249 989 249 989 l 179 989 q 164 974 179 989 q 126 936 149 958 q 76 888 103 914 q 26 839 49 861 q -12 801 3 817 q -28 788 -28 786 l 6 746 q 22 755 6 746 q 60 778 38 764 q 110 809 83 793 q 160 840 138 825 q 199 863 183 854 q 214 872 214 872 z "},"ï":{"ha":428,"x_min":43,"x_max":385,"o":"m 156 694 l 156 0 l 274 0 l 274 694 l 156 694 m 43 914 q 65 861 43 883 q 118 839 88 839 q 171 861 149 839 q 193 914 193 883 q 171 967 193 944 q 118 989 149 989 q 65 967 88 989 q 43 914 43 944 m 235 914 q 257 861 235 883 q 310 839 279 839 q 363 861 340 839 q 385 914 385 883 q 363 967 385 944 q 310 989 340 989 q 257 967 279 989 q 235 914 235 944 z "},"Ŕ":{"ha":997,"x_min":167,"x_max":956,"o":"m 167 972 l 167 0 l 293 0 l 293 429 l 354 429 q 419 422 393 429 q 465 399 444 415 q 504 356 486 382 q 547 290 522 329 l 657 128 q 698 69 678 96 q 742 24 718 43 q 795 -6 765 6 q 867 -17 825 -17 q 917 -14 897 -17 q 956 0 936 -11 l 956 51 q 942 49 949 50 q 928 49 935 49 q 876 57 899 49 q 835 81 854 65 q 797 120 815 97 q 760 172 779 143 q 669 308 701 257 q 619 386 638 358 q 588 426 600 414 q 560 447 576 439 l 546 454 l 546 460 q 660 489 613 464 q 739 551 708 514 q 783 633 769 589 q 797 718 797 676 q 783 800 797 756 q 733 883 768 844 q 636 947 697 921 q 482 972 575 972 l 167 972 m 293 911 l 433 911 q 528 896 486 911 q 601 853 571 881 q 648 789 632 826 q 664 707 664 751 q 649 631 664 669 q 606 562 635 593 q 534 511 576 531 q 436 492 492 492 l 293 492 l 293 911 m 479 1267 l 633 1267 l 418 1090 l 364 1090 l 479 1267 z "},"ŕ":{"ha":531,"x_min":111,"x_max":517,"o":"m 111 694 l 111 0 l 229 0 l 229 419 q 242 516 229 476 q 276 581 256 556 q 322 617 297 606 q 371 628 347 628 q 430 607 403 628 q 469 568 457 586 l 517 654 q 487 682 504 671 q 452 699 469 693 q 420 708 435 706 q 399 710 406 710 q 301 678 340 710 q 238 583 263 646 l 229 583 l 229 694 l 111 694 m 246 989 l 400 989 l 185 813 l 131 813 l 246 989 z "},"Ă":{"ha":1017,"x_min":42,"x_max":975,"o":"m 707 286 l 840 0 l 975 0 l 522 972 l 453 972 l 42 0 l 106 0 l 228 286 l 707 286 m 678 349 l 254 349 l 454 817 l 460 817 l 678 349 m 304 1267 q 319 1193 304 1228 q 363 1133 335 1158 q 427 1092 390 1107 q 508 1078 464 1078 q 589 1092 551 1078 q 654 1133 626 1107 q 697 1193 682 1158 q 713 1267 713 1228 l 654 1267 q 609 1166 651 1204 q 508 1128 567 1128 q 409 1166 451 1128 q 363 1267 367 1204 l 304 1267 z "},"ă":{"ha":750,"x_min":56,"x_max":639,"o":"m 367 710 q 524 681 468 710 q 605 607 579 653 q 635 501 631 561 q 639 379 639 442 l 639 0 l 526 0 l 526 68 q 424 6 486 29 q 299 -17 361 -17 q 193 4 239 -17 q 117 58 147 25 q 71 133 86 92 q 56 218 56 175 q 72 307 56 263 q 122 387 89 351 q 204 444 156 422 q 315 467 253 467 q 434 442 378 467 q 526 374 490 418 l 526 433 q 492 603 526 547 q 368 658 458 658 q 300 649 329 658 q 248 622 271 639 q 206 578 225 604 q 167 521 186 553 l 94 593 q 135 635 114 614 q 188 672 157 656 q 263 699 219 689 q 367 710 306 710 m 526 275 q 506 314 519 292 q 472 357 493 336 q 422 392 451 378 q 353 407 393 407 q 279 391 313 407 q 223 349 246 375 q 188 289 200 324 q 175 217 175 254 q 191 140 175 172 q 232 84 207 107 q 288 50 257 61 q 346 39 318 39 q 399 49 372 39 q 451 76 426 58 q 494 117 475 93 q 526 168 514 140 l 526 275 m 171 989 q 186 915 171 950 q 229 855 201 881 q 294 815 257 829 q 375 800 331 800 q 456 815 418 800 q 521 855 493 829 q 564 915 549 881 q 579 989 579 950 l 521 989 q 476 888 518 926 q 375 850 433 850 q 276 888 318 850 q 229 989 233 926 l 171 989 z "},"Ĺ":{"ha":836,"x_min":167,"x_max":794,"o":"m 167 0 l 167 972 l 293 972 l 293 76 l 794 76 l 794 0 l 167 0 m 288 1267 l 442 1267 l 226 1090 l 172 1090 l 288 1267 z "},"Ć":{"ha":1054,"x_min":69,"x_max":1026,"o":"m 985 179 q 649 46 843 46 q 457 83 540 46 q 318 183 374 121 q 234 328 263 246 q 206 499 206 410 q 235 672 206 593 q 319 807 265 750 q 448 896 374 864 q 610 928 522 928 q 719 914 669 928 q 806 878 768 900 q 869 827 844 856 q 903 769 893 799 l 1006 769 q 952 857 985 817 q 871 926 919 897 q 757 972 822 956 q 608 989 692 989 q 388 954 488 989 q 218 855 289 919 q 108 699 147 790 q 69 496 69 608 q 101 306 69 399 q 197 142 132 214 q 364 27 263 71 q 606 -17 465 -17 q 765 0 694 -17 q 887 41 835 17 q 974 93 939 65 q 1026 142 1008 121 l 985 179 m 507 1267 l 661 1267 l 446 1090 l 392 1090 l 507 1267 z "},"ĺ":{"ha":396,"x_min":126,"x_max":396,"o":"m 257 972 l 139 972 l 139 0 l 257 0 l 257 972 m 242 1257 l 396 1257 l 181 1081 l 126 1081 l 242 1257 z "},"ć":{"ha":756,"x_min":69,"x_max":714,"o":"m 460 56 q 363 71 410 56 q 281 120 317 86 q 223 210 244 154 q 201 349 201 267 q 225 492 201 433 q 284 587 249 551 q 363 638 319 622 q 444 654 406 654 q 556 621 508 654 q 618 539 603 588 l 714 539 q 669 622 700 589 q 599 674 639 654 q 515 702 560 694 q 428 710 469 710 q 274 681 340 710 q 161 604 207 653 q 92 490 115 556 q 69 351 69 425 q 94 206 69 274 q 166 90 119 139 q 278 12 213 40 q 425 -17 343 -17 q 585 14 517 -17 q 701 81 654 44 l 661 133 q 565 74 613 93 q 460 56 517 56 m 358 989 l 513 989 l 297 813 l 243 813 l 358 989 z "},"Č":{"ha":1054,"x_min":69,"x_max":1026,"o":"m 985 179 q 649 46 843 46 q 457 83 540 46 q 318 183 374 121 q 234 328 263 246 q 206 499 206 410 q 235 672 206 593 q 319 807 265 750 q 448 896 374 864 q 610 928 522 928 q 719 914 669 928 q 806 878 768 900 q 869 827 844 856 q 903 769 893 799 l 1006 769 q 952 857 985 817 q 871 926 919 897 q 757 972 822 956 q 608 989 692 989 q 388 954 488 989 q 218 855 289 919 q 108 699 147 790 q 69 496 69 608 q 101 306 69 399 q 197 142 132 214 q 364 27 263 71 q 606 -17 465 -17 q 765 0 694 -17 q 887 41 835 17 q 974 93 939 65 q 1026 142 1008 121 l 985 179 m 526 1140 q 542 1149 526 1139 q 580 1172 557 1158 q 630 1203 603 1186 q 680 1234 657 1219 q 718 1258 703 1249 q 733 1268 733 1268 l 768 1225 q 753 1210 768 1225 q 715 1172 738 1194 q 665 1124 692 1150 q 615 1075 638 1097 q 576 1038 592 1053 q 561 1024 561 1024 l 492 1024 q 476 1039 492 1024 q 438 1076 461 1054 q 388 1125 415 1099 q 338 1174 361 1151 q 300 1210 315 1196 q 285 1225 285 1225 l 318 1267 q 334 1258 318 1267 q 373 1234 350 1249 q 423 1203 396 1219 q 473 1173 450 1188 q 511 1149 496 1158 q 526 1140 526 1140 z "},"č":{"ha":756,"x_min":69,"x_max":714,"o":"m 460 56 q 363 71 410 56 q 281 120 317 86 q 223 210 244 154 q 201 349 201 267 q 225 492 201 433 q 284 587 249 551 q 363 638 319 622 q 444 654 406 654 q 556 621 508 654 q 618 539 603 588 l 714 539 q 669 622 700 589 q 599 674 639 654 q 515 702 560 694 q 428 710 469 710 q 274 681 340 710 q 161 604 207 653 q 92 490 115 556 q 69 351 69 425 q 94 206 69 274 q 166 90 119 139 q 278 12 213 40 q 425 -17 343 -17 q 585 14 517 -17 q 701 81 654 44 l 661 133 q 565 74 613 93 q 460 56 517 56 m 376 863 q 392 871 376 861 q 430 894 407 881 q 480 925 453 908 q 530 956 507 942 q 568 981 553 971 q 583 990 583 990 l 618 947 q 603 932 618 947 q 565 894 588 917 q 515 846 542 872 q 465 797 488 819 q 426 760 442 775 q 411 746 411 746 l 342 746 q 326 761 342 746 q 288 799 311 776 q 238 847 265 821 q 188 896 211 874 q 150 933 165 918 q 135 947 135 947 l 168 989 q 184 980 168 989 q 223 956 200 971 q 273 926 246 942 q 323 895 300 910 q 361 872 346 881 q 376 863 376 863 z "},"Ę":{"ha":836,"x_min":167,"x_max":794,"o":"m 728 0 l 664 -46 q 595 -107 626 -74 q 564 -181 564 -140 q 597 -246 564 -228 q 667 -264 629 -264 q 730 -253 699 -264 q 783 -225 761 -242 l 768 -187 q 733 -203 754 -194 q 693 -211 713 -211 q 656 -193 664 -211 q 649 -167 649 -175 q 661 -121 649 -143 q 694 -77 674 -99 q 742 -36 715 -56 q 794 0 768 -17 l 794 76 l 293 76 l 293 483 l 724 483 l 724 547 l 293 547 l 293 896 l 794 896 l 794 972 l 167 972 l 167 0 l 728 0 z "},"ę":{"ha":797,"x_min":69,"x_max":728,"o":"m 728 317 l 728 346 q 701 507 728 439 q 630 619 675 575 q 525 686 585 664 q 399 708 465 708 q 268 684 328 708 q 164 613 208 660 q 94 501 119 567 q 69 351 69 435 q 90 217 69 282 q 154 100 111 151 q 263 17 197 49 q 417 -17 328 -15 l 376 -46 q 308 -107 339 -74 q 276 -181 276 -140 q 309 -246 276 -228 q 379 -264 342 -264 q 442 -253 411 -264 q 496 -225 474 -242 l 481 -187 q 446 -203 467 -194 q 406 -211 425 -211 q 369 -193 376 -211 q 361 -167 361 -175 q 372 -125 361 -146 q 399 -85 382 -104 q 440 -47 417 -65 q 486 -12 463 -29 q 721 104 628 7 l 676 149 q 622 103 647 124 q 569 68 596 82 q 515 47 543 54 q 451 39 486 39 q 369 51 413 39 q 288 93 325 63 q 225 178 250 124 q 200 317 200 232 l 728 317 m 200 372 q 212 480 200 428 q 248 572 224 532 q 310 637 272 613 q 399 661 347 661 q 552 584 497 661 q 607 372 607 507 l 200 372 z "},"Ě":{"ha":836,"x_min":167,"x_max":794,"o":"m 167 972 l 167 0 l 794 0 l 794 76 l 293 76 l 293 483 l 724 483 l 724 547 l 293 547 l 293 896 l 794 896 l 794 972 l 167 972 m 417 1140 q 432 1149 417 1139 q 470 1172 447 1158 q 520 1203 493 1186 q 570 1234 547 1219 q 608 1258 593 1249 q 624 1268 624 1268 l 658 1225 q 643 1210 658 1225 q 605 1172 628 1194 q 555 1124 582 1150 q 505 1075 528 1097 q 467 1038 482 1053 q 451 1024 451 1024 l 382 1024 q 367 1039 382 1024 q 328 1076 351 1054 q 278 1125 306 1099 q 228 1174 251 1151 q 190 1210 206 1196 q 175 1225 175 1225 l 208 1267 q 224 1258 208 1267 q 263 1234 240 1249 q 313 1203 286 1219 q 363 1173 340 1188 q 401 1149 386 1158 q 417 1140 417 1140 z "},"ě":{"ha":797,"x_min":69,"x_max":728,"o":"m 728 317 l 728 346 q 701 507 728 439 q 630 619 675 575 q 525 686 585 664 q 399 708 465 708 q 268 684 328 708 q 164 613 208 660 q 94 501 119 567 q 69 351 69 435 q 91 216 69 282 q 156 98 113 150 q 267 15 200 46 q 426 -17 335 -17 q 590 15 515 -17 q 721 104 665 46 l 676 149 q 622 103 647 124 q 569 68 596 82 q 515 47 543 54 q 451 39 486 39 q 369 51 413 39 q 288 93 325 63 q 225 178 250 124 q 200 317 200 232 l 728 317 m 200 372 q 212 480 200 428 q 248 572 224 532 q 310 637 272 613 q 399 661 347 661 q 552 584 497 661 q 607 372 607 507 l 200 372 m 397 863 q 413 871 397 861 q 451 894 428 881 q 501 925 474 908 q 551 956 528 942 q 589 981 574 971 q 604 990 604 990 l 639 947 q 624 932 639 947 q 585 894 608 917 q 535 846 563 872 q 485 797 508 819 q 447 760 463 775 q 432 746 432 746 l 363 746 q 347 761 363 746 q 309 799 332 776 q 259 847 286 821 q 209 896 232 874 q 171 933 186 918 q 156 947 156 947 l 189 989 q 205 980 189 989 q 244 956 221 971 q 294 926 267 942 q 344 895 321 910 q 382 872 367 881 q 397 863 397 863 z "},"Ď":{"ha":1063,"x_min":181,"x_max":1021,"o":"m 181 0 l 181 972 l 500 972 q 711 935 615 972 q 876 834 807 899 q 983 681 944 769 q 1021 489 1021 592 q 981 292 1021 382 q 873 138 942 203 q 713 36 804 72 q 517 0 621 0 l 181 0 m 307 61 l 460 61 q 653 99 574 61 q 785 199 733 138 q 860 335 836 260 q 883 486 883 411 q 856 647 883 569 q 774 783 828 724 q 642 876 721 842 q 460 911 563 911 l 307 911 l 307 61 m 531 1140 q 546 1149 531 1139 q 584 1172 561 1158 q 634 1203 607 1186 q 684 1234 661 1219 q 722 1258 707 1249 q 738 1268 738 1268 l 772 1225 q 757 1210 772 1225 q 719 1172 742 1194 q 669 1124 696 1150 q 619 1075 642 1097 q 581 1038 596 1053 q 565 1024 565 1024 l 496 1024 q 481 1039 496 1024 q 442 1076 465 1054 q 392 1125 419 1099 q 342 1174 365 1151 q 304 1210 319 1196 q 289 1225 289 1225 l 322 1267 q 338 1258 322 1267 q 377 1234 354 1249 q 427 1203 400 1219 q 477 1173 454 1188 q 515 1149 500 1158 q 531 1140 531 1140 z "},"ď":{"ha":1033,"x_min":69,"x_max":922,"o":"m 728 972 l 610 972 l 610 581 l 604 581 q 567 641 590 617 q 515 681 544 665 q 453 703 486 696 q 388 710 421 710 q 260 684 318 710 q 159 611 201 658 q 93 497 117 564 q 69 349 69 431 q 93 198 69 265 q 159 83 117 131 q 260 9 201 35 q 388 -17 318 -17 q 604 113 551 -17 l 610 113 l 610 0 l 728 0 l 728 972 m 610 278 q 594 191 610 232 q 553 120 579 150 q 492 73 528 90 q 417 56 457 56 q 333 72 372 56 q 265 122 294 88 q 219 213 236 157 q 201 346 201 268 q 219 481 201 425 q 266 572 236 536 q 335 623 296 607 q 417 639 374 639 q 490 623 456 639 q 551 576 525 607 q 594 500 578 544 q 610 399 610 456 l 610 278 m 922 971 l 790 971 l 790 613 l 840 613 l 922 971 z "},"Đ":{"ha":1092,"x_min":14,"x_max":1008,"o":"m 14 515 l 167 515 l 167 972 l 486 972 q 698 935 601 972 q 863 832 794 897 q 970 676 932 767 q 1008 482 1008 586 q 968 288 1008 376 q 859 136 928 200 q 699 36 790 72 q 503 0 607 0 l 167 0 l 167 460 l 14 460 l 14 515 m 293 61 l 446 61 q 640 100 560 61 q 771 201 719 139 q 846 339 822 263 q 869 490 869 415 q 842 651 869 575 q 760 785 814 728 q 628 877 707 843 q 446 911 549 911 l 293 911 l 293 515 l 449 515 l 449 460 l 293 460 l 293 61 z "},"đ":{"ha":839,"x_min":69,"x_max":838,"o":"m 728 972 l 610 972 l 610 854 l 403 854 l 403 797 l 610 797 l 610 581 l 604 581 q 567 641 590 617 q 515 681 544 665 q 453 703 486 696 q 388 710 421 710 q 260 684 318 710 q 159 611 201 658 q 93 497 117 564 q 69 349 69 431 q 93 198 69 265 q 159 83 117 131 q 260 9 201 35 q 388 -17 318 -17 q 604 113 551 -17 l 610 113 l 610 0 l 728 0 l 728 797 l 838 797 l 838 854 l 728 854 l 728 972 m 610 278 q 594 191 610 232 q 553 120 579 150 q 492 73 528 90 q 417 56 457 56 q 333 72 372 56 q 265 122 294 88 q 219 213 236 157 q 201 346 201 268 q 219 481 201 425 q 266 572 236 536 q 335 623 296 607 q 417 639 374 639 q 490 623 456 639 q 551 576 525 607 q 594 500 578 544 q 610 399 610 456 l 610 278 z "},"Ń":{"ha":1181,"x_min":167,"x_max":1014,"o":"m 950 972 l 950 229 l 944 229 l 174 989 l 167 989 l 167 0 l 231 0 l 231 743 l 236 743 l 1007 -17 l 1014 -17 l 1014 972 l 950 972 m 571 1267 l 725 1267 l 510 1090 l 456 1090 l 571 1267 z "},"Ň":{"ha":1181,"x_min":167,"x_max":1014,"o":"m 950 972 l 950 229 l 944 229 l 174 989 l 167 989 l 167 0 l 231 0 l 231 743 l 236 743 l 1007 -17 l 1014 -17 l 1014 972 l 950 972 m 589 1140 q 604 1149 589 1139 q 642 1172 619 1158 q 692 1203 665 1186 q 742 1234 719 1219 q 781 1258 765 1249 q 796 1268 796 1268 l 831 1225 q 815 1210 831 1225 q 777 1172 800 1194 q 727 1124 754 1150 q 677 1075 700 1097 q 639 1038 654 1053 q 624 1024 624 1024 l 554 1024 q 539 1039 554 1024 q 501 1076 524 1054 q 451 1125 478 1099 q 401 1174 424 1151 q 363 1210 378 1196 q 347 1225 347 1225 l 381 1267 q 397 1258 381 1267 q 435 1234 413 1249 q 485 1203 458 1219 q 535 1173 513 1188 q 574 1149 558 1158 q 589 1140 589 1140 z "},"ń":{"ha":807,"x_min":111,"x_max":692,"o":"m 692 0 l 692 450 q 688 519 692 475 q 660 605 683 563 q 588 678 638 647 q 446 710 538 710 q 356 694 406 711 q 257 628 306 676 l 235 606 l 229 606 l 229 694 l 111 694 l 111 0 l 229 0 l 229 429 q 244 522 229 483 q 286 588 260 561 q 347 626 313 614 q 417 639 381 639 q 507 616 475 639 q 553 563 539 593 q 571 501 568 532 q 574 457 574 471 l 574 0 l 692 0 m 383 989 l 538 989 l 322 813 l 268 813 l 383 989 z "},"ň":{"ha":807,"x_min":111,"x_max":692,"o":"m 692 0 l 692 450 q 688 519 692 475 q 660 605 683 563 q 588 678 638 647 q 446 710 538 710 q 356 694 406 711 q 257 628 306 676 l 235 606 l 229 606 l 229 694 l 111 694 l 111 0 l 229 0 l 229 429 q 244 522 229 483 q 286 588 260 561 q 347 626 313 614 q 417 639 381 639 q 507 616 475 639 q 553 563 539 593 q 571 501 568 532 q 574 457 574 471 l 574 0 l 692 0 m 403 863 q 418 871 403 861 q 456 894 433 881 q 506 925 479 908 q 556 956 533 942 q 594 981 579 971 q 610 990 610 990 l 644 947 q 629 932 644 947 q 591 894 614 917 q 541 846 568 872 q 491 797 514 819 q 453 760 468 775 q 438 746 438 746 l 368 746 q 353 761 368 746 q 315 799 338 776 q 265 847 292 821 q 215 896 238 874 q 176 933 192 918 q 161 947 161 947 l 194 989 q 210 980 194 989 q 249 956 226 971 q 299 926 272 942 q 349 895 326 910 q 388 872 372 881 q 403 863 403 863 z "},"Ő":{"ha":1201,"x_min":69,"x_max":1132,"o":"m 69 486 q 99 320 69 408 q 193 157 129 232 q 356 33 257 82 q 592 -17 454 -17 q 760 6 685 -17 q 897 68 836 29 q 1001 158 957 107 q 1074 265 1046 208 q 1117 378 1103 321 q 1132 486 1132 435 q 1100 652 1132 564 q 1001 815 1068 740 q 833 940 935 890 q 592 989 731 989 q 356 940 454 989 q 193 817 257 892 q 99 654 129 743 q 69 486 69 565 m 206 486 q 235 665 206 583 q 317 804 265 746 q 440 895 369 863 q 594 928 511 928 q 749 895 676 928 q 877 804 822 863 q 964 665 932 746 q 996 486 996 583 q 964 308 996 389 q 877 168 932 226 q 749 77 822 110 q 594 44 676 44 q 440 77 511 44 q 317 168 369 110 q 235 308 265 226 q 206 486 206 389 m 468 1267 l 622 1267 l 451 1090 l 397 1090 l 468 1267 m 649 1267 l 803 1267 l 632 1090 l 578 1090 l 649 1267 z "},"ő":{"ha":858,"x_min":69,"x_max":789,"o":"m 789 346 q 764 208 789 274 q 692 92 739 142 q 580 13 646 42 q 432 -17 514 -17 q 281 13 349 -17 q 167 93 214 43 q 95 209 121 143 q 69 346 69 275 q 95 484 69 418 q 167 600 121 550 q 281 680 214 650 q 432 710 349 710 q 580 680 514 710 q 692 600 646 650 q 764 484 739 550 q 789 346 789 418 m 657 346 q 636 503 657 443 q 582 597 615 564 q 508 642 549 631 q 431 654 468 654 q 353 642 393 654 q 278 597 313 631 q 223 503 244 564 q 201 346 201 443 q 223 190 201 250 q 278 96 244 129 q 353 51 313 63 q 431 39 393 39 q 508 51 468 39 q 582 96 549 63 q 636 190 615 129 q 657 346 657 250 m 297 989 l 451 989 l 281 813 l 226 813 l 297 989 m 478 989 l 632 989 l 461 813 l 407 813 l 478 989 z "},"Ř":{"ha":997,"x_min":167,"x_max":956,"o":"m 167 972 l 167 0 l 293 0 l 293 429 l 354 429 q 419 422 393 429 q 465 399 444 415 q 504 356 486 382 q 547 290 522 329 l 657 128 q 698 69 678 96 q 742 24 718 43 q 795 -6 765 6 q 867 -17 825 -17 q 917 -14 897 -17 q 956 0 936 -11 l 956 51 q 942 49 949 50 q 928 49 935 49 q 876 57 899 49 q 835 81 854 65 q 797 120 815 97 q 760 172 779 143 q 669 308 701 257 q 619 386 638 358 q 588 426 600 414 q 560 447 576 439 l 546 454 l 546 460 q 660 489 613 464 q 739 551 708 514 q 783 633 769 589 q 797 718 797 676 q 783 800 797 756 q 733 883 768 844 q 636 947 697 921 q 482 972 575 972 l 167 972 m 293 911 l 433 911 q 528 896 486 911 q 601 853 571 881 q 648 789 632 826 q 664 707 664 751 q 649 631 664 669 q 606 562 635 593 q 534 511 576 531 q 436 492 492 492 l 293 492 l 293 911 m 497 1140 q 513 1149 497 1139 q 551 1172 528 1158 q 601 1203 574 1186 q 651 1234 628 1219 q 689 1258 674 1249 q 704 1268 704 1268 l 739 1225 q 724 1210 739 1225 q 685 1172 708 1194 q 635 1124 663 1150 q 585 1075 608 1097 q 547 1038 563 1053 q 532 1024 532 1024 l 463 1024 q 447 1039 463 1024 q 409 1076 432 1054 q 359 1125 386 1099 q 309 1174 332 1151 q 271 1210 286 1196 q 256 1225 256 1225 l 289 1267 q 305 1258 289 1267 q 344 1234 321 1249 q 394 1203 367 1219 q 444 1173 421 1188 q 482 1149 467 1158 q 497 1140 497 1140 z "},"ř":{"ha":531,"x_min":22,"x_max":517,"o":"m 111 694 l 111 0 l 229 0 l 229 419 q 242 516 229 476 q 276 581 256 556 q 322 617 297 606 q 371 628 347 628 q 430 607 403 628 q 469 568 457 586 l 517 654 q 487 682 504 671 q 452 699 469 693 q 420 708 435 706 q 399 710 406 710 q 301 678 340 710 q 238 583 263 646 l 229 583 l 229 694 l 111 694 m 264 863 q 279 871 264 861 q 317 894 294 881 q 367 925 340 908 q 417 956 394 942 q 456 981 440 971 q 471 990 471 990 l 506 947 q 490 932 506 947 q 452 894 475 917 q 402 846 429 872 q 352 797 375 819 q 314 760 329 775 q 299 746 299 746 l 229 746 q 214 761 229 746 q 176 799 199 776 q 126 847 153 821 q 76 896 99 874 q 38 933 53 918 q 22 947 22 947 l 56 989 q 72 980 56 989 q 110 956 88 971 q 160 926 133 942 q 210 895 188 910 q 249 872 233 881 q 264 863 264 863 z "},"Ů":{"ha":1000,"x_min":111,"x_max":889,"o":"m 111 972 l 111 375 q 122 249 111 318 q 175 122 133 181 q 299 23 217 63 q 522 -17 381 -17 q 680 11 611 -17 q 795 88 749 39 q 865 201 842 136 q 889 339 889 265 l 889 972 l 828 972 l 828 385 q 826 323 828 354 q 818 260 825 292 q 797 199 811 229 q 754 138 782 168 q 642 64 704 83 q 511 44 579 44 q 408 63 453 44 q 322 117 363 81 q 274 172 290 144 q 249 227 257 200 q 239 282 240 254 q 238 338 238 310 l 238 972 l 111 972 m 418 1151 q 442 1209 418 1186 q 500 1232 465 1232 q 558 1209 533 1232 q 582 1151 582 1186 q 558 1093 582 1117 q 500 1069 533 1069 q 442 1093 465 1069 q 418 1151 418 1117 m 372 1151 q 382 1102 372 1125 q 409 1062 392 1079 q 450 1034 426 1044 q 500 1024 474 1024 q 550 1034 526 1024 q 591 1062 574 1044 q 618 1102 608 1079 q 628 1151 628 1125 q 620 1195 628 1172 q 597 1236 613 1218 q 556 1266 581 1254 q 500 1278 532 1278 q 444 1266 468 1278 q 405 1236 421 1254 q 381 1195 389 1218 q 372 1151 372 1172 z "},"ů":{"ha":807,"x_min":111,"x_max":692,"o":"m 111 694 l 111 243 q 116 174 111 218 q 144 88 121 131 q 219 15 168 46 q 361 -17 269 -17 q 449 -1 401 -18 q 546 65 497 17 l 568 88 l 574 88 l 574 0 l 692 0 l 692 694 l 574 694 l 574 264 q 558 171 574 210 q 518 106 543 132 q 460 68 493 81 q 390 56 426 56 q 299 78 332 56 q 251 132 267 101 q 232 192 235 163 q 229 236 229 222 l 229 694 l 111 694 m 321 874 q 344 931 321 908 q 403 954 368 954 q 460 931 436 954 q 485 874 485 908 q 460 815 485 839 q 403 792 436 792 q 344 815 368 792 q 321 874 321 839 m 275 874 q 285 824 275 847 q 312 784 294 801 q 353 756 329 767 q 403 746 376 746 q 453 756 429 746 q 494 784 476 767 q 521 824 511 801 q 531 874 531 847 q 523 917 531 894 q 499 958 515 940 q 459 988 483 976 q 403 1000 435 1000 q 347 988 371 1000 q 308 958 324 976 q 283 917 292 940 q 275 874 275 894 z "},"Ű":{"ha":1000,"x_min":111,"x_max":889,"o":"m 111 972 l 111 375 q 122 249 111 318 q 175 122 133 181 q 299 23 217 63 q 522 -17 381 -17 q 680 11 611 -17 q 795 88 749 39 q 865 201 842 136 q 889 339 889 265 l 889 972 l 828 972 l 828 385 q 826 323 828 354 q 818 260 825 292 q 797 199 811 229 q 754 138 782 168 q 642 64 704 83 q 511 44 579 44 q 408 63 453 44 q 322 117 363 81 q 274 172 290 144 q 249 227 257 200 q 239 282 240 254 q 238 338 238 310 l 238 972 l 111 972 m 368 1267 l 522 1267 l 351 1090 l 297 1090 l 368 1267 m 549 1267 l 703 1267 l 532 1090 l 478 1090 l 549 1267 z "},"ű":{"ha":807,"x_min":111,"x_max":692,"o":"m 111 694 l 111 243 q 116 174 111 218 q 144 88 121 131 q 219 15 168 46 q 361 -17 269 -17 q 449 -1 401 -18 q 546 65 497 17 l 568 88 l 574 88 l 574 0 l 692 0 l 692 694 l 574 694 l 574 264 q 558 171 574 210 q 518 106 543 132 q 460 68 493 81 q 390 56 426 56 q 299 78 332 56 q 251 132 267 101 q 232 192 235 163 q 229 236 229 222 l 229 694 l 111 694 m 271 989 l 425 989 l 254 813 l 200 813 l 271 989 m 451 989 l 606 989 l 435 813 l 381 813 l 451 989 z "},"Ţ":{"ha":926,"x_min":28,"x_max":899,"o":"m 526 0 l 526 896 l 899 896 l 899 972 l 28 972 l 28 896 l 400 896 l 400 0 l 526 0 m 531 -68 l 400 -68 l 400 -306 l 447 -306 l 531 -68 z "},"ţ":{"ha":521,"x_min":42,"x_max":510,"o":"m 42 639 l 42 694 l 163 694 l 163 908 l 281 908 l 281 694 l 449 694 l 449 639 l 281 639 l 281 178 q 282 140 281 161 q 290 99 283 118 q 312 68 297 81 q 353 56 326 56 q 408 81 386 56 q 444 135 431 106 l 510 68 q 356 0 442 0 q 285 13 319 0 q 223 51 250 25 q 179 117 196 76 q 163 211 163 157 l 163 639 l 42 639 m 406 -68 l 275 -68 l 275 -306 l 322 -306 l 406 -68 z "},"Ą":{"ha":1017,"x_min":42,"x_max":975,"o":"m 908 0 l 844 -46 q 776 -107 807 -74 q 744 -181 744 -140 q 777 -246 744 -228 q 847 -264 810 -264 q 910 -253 879 -264 q 964 -225 942 -242 l 949 -187 q 914 -203 935 -194 q 874 -211 893 -211 q 837 -193 844 -211 q 829 -167 829 -175 q 842 -121 829 -143 q 875 -77 854 -99 q 922 -36 896 -56 q 975 0 949 -17 l 522 972 l 453 972 l 42 0 l 106 0 l 228 286 l 707 286 l 840 0 l 908 0 m 678 349 l 254 349 l 454 817 l 460 817 l 678 349 z "},"Ś":{"ha":868,"x_min":51,"x_max":774,"o":"m 51 246 q 83 138 54 186 q 160 55 111 89 q 276 2 210 21 q 422 -17 343 -17 q 567 3 503 -17 q 678 58 632 22 q 749 146 724 94 q 774 260 774 197 q 731 401 774 346 q 623 492 688 456 q 483 554 558 529 q 342 607 407 579 q 235 671 278 635 q 192 767 192 707 q 206 829 192 800 q 249 880 221 858 q 319 915 278 901 q 415 928 361 928 q 569 890 506 928 q 643 769 632 851 l 738 769 q 700 862 729 821 q 626 931 671 903 q 526 974 582 960 q 408 989 469 989 q 287 972 344 989 q 185 924 229 956 q 116 843 142 892 q 90 732 90 794 q 132 600 90 650 q 237 517 174 550 q 374 460 300 483 q 510 406 447 436 q 615 333 574 376 q 657 218 657 290 q 591 86 657 128 q 415 44 525 44 q 275 67 328 44 q 194 122 222 90 q 157 188 167 154 q 146 246 147 222 l 51 246 m 414 1267 l 568 1267 l 353 1090 l 299 1090 l 414 1267 z "},"Ť":{"ha":926,"x_min":28,"x_max":899,"o":"m 526 0 l 526 896 l 899 896 l 899 972 l 28 972 l 28 896 l 400 896 l 400 0 l 526 0 m 463 1140 q 478 1149 463 1139 q 516 1172 493 1158 q 566 1203 539 1186 q 616 1234 593 1219 q 654 1258 639 1249 q 669 1268 669 1268 l 704 1225 q 689 1210 704 1225 q 651 1172 674 1194 q 601 1124 628 1150 q 551 1075 574 1097 q 513 1038 528 1053 q 497 1024 497 1024 l 428 1024 q 413 1039 428 1024 q 374 1076 397 1054 q 324 1125 351 1099 q 274 1174 297 1151 q 236 1210 251 1196 q 221 1225 221 1225 l 254 1267 q 270 1258 254 1267 q 309 1234 286 1249 q 359 1203 332 1219 q 409 1173 386 1188 q 447 1149 432 1158 q 463 1140 463 1140 z "},"Ź":{"ha":925,"x_min":42,"x_max":883,"o":"m 76 972 l 76 896 l 664 896 l 42 0 l 883 0 l 883 76 l 243 76 l 860 972 l 76 972 m 443 1267 l 597 1267 l 382 1090 l 328 1090 l 443 1267 z "},"ś":{"ha":667,"x_min":46,"x_max":590,"o":"m 554 536 q 535 606 554 574 q 481 660 515 638 q 402 697 447 683 q 306 710 357 710 q 215 697 257 710 q 141 660 172 685 q 92 598 110 635 q 74 513 74 561 q 104 407 74 446 q 181 344 135 368 q 280 306 226 321 q 379 274 333 292 q 456 231 425 257 q 486 158 486 204 q 480 118 486 139 q 457 80 474 97 q 411 51 440 63 q 338 39 382 39 q 244 56 282 39 q 181 98 206 74 q 147 147 157 122 q 136 189 136 172 l 46 189 q 64 113 46 150 q 119 47 82 76 q 209 1 156 18 q 333 -17 263 -17 q 526 40 461 -17 q 590 188 590 96 q 559 294 590 254 q 481 359 528 335 q 378 399 433 383 q 276 431 324 414 q 198 471 229 447 q 167 538 167 494 q 174 576 167 556 q 197 613 181 596 q 242 642 214 631 q 311 654 269 654 q 383 642 353 654 q 435 613 414 631 q 465 575 456 596 q 475 536 475 554 l 554 536 m 314 989 l 468 989 l 253 813 l 199 813 l 314 989 z "},"ť":{"ha":792,"x_min":42,"x_max":722,"o":"m 42 639 l 42 694 l 163 694 l 163 908 l 281 908 l 281 694 l 449 694 l 449 639 l 281 639 l 281 178 q 282 140 281 161 q 290 99 283 118 q 312 68 297 81 q 353 56 326 56 q 408 81 386 56 q 444 135 431 106 l 510 68 q 356 0 442 0 q 285 13 319 0 q 223 51 250 25 q 179 117 196 76 q 163 211 163 157 l 163 639 l 42 639 m 722 997 l 590 997 l 590 639 l 640 639 l 722 997 z "},"ź":{"ha":681,"x_min":28,"x_max":639,"o":"m 50 694 l 50 639 l 468 639 l 28 0 l 635 0 l 635 56 l 199 56 l 639 694 l 50 694 m 321 989 l 475 989 l 260 813 l 206 813 l 321 989 z "},"ż":{"ha":681,"x_min":28,"x_max":639,"o":"m 50 694 l 50 639 l 468 639 l 28 0 l 635 0 l 635 56 l 199 56 l 639 694 l 50 694 m 265 914 q 288 861 265 883 q 340 839 310 839 q 393 861 371 839 q 415 914 415 883 q 393 967 415 944 q 340 989 371 989 q 288 967 310 989 q 265 914 265 944 z "},"ľ":{"ha":579,"x_min":139,"x_max":472,"o":"m 257 972 l 139 972 l 139 0 l 257 0 l 257 972 m 472 972 l 340 972 l 340 614 l 390 614 l 472 972 z "},"Ľ":{"ha":836,"x_min":167,"x_max":794,"o":"m 167 0 l 167 972 l 293 972 l 293 76 l 794 76 l 794 0 l 167 0 m 533 974 l 401 974 l 401 615 l 451 615 l 533 974 z "},"ą":{"ha":750,"x_min":56,"x_max":639,"o":"m 367 710 q 524 681 468 710 q 605 607 579 653 q 635 501 631 561 q 639 379 639 442 l 639 0 l 526 0 l 526 68 q 424 6 486 29 q 299 -17 361 -17 q 193 4 239 -17 q 117 58 147 25 q 71 133 86 92 q 56 218 56 175 q 72 307 56 263 q 122 387 89 351 q 204 444 156 422 q 315 467 253 467 q 434 442 378 467 q 526 374 490 418 l 526 433 q 492 603 526 547 q 368 658 458 658 q 300 649 329 658 q 248 622 271 639 q 206 578 225 604 q 167 521 186 553 l 94 593 q 135 635 114 614 q 188 672 157 656 q 263 699 219 689 q 367 710 306 710 m 526 275 q 506 314 519 292 q 472 357 493 336 q 422 392 451 378 q 353 407 393 407 q 279 391 313 407 q 223 349 246 375 q 188 289 200 324 q 175 217 175 254 q 191 140 175 172 q 232 84 207 107 q 288 50 257 61 q 346 39 318 39 q 399 49 372 39 q 451 76 426 58 q 494 117 475 93 q 526 168 514 140 l 526 275 m 572 0 l 508 -46 q 440 -107 471 -74 q 408 -181 408 -140 q 441 -246 408 -228 q 511 -264 474 -264 q 574 -253 543 -264 q 628 -225 606 -242 l 613 -187 q 578 -203 599 -194 q 538 -211 557 -211 q 501 -193 508 -211 q 493 -167 493 -175 q 506 -121 493 -143 q 539 -77 518 -99 q 586 -36 560 -56 q 639 0 613 -17 l 572 0 z "},"ş":{"ha":667,"x_min":69,"x_max":597,"o":"m 563 536 q 545 606 563 574 q 496 660 528 638 q 419 697 464 683 q 321 710 375 710 q 233 698 274 710 q 162 661 192 686 q 115 597 132 636 q 97 501 97 557 q 126 417 97 451 q 200 356 156 382 q 295 308 244 329 q 390 266 346 288 q 464 219 435 244 q 493 157 493 193 q 486 118 493 139 q 462 80 479 97 q 413 51 444 63 q 333 39 382 39 q 253 56 285 39 q 201 96 221 72 q 174 145 182 119 q 165 189 165 171 l 69 189 q 85 113 69 150 q 134 47 101 76 q 216 1 167 18 q 332 -17 265 -17 q 453 -2 403 -17 q 536 40 504 13 q 583 103 568 67 q 597 183 597 139 q 567 281 597 242 q 492 349 538 321 q 394 397 446 376 q 296 438 342 418 q 220 480 250 457 q 190 536 190 503 q 197 575 190 554 q 218 614 203 596 q 260 643 233 632 q 328 654 288 654 q 402 642 372 654 q 449 613 432 631 q 474 575 467 596 q 482 536 482 554 l 563 536 m 406 -68 l 275 -68 l 275 -306 l 322 -306 l 406 -68 z "},"Ż":{"ha":925,"x_min":42,"x_max":883,"o":"m 76 972 l 76 896 l 664 896 l 42 0 l 883 0 l 883 76 l 243 76 l 860 972 l 76 972 m 388 1192 q 410 1139 388 1161 q 463 1117 432 1117 q 515 1139 493 1117 q 538 1192 538 1161 q 515 1244 538 1222 q 463 1267 493 1267 q 410 1244 432 1267 q 388 1192 388 1222 z "},"Ş":{"ha":868,"x_min":83,"x_max":799,"o":"m 83 246 q 113 139 85 188 q 190 56 142 90 q 302 2 238 21 q 442 -17 367 -17 q 703 57 608 -17 q 799 264 799 131 q 756 412 799 354 q 648 507 713 469 q 508 569 583 544 q 367 619 432 593 q 260 680 303 646 q 217 771 217 714 q 231 830 217 801 q 274 880 246 858 q 345 915 303 901 q 442 928 388 928 q 584 890 531 928 q 649 769 638 851 l 758 769 q 720 865 750 824 q 647 933 690 906 q 549 975 603 961 q 439 989 494 989 q 312 972 371 989 q 209 923 253 956 q 140 842 165 890 q 115 729 115 793 q 157 582 115 638 q 262 492 199 526 q 399 436 325 458 q 535 389 472 414 q 640 327 599 364 q 682 226 682 290 q 665 142 682 176 q 616 86 647 108 q 540 54 585 64 q 443 44 496 44 q 329 67 375 44 q 255 122 283 90 q 214 188 226 154 q 200 246 201 222 l 83 246 m 515 -68 l 385 -68 l 385 -306 l 432 -306 l 515 -68 z "},"Ł":{"ha":836,"x_min":36,"x_max":794,"o":"m 167 0 l 167 379 l 64 310 l 36 350 l 167 439 l 167 972 l 293 972 l 293 525 l 397 597 l 426 556 l 293 465 l 293 76 l 794 76 l 794 0 l 167 0 z "},"ł":{"ha":446,"x_min":28,"x_max":418,"o":"m 279 972 l 163 972 l 163 442 l 28 350 l 56 310 l 163 382 l 163 0 l 281 0 l 281 463 l 418 556 l 389 597 l 279 522 l 279 972 z "},"Ğ":{"ha":1135,"x_min":83,"x_max":1054,"o":"m 1051 433 l 776 433 l 776 376 l 932 376 l 932 125 q 804 65 869 85 q 656 46 739 46 q 464 79 546 46 q 328 172 382 113 q 247 312 274 231 q 219 490 219 393 q 245 667 219 586 q 322 806 271 747 q 448 896 374 864 q 621 928 522 928 q 743 914 686 928 q 844 878 800 900 q 917 827 889 856 q 954 769 946 799 l 1054 769 q 1012 838 1042 800 q 931 910 982 876 q 803 966 879 943 q 625 989 728 989 q 408 956 507 989 q 236 860 308 922 q 124 706 164 797 q 83 500 83 615 q 115 309 83 401 q 210 144 146 217 q 375 27 275 71 q 614 -17 475 -17 q 799 6 718 -17 q 932 57 879 29 l 932 0 l 1051 0 l 1051 433 m 363 1267 q 378 1193 363 1228 q 421 1133 393 1158 q 485 1092 449 1107 q 567 1078 522 1078 q 647 1092 610 1078 q 713 1133 685 1107 q 756 1193 740 1158 q 771 1267 771 1228 l 713 1267 q 667 1166 710 1204 q 567 1128 625 1128 q 467 1166 510 1128 q 421 1267 425 1204 l 363 1267 z "},"ğ":{"ha":836,"x_min":69,"x_max":725,"o":"m 607 -58 q 592 -167 607 -122 q 549 -239 576 -211 q 485 -279 522 -267 q 407 -292 449 -292 q 288 -254 333 -292 q 206 -154 243 -217 l 129 -224 q 160 -256 139 -236 q 213 -297 181 -276 q 289 -331 244 -317 q 390 -346 333 -346 q 561 -316 496 -346 q 663 -236 626 -286 q 712 -122 699 -186 q 725 13 725 -57 l 725 694 l 607 694 l 607 586 l 601 586 q 530 677 585 644 q 386 710 475 710 q 257 684 315 710 q 157 611 199 658 q 92 497 115 564 q 69 349 69 431 q 92 198 69 265 q 157 83 115 131 q 256 9 199 35 q 385 -17 314 -17 q 520 14 463 -17 q 601 111 578 44 l 607 111 l 607 -58 m 607 296 q 591 193 607 238 q 549 118 575 149 q 488 72 522 88 q 415 56 453 56 q 344 67 382 56 q 273 111 306 79 q 219 201 240 143 q 197 351 197 260 q 224 506 197 449 q 285 594 250 564 q 358 634 321 625 q 415 643 394 643 q 497 623 461 643 q 558 569 533 603 q 594 490 582 535 q 607 399 607 446 l 607 296 m 214 989 q 229 915 214 950 q 272 855 244 881 q 337 815 300 829 q 418 800 374 800 q 499 815 461 800 q 564 855 536 829 q 607 915 592 881 q 622 989 622 950 l 564 989 q 519 888 561 926 q 418 850 476 850 q 319 888 361 850 q 272 989 276 926 l 214 989 z "},"İ":{"ha":571,"x_min":210,"x_max":360,"o":"m 222 972 l 222 0 l 349 0 l 349 972 l 222 972 m 210 1192 q 232 1139 210 1161 q 285 1117 254 1117 q 338 1139 315 1117 q 360 1192 360 1161 q 338 1244 360 1222 q 285 1267 315 1267 q 232 1244 254 1267 q 210 1192 210 1222 z "},"ı":{"ha":428,"x_min":139,"x_max":289,"o":"m 156 694 l 156 0 l 274 0 l 274 694 l 156 694 m 139 914 q 161 861 139 883 q 214 839 183 839 q 267 861 244 839 q 289 914 289 883 q 267 967 289 944 q 214 989 244 989 q 161 967 183 989 q 139 914 139 944 z "},"Į":{"ha":571,"x_min":118,"x_max":349,"o":"m 282 0 l 218 -46 q 149 -107 181 -74 q 118 -181 118 -140 q 151 -246 118 -228 q 221 -264 183 -264 q 284 -253 253 -264 q 338 -225 315 -242 l 322 -187 q 288 -203 308 -194 q 247 -211 267 -211 q 210 -193 218 -211 q 203 -167 203 -175 q 215 -121 203 -143 q 249 -77 228 -99 q 296 -36 269 -56 q 349 0 322 -17 l 349 972 l 222 972 l 222 0 l 282 0 z "},"į":{"ha":428,"x_min":42,"x_max":289,"o":"m 156 694 l 156 0 l 201 0 l 142 -43 q 73 -104 104 -71 q 42 -178 42 -137 q 74 -243 42 -225 q 144 -261 107 -261 q 208 -250 176 -261 q 261 -222 239 -239 l 246 -185 q 211 -200 232 -192 q 171 -208 190 -208 q 134 -190 142 -208 q 126 -164 126 -172 q 139 -119 126 -142 q 172 -76 151 -97 q 217 -36 192 -56 q 268 0 242 -17 l 274 0 l 274 694 l 156 694 m 139 914 q 161 861 139 883 q 214 839 183 839 q 267 861 244 839 q 289 914 289 883 q 267 967 289 944 q 214 989 244 989 q 161 967 183 989 q 139 914 139 944 z "},"Ā":{"ha":1017,"x_min":42,"x_max":975,"o":"m 707 286 l 840 0 l 975 0 l 522 972 l 453 972 l 42 0 l 106 0 l 228 286 l 707 286 m 678 349 l 254 349 l 454 817 l 460 817 l 678 349 m 290 1088 l 725 1088 l 725 1143 l 290 1143 l 290 1088 z "},"ā":{"ha":750,"x_min":56,"x_max":639,"o":"m 367 710 q 524 681 468 710 q 605 607 579 653 q 635 501 631 561 q 639 379 639 442 l 639 0 l 526 0 l 526 68 q 424 6 486 29 q 299 -17 361 -17 q 193 4 239 -17 q 117 58 147 25 q 71 133 86 92 q 56 218 56 175 q 72 307 56 263 q 122 387 89 351 q 204 444 156 422 q 315 467 253 467 q 434 442 378 467 q 526 374 490 418 l 526 433 q 492 603 526 547 q 368 658 458 658 q 300 649 329 658 q 248 622 271 639 q 206 578 225 604 q 167 521 186 553 l 94 593 q 135 635 114 614 q 188 672 157 656 q 263 699 219 689 q 367 710 306 710 m 526 275 q 506 314 519 292 q 472 357 493 336 q 422 392 451 378 q 353 407 393 407 q 279 391 313 407 q 223 349 246 375 q 188 289 200 324 q 175 217 175 254 q 191 140 175 172 q 232 84 207 107 q 288 50 257 61 q 346 39 318 39 q 399 49 372 39 q 451 76 426 58 q 494 117 475 93 q 526 168 514 140 l 526 275 m 157 810 l 592 810 l 592 865 l 157 865 l 157 810 z "},"Ē":{"ha":836,"x_min":167,"x_max":794,"o":"m 167 972 l 167 0 l 794 0 l 794 76 l 293 76 l 293 483 l 724 483 l 724 547 l 293 547 l 293 896 l 794 896 l 794 972 l 167 972 m 200 1088 l 635 1088 l 635 1143 l 200 1143 l 200 1088 z "},"ē":{"ha":797,"x_min":69,"x_max":728,"o":"m 728 317 l 728 346 q 701 507 728 439 q 630 619 675 575 q 525 686 585 664 q 399 708 465 708 q 268 684 328 708 q 164 613 208 660 q 94 501 119 567 q 69 351 69 435 q 91 216 69 282 q 156 98 113 150 q 267 15 200 46 q 426 -17 335 -17 q 590 15 515 -17 q 721 104 665 46 l 676 149 q 622 103 647 124 q 569 68 596 82 q 515 47 543 54 q 451 39 486 39 q 369 51 413 39 q 288 93 325 63 q 225 178 250 124 q 200 317 200 232 l 728 317 m 200 372 q 212 480 200 428 q 248 572 224 532 q 310 637 272 613 q 399 661 347 661 q 552 584 497 661 q 607 372 607 507 l 200 372 m 181 810 l 615 810 l 615 865 l 181 865 l 181 810 z "},"Ė":{"ha":836,"x_min":167,"x_max":794,"o":"m 167 972 l 167 0 l 794 0 l 794 76 l 293 76 l 293 483 l 724 483 l 724 547 l 293 547 l 293 896 l 794 896 l 794 972 l 167 972 m 343 1192 q 365 1139 343 1161 q 418 1117 388 1117 q 471 1139 449 1117 q 493 1192 493 1161 q 471 1244 493 1222 q 418 1267 449 1267 q 365 1244 388 1267 q 343 1192 343 1222 z "},"ė":{"ha":797,"x_min":69,"x_max":728,"o":"m 728 317 l 728 346 q 701 507 728 439 q 630 619 675 575 q 525 686 585 664 q 399 708 465 708 q 268 684 328 708 q 164 613 208 660 q 94 501 119 567 q 69 351 69 435 q 91 216 69 282 q 156 98 113 150 q 267 15 200 46 q 426 -17 335 -17 q 590 15 515 -17 q 721 104 665 46 l 676 149 q 622 103 647 124 q 569 68 596 82 q 515 47 543 54 q 451 39 486 39 q 369 51 413 39 q 288 93 325 63 q 225 178 250 124 q 200 317 200 232 l 728 317 m 200 372 q 212 480 200 428 q 248 572 224 532 q 310 637 272 613 q 399 661 347 661 q 552 584 497 661 q 607 372 607 507 l 200 372 m 324 914 q 346 861 324 883 q 399 839 368 839 q 451 861 429 839 q 474 914 474 883 q 451 967 474 944 q 399 989 429 989 q 346 967 368 989 q 324 914 324 944 z "},"Ī":{"ha":571,"x_min":68,"x_max":503,"o":"m 222 972 l 222 0 l 349 0 l 349 972 l 222 972 m 68 1088 l 503 1088 l 503 1143 l 68 1143 l 68 1088 z "},"Ģ":{"ha":1135,"x_min":83,"x_max":1051,"o":"m 1050 433 l 776 433 l 776 376 l 932 376 l 932 125 q 803 65 869 85 q 661 46 738 46 q 470 83 553 46 q 333 183 388 121 q 250 325 278 244 q 222 492 222 406 q 251 668 222 588 q 335 806 281 749 q 466 897 389 864 q 639 929 543 929 q 731 915 686 929 q 814 879 776 901 q 878 828 851 857 q 913 769 904 799 l 1043 769 q 1001 841 1029 803 q 924 912 974 879 q 799 967 874 944 q 615 989 724 989 q 406 954 503 989 q 238 856 310 919 q 124 702 165 792 q 83 503 83 613 q 115 311 83 404 q 210 145 146 218 q 373 28 275 72 q 606 -17 471 -17 q 798 6 719 -17 q 932 57 876 28 l 932 0 l 1051 0 l 1050 433 m 681 -68 l 550 -68 l 550 -306 l 597 -306 l 681 -68 z "},"Ķ":{"ha":1006,"x_min":167,"x_max":964,"o":"m 167 0 l 293 0 l 293 342 l 450 510 l 819 0 l 964 0 l 531 596 l 883 972 l 814 972 l 293 425 l 293 972 l 167 972 l 167 0 m 622 -68 l 492 -68 l 492 -306 l 539 -306 l 622 -68 z "},"ģ":{"ha":836,"x_min":69,"x_max":725,"o":"m 607 -58 q 592 -167 607 -122 q 549 -239 576 -211 q 485 -279 522 -267 q 407 -292 449 -292 q 288 -254 333 -292 q 206 -154 243 -217 l 129 -224 q 160 -256 139 -236 q 213 -297 181 -276 q 289 -331 244 -317 q 390 -346 333 -346 q 561 -316 496 -346 q 663 -236 626 -286 q 712 -122 699 -186 q 725 13 725 -57 l 725 694 l 607 694 l 607 586 l 601 586 q 530 677 585 644 q 386 710 475 710 q 257 684 315 710 q 157 611 199 658 q 92 497 115 564 q 69 349 69 431 q 92 198 69 265 q 157 83 115 131 q 256 9 199 35 q 385 -17 314 -17 q 520 14 463 -17 q 601 111 578 44 l 607 111 l 607 -58 m 607 296 q 591 193 607 238 q 549 118 575 149 q 488 72 522 88 q 415 56 453 56 q 344 67 382 56 q 275 111 307 79 q 222 201 243 143 q 201 351 201 260 q 227 506 201 449 q 288 592 253 563 q 358 631 322 622 q 415 639 394 639 q 497 619 461 639 q 558 567 533 600 q 594 490 582 533 q 607 399 607 446 l 607 296 m 322 756 l 453 756 l 453 989 l 406 989 l 322 756 z "},"ķ":{"ha":744,"x_min":111,"x_max":744,"o":"m 229 972 l 111 972 l 111 0 l 229 0 l 229 261 l 310 343 l 589 0 l 744 0 l 396 428 l 661 694 l 571 694 l 229 350 l 229 972 m 468 -68 l 338 -68 l 338 -306 l 385 -306 l 468 -68 z "},"ī":{"ha":428,"x_min":-3,"x_max":432,"o":"m 156 694 l 156 0 l 274 0 l 274 694 l 156 694 m -3 810 l 432 810 l 432 865 l -3 865 l -3 810 z "},"ļ":{"ha":396,"x_min":135,"x_max":265,"o":"m 257 972 l 139 972 l 139 0 l 257 0 l 257 972 m 265 -68 l 135 -68 l 135 -306 l 182 -306 l 265 -68 z "},"Ļ":{"ha":836,"x_min":167,"x_max":794,"o":"m 167 0 l 167 972 l 293 972 l 293 76 l 794 76 l 794 0 l 167 0 m 558 -68 l 428 -68 l 428 -306 l 475 -306 l 558 -68 z "},"Ņ":{"ha":1181,"x_min":167,"x_max":1014,"o":"m 950 972 l 950 229 l 944 229 l 174 989 l 167 989 l 167 0 l 231 0 l 231 743 l 236 743 l 1007 -17 l 1014 -17 l 1014 972 l 950 972 m 681 -68 l 550 -68 l 550 -306 l 597 -306 l 681 -68 z "},"ņ":{"ha":807,"x_min":111,"x_max":692,"o":"m 692 0 l 692 450 q 688 519 692 475 q 660 605 683 563 q 588 678 638 647 q 446 710 538 710 l 440 710 q 352 692 400 710 q 257 628 304 675 l 235 606 l 229 606 l 229 694 l 111 694 l 111 0 l 229 0 l 229 429 q 244 522 229 483 q 286 588 260 561 q 347 626 313 614 q 417 639 381 639 q 507 616 475 639 q 553 563 539 593 q 571 501 568 532 q 574 457 574 471 l 574 0 l 692 0 m 479 -68 l 349 -68 l 349 -306 l 396 -306 l 479 -68 z "},"Ō":{"ha":1201,"x_min":69,"x_max":1132,"o":"m 69 486 q 99 320 69 408 q 193 157 129 232 q 356 33 257 82 q 592 -17 454 -17 q 760 6 685 -17 q 897 68 836 29 q 1001 158 957 107 q 1074 265 1046 208 q 1117 378 1103 321 q 1132 486 1132 435 q 1100 652 1132 564 q 1001 815 1068 740 q 833 940 935 890 q 592 989 731 989 q 356 940 454 989 q 193 817 257 892 q 99 654 129 743 q 69 486 69 565 m 206 486 q 235 665 206 583 q 317 804 265 746 q 440 895 369 863 q 594 928 511 928 q 749 895 676 928 q 877 804 822 863 q 964 665 932 746 q 996 486 996 583 q 964 308 996 389 q 877 168 932 226 q 749 77 822 110 q 594 44 676 44 q 440 77 511 44 q 317 168 369 110 q 235 308 265 226 q 206 486 206 389 m 383 1088 l 818 1088 l 818 1143 l 383 1143 l 383 1088 z "},"ō":{"ha":858,"x_min":69,"x_max":789,"o":"m 789 346 q 764 208 789 274 q 692 92 739 142 q 580 13 646 42 q 432 -17 514 -17 q 281 13 349 -17 q 167 93 214 43 q 95 209 121 143 q 69 346 69 275 q 95 484 69 418 q 167 600 121 550 q 281 680 214 650 q 432 710 349 710 q 580 680 514 710 q 692 600 646 650 q 764 484 739 550 q 789 346 789 418 m 657 346 q 636 503 657 443 q 582 597 615 564 q 508 642 549 631 q 431 654 468 654 q 353 642 393 654 q 278 597 313 631 q 223 503 244 564 q 201 346 201 443 q 223 190 201 250 q 278 96 244 129 q 353 51 313 63 q 431 39 393 39 q 508 51 468 39 q 582 96 549 63 q 636 190 615 129 q 657 346 657 250 m 211 810 l 646 810 l 646 865 l 211 865 l 211 810 z "}}}
